<?xml version="1.0" standalone="no"?><!DOCTYPE svg PUBLIC "-//W3C//DTD SVG 1.1//EN" "http://www.w3.org/Graphics/SVG/1.1/DTD/svg11.dtd"><svg class="icon" width="200px" height="200.00px" viewBox="0 0 1024 1024" version="1.1" xmlns="http://www.w3.org/2000/svg"><path fill="#ffffff" d="M116.142695 523.523451l824.799122 0c16.768919 0 30.361495-13.591553 30.361495-30.361495 0-16.767895-13.592576-30.360472-30.361495-30.360472L116.142695 462.801485c-16.767895 0-30.360472 13.592576-30.360472 30.360472C85.782224 509.930875 99.3748 523.523451 116.142695 523.523451M487.012398 825.264727 157.035034 495.287363 487.012398 165.30693c11.856026-11.857049 11.856026-31.079856 0-42.935881-11.856026-11.857049-31.079856-11.857049-42.936905 0L92.629165 473.819422c-11.857049 11.857049-11.857049 31.079856 0 42.936905l351.446327 351.445304c11.857049 11.855002 31.080879 11.855002 42.936905 0C498.87047 856.345606 498.87047 837.120752 487.012398 825.264727z" /></svg>