<?xml version="1.0" standalone="no"?><!DOCTYPE svg PUBLIC "-//W3C//DTD SVG 1.1//EN" "http://www.w3.org/Graphics/SVG/1.1/DTD/svg11.dtd"><svg class="icon" width="200px" height="200.00px" viewBox="0 0 1024 1024" version="1.1" xmlns="http://www.w3.org/2000/svg"><path fill="#ffffff" d="M511.999 1024C229.717 1024 0 794.283 0 512S229.717 0 511.999 0s512 229.717 512 512c0.074 282.283-229.644 512-512 512z m0-984.648C251.374 39.352 39.351 251.375 39.351 512c0 260.552 212.024 472.65 472.649 472.65S984.649 772.625 984.649 512 772.624 39.352 511.999 39.352zM347.08 709.949l-32.964-32.963 362.918-362.918 32.964 32.963L347.08 709.949zM709.935 676.957l-32.964 32.964-362.918-362.918 32.964-32.964 362.918 362.918z" /></svg>