<?xml version="1.0" standalone="no"?><!DOCTYPE svg PUBLIC "-//W3C//DTD SVG 1.1//EN" "http://www.w3.org/Graphics/SVG/1.1/DTD/svg11.dtd"><svg class="icon" width="200px" height="200.00px" viewBox="0 0 1024 1024" version="1.1" xmlns="http://www.w3.org/2000/svg"><path fill="#ffffff" d="M322.8792 544.784684l0.367367-0.347924L322.8792 544.784684zM825.752332 309.656549c0-16.942881 13.751189-30.695093 30.711466-30.695093 16.9613 0 30.713512 13.752212 30.713512 30.695093l0 542.714536c0 28.492938-11.653411 54.409191-30.397311 73.147974-0.668219 0.651846-1.338485 1.2689-2.00875 1.851161-18.653849 17.664312-43.724851 28.560476-71.154573 28.560476L240.898047 955.930695c-28.506241 0-54.406121-11.652388-73.164347-30.411637-18.7439-18.739806-30.397311-44.639686-30.397311-73.147974L137.33639 309.656549c0-16.942881 13.752212-30.695093 30.712489-30.695093 16.963347 0 30.712489 13.752212 30.712489 30.695093l0 542.714536c0 11.54801 4.76042 22.091134 12.396331 29.743418 7.632841 7.632841 18.176988 12.393261 29.740348 12.393261l542.717605 0c11.033287 0 21.065781-4.231371 28.523637-11.124362 0.38988-0.442068 0.810459-0.865717 1.215688-1.2689 7.635911-7.653307 12.396331-18.178011 12.396331-29.743418L825.751309 309.656549 825.752332 309.656549zM481.553059 331.74666l0 457.418894c0 16.960277 13.751189 30.695093 30.696116 30.695093 16.95823 0 30.693046-13.734816 30.693046-30.695093L542.942221 331.74666c0-16.960277-13.734816-30.712489-30.693046-30.712489C495.305271 301.034171 481.553059 314.786383 481.553059 331.74666L481.553059 331.74666zM317.801555 331.74666l0 457.418894c0 16.960277 13.752212 30.695093 30.695093 30.695093 16.960277 0 30.695093-13.734816 30.695093-30.695093L379.19174 331.74666c0-16.960277-13.734816-30.712489-30.695093-30.712489C331.55479 301.034171 317.801555 314.786383 317.801555 331.74666L317.801555 331.74666zM645.30354 331.74666l0 457.418894c0 16.960277 13.752212 30.695093 30.712489 30.695093 16.943904 0 30.695093-13.734816 30.695093-30.695093L706.711122 331.74666c0-16.960277-13.751189-30.712489-30.695093-30.712489C659.056776 301.034171 645.30354 314.786383 645.30354 331.74666L645.30354 331.74666zM93.401762 208.721719c-16.960277 0-30.711466-13.751189-30.711466-30.695093 0-16.9613 13.751189-30.713512 30.711466-30.713512l245.363244 0 67.895343-68.862367c5.994528-6.099928 13.928221-9.151427 21.825075-9.151427l0-0.088004 167.525458 0c9.323343 0 17.666358 4.143367 23.306822 10.701736l67.24145 67.400063 244.550739 0c16.960277 0 30.712489 13.751189 30.712489 30.713512 0 16.943904-13.751189 30.695093-30.712489 30.695093L673.934624 208.721719l0-0.089028c-7.861038 0-15.725146-3.01466-21.719674-9.025561l-68.828598-68.988234L441.214329 130.618896 374.891807 197.895139c-5.641487 6.630001-14.034645 10.82658-23.414269 10.82658L93.401762 208.721719z" /></svg>