<?xml version="1.0" standalone="no"?><!DOCTYPE svg PUBLIC "-//W3C//DTD SVG 1.1//EN" "http://www.w3.org/Graphics/SVG/1.1/DTD/svg11.dtd"><svg class="icon" width="200px" height="200.00px" viewBox="0 0 1024 1024" version="1.1" xmlns="http://www.w3.org/2000/svg"><path fill="#ffab00" d="M512 0C229.236364 0 0 229.236364 0 512s229.236364 512 512 512 512-229.236364 512-512S794.763636 0 512 0z m0 48.756364c255.837091 0 463.243636 207.406545 463.243636 463.243636 0 106.519273-35.979636 204.613818-96.418909 282.88a391.237818 391.237818 0 0 0-210.967272-225.954909A219.415273 219.415273 0 0 0 512 195.048727a219.415273 219.415273 0 0 0-155.857455 373.876364 391.237818 391.237818 0 0 0-210.967272 225.954909A461.172364 461.172364 0 0 1 48.756364 512C48.756364 256.162909 256.162909 48.756364 512 48.756364zM336.453818 414.487273a175.546182 175.546182 0 1 1 351.092364 0 175.546182 175.546182 0 0 1-351.092364 0zM512 975.243636a461.800727 461.800727 0 0 1-329.355636-137.541818A341.643636 341.643636 0 0 1 401.221818 603.927273 218.391273 218.391273 0 0 0 512 633.949091c40.401455 0 78.266182-10.938182 110.778182-30.021818a341.690182 341.690182 0 0 1 218.577454 233.821091A461.777455 461.777455 0 0 1 512 975.243636z"  /></svg>