<?xml version="1.0" standalone="no"?><!DOCTYPE svg PUBLIC "-//W3C//DTD SVG 1.1//EN" "http://www.w3.org/Graphics/SVG/1.1/DTD/svg11.dtd"><svg class="icon" width="200px" height="200.00px" viewBox="0 0 1024 1024" version="1.1" xmlns="http://www.w3.org/2000/svg"><path fill="#999999" d="M852.412 735.493l-180.797-70.459s-34.481-13.386-47.875-26.55c-8.609-8.463-7.987-28.427-0.368-53.928 7.618-25.502 100.303-129.139 100.303-223.281C723.675 215.883 628.09 98 510.191 98 392.3 98 296.724 215.883 296.724 361.283c0 90.169 82.592 197.664 92.783 217.202 10.199 19.538 7.716 49.316-0.336 58.336-12.092 13.549-56.271 27.132-56.271 27.132l-162.988 72.638C131.835 750.272 102 786.185 102 826.703v53.234c0 44.22 35.914 37.263 80.052 37.263h658.219c44.147 0 80.061 6.958 80.061-37.263v-53.234c0-40.526-29.835-77.537-67.92-91.21m0 0" /></svg>