<?xml version="1.0" standalone="no"?><!DOCTYPE svg PUBLIC "-//W3C//DTD SVG 1.1//EN" "http://www.w3.org/Graphics/SVG/1.1/DTD/svg11.dtd"><svg class="icon" width="200px" height="200.00px" viewBox="0 0 1024 1024" version="1.1" xmlns="http://www.w3.org/2000/svg"><path fill="#999999" d="M508.532527 359.673709c-98.680487 0-178.99058 79.849606-178.99058 178.004113 0 98.155531 80.310094 178.036859 178.99058 178.036859 98.679463 0 178.960905-79.881328 178.960905-178.036859C687.493431 439.522292 607.21199 359.673709 508.532527 359.673709M508.532527 660.766209c-68.293409 0-123.827213-55.226812-123.827213-123.088386 0-67.859527 55.533804-123.056664 123.827213-123.056664 68.26271 0 123.82619 55.196113 123.82619 123.056664C632.358717 605.539396 576.795237 660.766209 508.532527 660.766209M782.475689 323.955206c-22.960944 0-41.668005 18.691711-41.668005 41.697681 0 22.975271 18.707061 41.681308 41.668005 41.681308 22.989597 0 41.695634-18.706037 41.695634-41.681308C824.171324 342.646917 805.465287 323.955206 782.475689 323.955206M935.517271 756.826008l-0.708128 0c-0.215918 0.584308-0.584308 1.140986-0.89437 1.663896l0-4.807493L933.914774 304.816311c0-28.67611-23.452131-52.005444-52.266387-52.005444l-156.432819 0-1.940189 0-0.89437-1.725294-20.463054-40.679491c-2.341325-5.208629-23.267936-49.710169-51.7752-49.710169L372.28647 160.695912c-29.153994 0-50.633191 47.213301-51.52756 49.232285l-20.709671 41.157375-0.89437 1.725294-1.940189 0-156.463518 0c-28.813233 0-52.267411 23.329335-52.267411 52.005444l0 506.464937c0 28.692482 23.454178 52.021817 52.267411 52.021817l740.898247 0c28.814256 0 52.266387-23.329335 52.266387-52.021817l0-52.236712C934.43973 758.304685 935.054737 757.627257 935.517271 756.826008M875.670232 788.260951c0 9.400091-7.704472 17.072841-17.197684 17.072841L163.909605 805.333792c-9.460466 0-17.195637-7.67275-17.195637-17.072841L146.713968 323.955206c0-9.41544 7.735172-17.043165 17.195637-17.043165l160.054299 0 9.091052-7.79657 35.224246-54.717206c4.100388-7.073092 17.968234-25.703405 31.836079-25.703405l222.230384 0c16.70138 0 31.988552 25.919323 32.171724 26.164916l35.195593 54.764278 7.858992 5.993504 160.993694-0.568958c9.490142 0 17.195637 7.656377 17.195637 17.072841l0 424.25661c0 0.153496-0.091074 0.277316-0.091074 0.431835L875.670232 788.260951zM872.802928 755.99406 872.864326 755.99406 872.864326 755.624646Z" /></svg>