<?xml version="1.0" standalone="no"?><!DOCTYPE svg PUBLIC "-//W3C//DTD SVG 1.1//EN" "http://www.w3.org/Graphics/SVG/1.1/DTD/svg11.dtd"><svg t="1495503259907" class="icon" style="" viewBox="0 0 1024 1024" version="1.1" xmlns="http://www.w3.org/2000/svg" p-id="1778" xmlns:xlink="http://www.w3.org/1999/xlink" width="200" height="200"><defs><style type="text/css"></style></defs><path d="M408.082232 567.9288c-35.667338 15.664771-67.673286 36.686551-91.656513 67.676355-12.982686 16.775059-13.585413 36.011168-4.161786 54.934147 9.081843 18.237363 24.260543 28.134781 44.818765 29.819143 20.339234 1.666966 35.478026-7.705496 49.294706-21.357424 50.17475-49.574069 127.137609-57.611116 186.382944-19.067264 0.707105 0.460488 1.406023 0.933255 2.100848 1.411139l-130.328277-130.328277C444.040189 554.595121 425.792593 560.15065 408.082232 567.9288z" p-id="1779" fill="#999999"></path><path d="M83.60514 351.669408c-7.91425 7.471159-14.439874 18.190291-17.469883 28.586059-7.124258 24.454972 4.03285 48.118927 25.907043 60.666708 20.830421 11.951193 47.343261 8.213056 66.896596-10.091846 33.295314-31.168883 69.043493-57.243749 107.291608-78.115102l-80.126922-80.126922C149.888775 294.953685 115.726721 321.347822 83.60514 351.669408z" p-id="1780" fill="#999999"></path><path d="M511.815805 735.766366c-36.334533-0.301875-66.37164 29.659507-66.026786 65.856917 0.345877 36.245506 29.574572 64.947198 66.008366 64.821331 36.401048-0.128937 65.573461-29.163203 65.567321-65.262376C577.360614 765.235538 548.129872 736.066195 511.815805 735.766366z" p-id="1781" fill="#999999"></path><path d="M705.560414 537.929556c17.040095 12.81691 32.614815 27.576055 49.842175 40.119743 16.543791 12.04943 43.206034 10.149151 60.414975-2.454912 17.197684-12.602016 25.435299-35.982516 20.909216-55.651484-4.26207-18.531052-17.529235-29.861098-30.742165-41.60763C722.302727 403.938865 624.497167 365.467669 503.296781 364.087229c-9.458419 0.814552-25.076118 1.607614-41.522696 3.393283l111.912859 111.912859C620.681258 488.536612 665.929812 508.126786 705.560414 537.929556z" p-id="1782" fill="#999999"></path><path d="M940.463422 352.111476c-120.479979-112.774483-264.069281-168.364569-446.231087-170.395832-18.48705 1.949398-53.907771 4.025687-88.74316 9.660011-33.301454 5.387707-65.369823 13.282514-96.241948 23.575952l88.795349 88.795349c14.94641-3.254114 30.18344-5.903453 45.735647-7.895831 83.672678-10.722202 165.393911-2.360767 244.791216 26.223245 65.390289 23.544229 123.07406 59.562561 173.555801 106.948801 13.488199 12.660344 29.01994 20.578688 47.812959 18.305925 22.448268-2.715855 38.650275-14.763239 46.071292-36.362162C963.825502 388.230092 957.719434 368.263341 940.463422 352.111476z" p-id="1783" fill="#999999"></path><path d="M203.388247 491.053945c-32.101115 30.91408-20.883633 79.051427 20.963451 92.458785 20.641109 6.615675 38.637995 0.008186 55.130621-13.423731 20.825304-16.9613 41.197284-34.942837 63.934125-49.037856 19.664875-12.190647 40.346917-22.010293 61.648059-29.502941l-83.803661-83.803661C278.447756 428.553473 239.23057 456.537827 203.388247 491.053945z" p-id="1784" fill="#999999"></path><path d="M173.501566 169.596629c16.033162-16.033162 41.977044-16.083304 58.060347 0l481.893308 481.893308c16.033162 16.033162 16.000416 42.059931 0 58.060347-16.033162 16.033162-41.977044 16.083304-58.060347 0L173.501566 227.656977C157.468404 211.623815 157.50115 185.597045 173.501566 169.596629z" p-id="1785" fill="#999999"></path></svg>