<?xml version="1.0" standalone="no"?><!DOCTYPE svg PUBLIC "-//W3C//DTD SVG 1.1//EN" "http://www.w3.org/Graphics/SVG/1.1/DTD/svg11.dtd"><svg t="1498619105492" class="icon" style="" viewBox="0 0 1024 1024" version="1.1" xmlns="http://www.w3.org/2000/svg" p-id="3955" xmlns:xlink="http://www.w3.org/1999/xlink" width="200" height="200"><defs><style type="text/css"></style></defs><path d="M129.705 512c0 211.135 171.157 382.295 382.295 382.295s382.295-171.157 382.295-382.295c0-211.135-171.157-382.295-382.295-382.295-211.135 0-382.295 171.157-382.295 382.295z" fill="#CCCCCC" p-id="3956"></path><path d="M375.467 716.254c0 18.567 14.197 32.77 32.77 32.77s32.77-14.197 32.77-32.77-14.201-32.767-32.77-32.767-32.77 15.293-32.77 32.767zM603.75 716.254c0 18.567 14.201 32.77 32.77 32.77s32.77-14.197 32.77-32.77-14.197-32.767-32.77-32.767-32.77 15.293-32.77 32.767zM695.501 645.259h-261.053c-14.201 0-28.4-12.015-30.583-26.213l-46.967-275.25c-4.369-26.213-29.491-46.967-55.706-46.967h-10.924c-6.555 0-12.015 6.555-12.015 12.015 0 6.555 6.555 12.015 12.015 12.015h10.924c14.201 0 28.4 12.015 30.583 26.213l46.967 275.25c4.369 26.215 29.491 46.967 55.706 46.967h261.053c6.555 0 12.015-6.555 12.015-12.015 1.092-5.461-4.369-12.015-12.015-12.015z" fill="#FFFFFF" p-id="3957"></path><path d="M683.486 360.175h-278.528c-6.555 0-12.015 6.555-12.015 12.015 0 6.555 6.555 12.015 12.015 12.015h278.528c12.015 0 18.567 7.646 15.293 20.753l-33.86 137.627c-3.277 15.293-20.753 28.4-36.043 29.491l-193.331 14.197c-6.555 0-12.015 6.555-10.924 14.201 0 6.555 6.555 12.015 14.197 10.924l193.331-14.201c26.213-1.092 51.338-22.938 57.891-48.060l33.86-136.533c6.555-27.307-12.015-52.429-40.414-52.429z" fill="#FFFFFF" p-id="3958"></path></svg>