<?xml version="1.0" standalone="no"?><!DOCTYPE svg PUBLIC "-//W3C//DTD SVG 1.1//EN" "http://www.w3.org/Graphics/SVG/1.1/DTD/svg11.dtd"><svg t="1498619109017" class="icon" style="" viewBox="0 0 1024 1024" version="1.1" xmlns="http://www.w3.org/2000/svg" p-id="4068" xmlns:xlink="http://www.w3.org/1999/xlink" width="200" height="200"><defs><style type="text/css"></style></defs><path d="M129.707 512c0 211.135 171.158 382.293 382.293 382.293s382.293-171.158 382.293-382.293c0-211.135-171.158-382.293-382.293-382.293-211.135 0-382.293 171.158-382.293 382.293z" fill="#FFAB00" p-id="4069"></path><path d="M375.467 716.254c0 18.569 14.199 32.768 32.768 32.768s32.768-14.199 32.768-32.768-14.199-32.768-32.768-32.768-32.768 15.292-32.768 32.768zM603.75 716.254c0 18.569 14.199 32.768 32.768 32.768s32.768-14.199 32.768-32.768-14.199-32.768-32.768-32.768-32.768 15.292-32.768 32.768zM695.501 645.257h-261.052c-14.199 0-28.399-12.015-30.583-26.214l-46.967-275.251c-4.369-26.214-29.491-46.967-55.706-46.967h-10.923c-6.554 0-12.015 6.554-12.015 12.015 0 6.554 6.554 12.015 12.015 12.015h10.923c14.199 0 28.399 12.015 30.583 26.214l46.967 275.251c4.369 26.214 29.491 46.967 55.706 46.967h261.052c6.554 0 12.015-6.554 12.015-12.015 1.092-5.461-4.369-12.015-12.015-12.015z" fill="#FFFFFF" p-id="4070"></path><path d="M683.486 360.175h-278.528c-6.554 0-12.015 6.554-12.015 12.015 0 6.554 6.554 12.015 12.015 12.015h278.528c12.015 0 18.569 7.646 15.292 20.753l-33.86 137.626c-3.277 15.292-20.753 28.399-36.045 29.491l-193.331 14.199c-6.554 0-12.015 6.554-10.923 14.199 0 6.554 6.554 12.015 14.199 10.923l193.331-14.199c26.214-1.092 51.337-22.938 57.89-48.060l33.86-136.533c6.554-27.307-12.015-52.429-40.414-52.429z" fill="#FFFFFF" p-id="4071"></path></svg>