<?xml version="1.0" standalone="no"?><!DOCTYPE svg PUBLIC "-//W3C//DTD SVG 1.1//EN" "http://www.w3.org/Graphics/SVG/1.1/DTD/svg11.dtd"><svg class="icon" width="200px" height="200.00px" viewBox="0 0 1024 1024" version="1.1" xmlns="http://www.w3.org/2000/svg"><path fill="#e5e5e5" d="M929.700799 396.559804 513.30318 197.644429 94.296131 396.559804l419.007049 198.923562 327.341327-156.375513 0 231.733828 33.923624 0L874.568131 422.896636 929.700799 396.559804 929.700799 396.559804zM513.270435 544.57593 201.487456 396.559804l311.782979-148.012032 309.841767 148.012032L513.270435 544.57593 513.270435 544.57593zM735.479329 716.786083c-50.188053 29.78742-104.031355 48.527227-160.215982 55.727209-48.193629 6.179746-98.230232 3.957125-148.7263-6.622838-59.827597-12.533454-110.015649-35.170011-135.454018-49.312102L291.08303 564.476165l-33.924647 0 0 183.830819 10.016121 6.39771c2.51324 1.605567 62.542428 39.48427 153.287175 58.706053 33.93181 7.185656 67.694775 10.786671 100.919481 10.786671 18.939351 0 37.700647-1.171686 56.214303-3.515057 63.933101-8.095375 125.066437-30.27656 181.707458-65.927525l10.101055-6.357801L769.403976 564.476165l-33.923624 0L735.480352 716.786083 735.479329 716.786083zM735.479329 716.786083" /></svg>