<?xml version="1.0" standalone="no"?><!DOCTYPE svg PUBLIC "-//W3C//DTD SVG 1.1//EN" "http://www.w3.org/Graphics/SVG/1.1/DTD/svg11.dtd"><svg class="icon" width="200px" height="200.00px" viewBox="0 0 1024 1024" version="1.1" xmlns="http://www.w3.org/2000/svg"><path fill="#e5e5e5" d="M875.2 312.3 704.6 312.3c-14 0-25.4-11.4-25.4-25.4 0-42.4-34.5-77-77-77L235.7 209.9l0-42.7c-0.1-14.1-11.7-25.5-25.8-25.5-14.1 0-25.6 11.4-25.8 25.7l0 690.7-25.4 0c-14.2 0-25.8 11.6-25.8 25.8s11.6 25.8 25.8 25.8l102.3 0c14.3 0 25.8-11.6 25.8-25.8s-11.6-25.8-25.8-25.8l-25.3 0 0-136 366.5 0c14 0 25.3 11.4 25.3 25.5 0.6 42.4 35.1 76.9 77 76.9l170.6 0c14.3 0 25.8-11.6 25.8-25.8l0-460.5C901 323.9 889.4 312.3 875.2 312.3zM627.6 674.8c-8.2-3-16.7-4.5-25.3-4.5L235.7 670.3 235.7 261.4l366.5 0c14 0 25.3 11.3 25.3 25.3L627.6 674.8zM849.3 772.7 704.6 772.7c-14 0-25.4-11.4-25.4-25.4l0-388c8.2 3 16.7 4.5 25.4 4.5l144.7 0L849.3 772.7z" /></svg>