<?xml version="1.0" standalone="no"?><!DOCTYPE svg PUBLIC "-//W3C//DTD SVG 1.1//EN" "http://www.w3.org/Graphics/SVG/1.1/DTD/svg11.dtd"><svg class="icon" width="200px" height="200.00px" viewBox="0 0 1024 1024" version="1.1" xmlns="http://www.w3.org/2000/svg"><path fill="#e5e5e5" d="M511.841388 518.097882c-124.892475 0-226.498594-101.606119-226.498594-226.496548 0-124.892475 101.606119-226.498594 226.498594-226.498594 124.891452 0 226.497571 101.606119 226.49757 226.498594 0 124.890428-101.606119 226.496547-226.49757 226.496548z m0-412.788418c-102.721523 0-186.29187 83.570347-186.291871 186.29187s83.570347 186.289823 186.291871 186.289824 186.290847-83.568301 186.290846-186.289824S614.56291 105.309464 511.841388 105.309464zM832.42173 960.564225H191.262068c-58.234309 0-105.61134-47.376007-105.611339-105.611339v-16.757662c0-166.048827 135.090744-301.139571 301.140594-301.139572h250.099105c166.04985 0 301.141618 135.090744 301.141618 301.139572v16.757662c0.001023 58.235332-47.37703 105.61134-105.610316 105.611339zM386.791323 577.261353c-143.878898 0-260.933871 117.054973-260.93387 260.932847v16.757663c0 36.06438 29.340235 65.404616 65.404615 65.404615h641.159662c36.06438 0 65.404616-29.340235 65.404616-65.404615v-16.757663c0-143.878898-117.054973-260.932848-260.934894-260.932847H386.791323z"  /><path fill="#e5e5e5" d="M458.557834 636.479059l42.381249 42.38125c6.021134 6.021134 15.784498 6.021134 21.805632 0L565.124941 636.479059c9.713222-9.713222 2.833535-26.321482-10.903327-26.321482h-84.762499c-13.735839 0-20.615527 16.60826-10.901281 26.321482z"  /><path fill="#e5e5e5" d="M561.487088 846.180082l-23.384593-193.299471c-3.751441-31.011294-48.731888-31.011294-52.483329 0l-23.384593 193.299471a24.819269 24.819269 0 0 0 10.880815 23.63735l24.986067 16.643052a24.821315 24.821315 0 0 0 27.518751 0l24.986067-16.643052a24.821315 24.821315 0 0 0 10.880815-23.63735z"  /></svg>