<?xml version="1.0" standalone="no"?><!DOCTYPE svg PUBLIC "-//W3C//DTD SVG 1.1//EN" "http://www.w3.org/Graphics/SVG/1.1/DTD/svg11.dtd"><svg class="icon" width="200px" height="199.61px" viewBox="0 0 1026 1024" version="1.1" xmlns="http://www.w3.org/2000/svg"><path fill="#e5e5e5" d="M1025.676929 532.514909 857.837899 532.514909l0 227.053899 0 56.767354 93.242182 0 0 75.681616 55.945051 0 0 75.688081L37.298424 967.705859l0-75.688081 55.943758 0 0-75.681616L205.136162 816.336162 205.136162 532.514909 0 532.514909l279.731717-170.303354-205.136162 0L503.510626 97.322667 503.510626 59.474747l37.297131 0 0 37.847919 428.924121 264.888889L781.54602 362.211556 1025.676929 532.514909 1025.676929 532.514909zM261.086384 532.514909l0 227.053899 93.242182 0L354.328566 532.514909 261.086384 532.514909 261.086384 532.514909zM503.510626 532.514909 410.272323 532.514909l0 227.053899 93.238303 0L503.510626 532.514909 503.510626 532.514909zM652.701737 532.514909l-93.247354 0 0 227.053899 93.247354 0L652.701737 532.514909 652.701737 532.514909zM708.646788 759.568808l93.242182 0L801.88897 532.514909l-93.242182 0L708.646788 759.568808 708.646788 759.568808zM708.646788 759.568808" /></svg>