<?xml version="1.0" standalone="no"?><!DOCTYPE svg PUBLIC "-//W3C//DTD SVG 1.1//EN" "http://www.w3.org/Graphics/SVG/1.1/DTD/svg11.dtd"><svg class="icon" width="200px" height="200.00px" viewBox="0 0 1024 1024" version="1.1" xmlns="http://www.w3.org/2000/svg"><path fill="#ffab00" d="M889.74632 489.447355 534.551622 489.447355 534.551622 134.25368c0-12.455683-10.096962-22.551622-22.551622-22.551622-12.455683 0-22.551622 10.095939-22.551622 22.551622l0 355.193675L134.25368 489.447355c-12.455683 0-22.551622 10.096962-22.551622 22.551622 0 12.45466 10.095939 22.551622 22.551622 22.551622l355.193675 0 0 355.193675c0 12.455683 10.096962 22.551622 22.551622 22.551622 12.45466 0 22.551622-10.095939 22.551622-22.551622L534.550599 534.551622l355.193675 0c12.455683 0 22.551622-10.096962 22.551622-22.551622C912.297942 499.544317 902.20098 489.447355 889.74632 489.447355z" /></svg>