<?xml version="1.0" standalone="no"?><!DOCTYPE svg PUBLIC "-//W3C//DTD SVG 1.1//EN" "http://www.w3.org/Graphics/SVG/1.1/DTD/svg11.dtd"><svg class="icon" width="200px" height="200.00px" viewBox="0 0 1024 1024" version="1.1" xmlns="http://www.w3.org/2000/svg"><path fill="#e5e5e5" d="M658.3 449l-56 56 35.6 35.6c3.9 3.9 3.5 10.7-0.9 15.1l-16 16c-4.4 4.4-11.2 4.8-15.1 0.9L570.3 537l-56 56c-4.4 4.4-11.2 4.8-15.1 0.9L485 579.7c-3.9-3.9-3.5-10.7 0.9-15.1l56-56-28.5-28.6-56 56c-4.4 4.4-11.2 4.8-15.1 0.9l-14.2-14.2c-3.9-3.9-3.5-10.7 0.9-15.1l44.1-44.1-97.2 1.2c-5.5 0.1-10-4.4-9.9-9.9l0.3-20.1c0.1-5.5 4.6-10.1 10.2-10.2l111.3-1.4 1.4-112.6c0.1-5.6 4.7-10.2 10.3-10.3l20.2-0.3c5.6-0.1 10.1 4.4 10 10l-1.3 98.2 44.6-44.6c4.4-4.4 11.2-4.8 15.1-0.9l14.2 14.2c3.9 3.9 3.5 10.7-0.9 15.1l-56 56 28.5 28.5 56-56c4.4-4.4 11.2-4.8 15.1-0.9l14.2 14.2c4 4.1 3.6 10.9-0.9 15.3zM575.5 116.7c1.7 0 3.1 0.6 4.3 1.8l66 66c-12.9 43-3.1 89.4 28.4 120.9 21.9 21.9 51.6 34 83.6 34 12.7 0 25.3-1.9 37.4-5.5l71.6 71.6c2.4 2.4 2.4 6.2 0 8.6L471.1 809.6c-1.2 1.2-2.6 1.8-4.3 1.8-1.7 0-3.1-0.6-4.3-1.8l-69.1-69.1c12.8-42.9 3-89.3-28.5-120.7-21.9-21.9-51.6-34-83.6-34-12.6 0-25.1 1.9-37.2 5.5l-68.6-68.6c-1.2-1.2-1.8-2.6-1.8-4.3s0.6-3.1 1.8-4.3l395.6-395.6c1.3-1.2 2.8-1.8 4.4-1.8m0-50c-14.4 0-28.7 5.5-39.7 16.4L140.2 478.8c-21.9 21.9-21.9 57.4 0 79.3l93.3 93.3c14.7-10.3 31.5-15.6 47.8-15.6 18 0 35.2 6.4 48.2 19.3 24.7 24.7 25.5 65.2 3.8 96l93.8 93.8c10.9 10.9 25.3 16.4 39.7 16.4 14.4 0 28.7-5.5 39.7-16.4l395.6-395.6c21.9-21.9 21.9-57.4 0-79.3l-96.4-96.4c-14.7 10.4-31.6 15.7-47.9 15.7-18 0-35.2-6.4-48.2-19.3-24.8-24.8-25.5-65.3-3.7-96.1l-90.7-90.7c-11-11-25.3-16.5-39.7-16.5zM469.1 961c-11.1 0-22.2-4.3-30.5-12.7L232.1 750.6c-4.8-4.6-7.6-10.9-7.7-17.6-0.1-6.7 2.4-13.1 7.1-17.9l91.6-94.3 35.9 34.8-74 76.2 184 176.3 412.6-406.3-42.1-42.7 35.6-35.1 59.6 60.5c9.7 9.8 9.6 25.7-0.3 35.4l-436 429.5-0.8 0.8c-8.1 7.2-18.3 10.8-28.5 10.8z" /></svg>