<?xml version="1.0" standalone="no"?><!DOCTYPE svg PUBLIC "-//W3C//DTD SVG 1.1//EN" "http://www.w3.org/Graphics/SVG/1.1/DTD/svg11.dtd"><svg class="icon" width="200px" height="200.00px" viewBox="0 0 1024 1024" version="1.1" xmlns="http://www.w3.org/2000/svg"><path fill="#e5e5e5" d="M630.831549 474.746056c-130.576494 0-236.809953-106.233459-236.809954-236.809953S500.255054 1.137525 630.831549 1.137525s236.809953 106.222084 236.809953 236.798578-106.233459 236.809953-236.809953 236.809953z m0-428.03928c-105.448567 0-191.229327 85.78076-191.229327 191.229327s85.792135 191.229327 191.229327 191.229327 191.229327-85.78076 191.229326-191.229327S736.280116 46.706776 630.831549 46.706776zM500.471184 1022.862475H154.333704a79.911131 79.911131 0 0 1-79.62675-87.828305c5.903755-58.821417 22.7505-174.132326 69.081893-285.666652 57.683892-138.778049 142.634259-230.803821 252.530549-273.392757 16.095979-6.245012 46.570273-9.213952 125.013997 36.889936a128.051189 128.051189 0 0 1 59.833814 82.811819l265.122951 106.68847c0.602888 0.23888 1.194401 0.511886 1.774539 0.807642a68.922639 68.922639 0 0 1 28.893135 95.426972 69.059142 69.059142 0 0 1-81.287537 31.645945L584.193024 669.774717v269.365918a83.812842 83.812842 0 0 1-83.710465 83.72184z m-84.176849-604.742413a11.454877 11.454877 0 0 0-3.412575 0.364008c-97.82715 37.925083-174.143701 121.499045-226.879361 248.389958-44.181471 106.096956-60.254699 216.380004-65.896822 272.710242a34.34188 34.34188 0 0 0 34.228127 37.697578H500.471184a38.175339 38.175339 0 0 0 38.129838-38.141213V639.562053a22.7505 22.7505 0 0 1 29.052388-21.908732l240.98467 68.888514 0.944146 0.295757a23.398889 23.398889 0 0 0 27.710109-10.613109 23.353388 23.353388 0 0 0-9.1002-31.941701l-275.963564-111.033815a22.7505 22.7505 0 0 1-14.162186-18.757787 82.368185 82.368185 0 0 0-39.813375-62.256743c-51.734637-30.406043-74.200755-34.057498-81.992801-34.057499zM926.861053 1022.862475a22.7505 22.7505 0 0 1-22.7505-22.7505V775.587292a46.979782 46.979782 0 1 0-93.959564 0 22.790313 22.790313 0 1 1-45.580627 0 92.560409 92.560409 0 0 1 185.120818 0v224.479182a22.7505 22.7505 0 0 1-22.7505 22.7505z" /></svg>