<?xml version="1.0" standalone="no"?><!DOCTYPE svg PUBLIC "-//W3C//DTD SVG 1.1//EN" "http://www.w3.org/Graphics/SVG/1.1/DTD/svg11.dtd"><svg class="icon" width="200px" height="200.00px" viewBox="0 0 1024 1024" version="1.1" xmlns="http://www.w3.org/2000/svg"><path fill="#e5e5e5" d="M512.183172 929.273569c-76.144214 0-149.309584-22.913872-211.588-66.268287-56.542784-39.358403-100.579743-92.90597-128.083143-155.526169-0.409322 0.00614-0.816598 0.008186-1.222851 0.008187-58.882062 0-106.786095-47.904033-106.786095-106.786095 0-49.66105 34.81083-92.393293 81.829703-103.754039 24.152073-144.480602 133.558855-263.517719 276.545431-298.873972 11.014868-2.723018 22.1423 3.994987 24.864294 15.006786 2.721994 11.009751-3.996011 22.1423-15.005763 24.865317C301.133432 270.485411 201.521736 382.756427 184.864358 517.314029a20.537755 20.537755 0 0 1-18.776645 17.950837c-33.93181 2.657526-60.513212 31.401174-60.513213 65.435315 0 36.234249 29.479405 65.714677 65.714678 65.714678 3.351328 0 6.943133-0.330528 10.981099-1.013073a20.530592 20.530592 0 0 1 22.547529 12.779047c23.896246 61.192687 65.129346 113.447818 119.242801 151.116743 55.358819 38.534642 120.410394 58.903551 188.122565 58.903552s132.764769-20.36891 188.122565-58.903552c54.113455-37.667901 95.346555-89.924055 119.242801-151.116743 3.539616-9.0624 12.94994-14.403035 22.547529-12.779047 4.037966 0.681522 7.629771 1.013073 10.981099 1.013073 36.235272 0 65.714677-29.480428 65.714677-65.714678 0-34.034141-26.581402-62.778812-60.513212-65.435315a20.536732 20.536732 0 0 1-18.776645-17.950837c-15.421224-124.570133-102.254895-231.165894-221.218334-271.564999-10.740622-3.64604-16.488533-15.309684-12.84147-26.048259 3.647063-10.737552 15.306614-16.492626 26.047236-12.840446 128.874159 43.762713 224.219691 156.627247 246.544139 290.087864 47.018873 11.360745 81.829703 54.090942 81.829704 103.754039 0 58.882062-47.904033 106.786095-106.786095 106.786095-0.407276 0-0.814552-0.002047-1.222851-0.008187-27.502377 62.6202-71.54036 116.167766-128.083144 155.52617-62.279439 43.352367-135.444808 66.267263-211.587999 66.267263z"  /><path fill="#e5e5e5" d="M515.940752 281.220916c-0.615007 0-1.232061-0.027629-1.856277-0.083911-11.295254-1.011027-19.633153-10.988262-18.621103-22.284539 0.496304-5.54325 13.549597-136.116097 134.942365-168.96525 10.956539-2.971681 22.225187 3.511987 25.187659 14.45727 2.963495 10.94733-3.510964 22.224164-14.458294 25.186636-94.073562 25.459858-104.668875 131.912355-104.765065 132.983757-0.954745 10.673084-9.915837 18.706037-20.429285 18.706037z"  /><path fill="#e5e5e5" d="M363.982852 540.461215m-44.494377 0a44.494377 44.494377 0 1 0 88.988753 0 44.494377 44.494377 0 1 0-88.988753 0Z"  /><path fill="#e5e5e5" d="M660.382469 540.461215m-44.494377 0a44.494377 44.494377 0 1 0 88.988753 0 44.494377 44.494377 0 1 0-88.988753 0Z"  /></svg>