<?xml version="1.0" standalone="no"?><!DOCTYPE svg PUBLIC "-//W3C//DTD SVG 1.1//EN" "http://www.w3.org/Graphics/SVG/1.1/DTD/svg11.dtd"><svg t="1498476091639" class="icon" style="" viewBox="0 0 1024 1024" version="1.1" xmlns="http://www.w3.org/2000/svg" p-id="2373" xmlns:xlink="http://www.w3.org/1999/xlink" width="200" height="200"><defs><style type="text/css"></style></defs><path d="M890.000999 796.217048 143.617867 796.217048c-37.452183 0-67.843709-30.391526-67.843709-67.843709l0-441.035275c0-37.452183 30.391526-67.843709 67.843709-67.843709l746.383132 0c37.452183 0 67.843709 30.391526 67.843709 67.843709l0 441.035275C957.844709 765.825522 927.453183 796.217048 890.000999 796.217048zM923.87169 321.311082c0-37.452183-30.391526-67.843709-67.843709-67.843709L177.590886 253.467373c-37.452183 0-67.843709 30.391526-67.843709 67.843709l0 373.191566c0 37.452183 30.391526 67.843709 67.843709 67.843709l678.539422 0c37.452183 0 67.843709-30.391526 67.843709-67.843709L923.974018 321.311082zM822.15729 728.373339 211.461577 728.373339c-37.452183 0-67.843709-30.391526-67.843709-67.843709L143.617867 355.181773c0-37.452183 30.391526-67.843709 67.843709-67.843709l610.695713 0c37.452183 0 67.843709 30.391526 67.843709 67.843709l0 305.347857C890.000999 697.981813 859.609473 728.373339 822.15729 728.373339zM245.434596 355.181773c-18.726092 0-33.973019 15.144599-33.973019 33.973019 0 18.726092 15.144599 33.973019 33.973019 33.973019s33.973019-15.144599 33.973019-33.973019C279.305286 370.4287 264.160688 355.181773 245.434596 355.181773zM245.434596 592.68592c-18.726092 0-33.973019 15.144599-33.973019 33.973019 0 18.726092 15.144599 33.973019 33.973019 33.973019s33.973019-15.144599 33.973019-33.973019C279.305286 607.830519 264.160688 592.68592 245.434596 592.68592zM788.184271 660.529629c18.726092 0 33.973019-15.144599 33.973019-33.973019 0-18.726092-15.144599-33.973019-33.973019-33.973019s-33.973019 15.144599-33.973019 33.973019C754.31358 645.38503 769.458179 660.529629 788.184271 660.529629zM788.184271 355.181773c-18.726092 0-33.973019 15.144599-33.973019 33.973019 0 18.726092 15.144599 33.973019 33.973019 33.973019s33.973019-15.144599 33.973019-33.973019C822.15729 370.4287 806.910363 355.181773 788.184271 355.181773z" p-id="2374" fill="#ffab00"></path></svg>