<?xml version="1.0" standalone="no"?><!DOCTYPE svg PUBLIC "-//W3C//DTD SVG 1.1//EN" "http://www.w3.org/Graphics/SVG/1.1/DTD/svg11.dtd"><svg t="1510295997595" class="icon" style="" viewBox="0 0 1024 1024" version="1.1" xmlns="http://www.w3.org/2000/svg" p-id="2282" xmlns:xlink="http://www.w3.org/1999/xlink" width="200" height="200"><defs><style type="text/css"></style></defs><path d="M615.610776 168.982646H167.078273c-56.029084 0-101.4516 45.420469-101.4516 101.4516v396.438031c0 56.030108 45.421492 101.4516 101.4516 101.451599h690.399109c56.029084 0 101.4516-45.420469 101.4516-101.451599V270.434246c0.001023-45.088918-15.404852-94.288456-69.124334-99.404988M927.713027 666.872277c0 38.728046-31.507598 70.235644-70.235645 70.235644H167.079296c-38.728046 0-70.235644-31.507598-70.235644-70.235644V270.434246c0-38.728046 31.507598-70.235644 70.235644-70.235645h690.39911c38.728046 0 70.235644 31.507598 70.235644 70.235645l-0.001023 396.438031z" p-id="2283" fill="#666666"></path><path d="M621.437481 484.260216h139.883911c8.620331 0 15.607466-6.988158 15.607466-15.607467 0-8.620331-6.989181-15.607466-15.607466-15.607466H621.437481c-8.620331 0-15.607466 6.988158-15.607466 15.607466-0.001023 8.620331 6.987135 15.607466 15.607466 15.607467zM621.437481 380.651486h139.883911c8.620331 0 15.607466-6.988158 15.607466-15.607466 0-8.620331-6.989181-15.607466-15.607466-15.607466H621.437481c-8.620331 0-15.607466 6.988158-15.607466 15.607466-0.001023 8.619308 6.987135 15.607466 15.607466 15.607466zM828.633451 556.655036H621.437481c-8.620331 0-15.607466 6.988158-15.607466 15.607466 0 8.620331 6.989181 15.607466 15.607466 15.607466h207.19597c8.620331 0 15.607466-6.988158 15.607466-15.607466 0-8.620331-6.988158-15.607466-15.607466-15.607466zM290.430672 491.515457c-52.531424 22.900569-92.592838 70.318532-103.930047 129.354089-1.370207 7.134491 3.297093 14.028505 10.43056 15.398712 7.150864 1.387603 14.028505-3.297093 15.398711-10.43056 11.047614-57.524135 54.023404-102.279455 108.404966-117.446899a114.069989 114.069989 0 0 1-22.689769-11.771091l-7.614421-5.104251zM432.615998 491.532853c-4.88731-2.131547-9.846252-4.13211-14.94027-5.827729a184.331215 184.331215 0 0 0-13.515828-3.934612c-1.803066-0.450255-3.656273-0.744967-5.478782-1.13894-2.800789-0.608867-5.579065-1.280156-8.420787-1.755994-1.693572-0.282433-3.429099-0.411369-5.135973-0.646729-3.022847-0.415462-6.02932-0.886183-9.092076-1.143033-2.146896-0.180102-4.339842-0.170892-6.506181-0.274246-2.665713-0.12382-5.311982-0.338714-8.005324-0.338715-13.162788-0.004093-25.52535-3.446495-36.283368-9.442046-22.955828-12.795421-38.537711-37.295418-38.537711-65.389266 0-41.260729 33.570583-74.831312 74.831312-74.831312s74.831312 33.570583 74.831312 74.831312c0 28.107151-15.592117 52.617381-38.567387 65.406662 8.069793 1.579985 16.102746 3.544733 24.032346 6.182816l8.046257 2.675946c20.086477-18.489096 32.797987-44.875047 32.797987-74.266447 0-55.769165-45.37135-101.140515-101.140515-101.140515s-101.140515 45.37135-101.140515 101.140515c0 29.383214 12.70537 55.759955 32.780591 74.250074 3.836375 3.536546 7.846712 6.885827 12.19474 9.80225 5.339612 3.579525 11.062963 6.611581 17.050328 9.137101a97.55178 97.55178 0 0 0 8.230452 3.083222c0.350994 0.115634 0.687662 0.25685 1.038655 0.36839 8.587586 2.659573 17.678638 4.136204 27.070543 4.394077 0.921999 0.025583 1.834788 0.107447 2.76395 0.107447 14.075577 0.004093 27.751041 1.983167 40.785915 5.622044 54.536081 15.21861 97.527221 60.166311 108.418268 117.946273 1.190105 6.319939 6.705726 10.722202 12.905938 10.722202 0.813528 0 1.627057-0.068562 2.448772-0.231267 7.142677-1.344624 11.843746-8.221242 10.490935-15.355733-11.17348-59.326177-51.260477-106.97643-103.953584-129.953747z" p-id="2284" fill="#666666"></path></svg>