<?xml version="1.0" standalone="no"?><!DOCTYPE svg PUBLIC "-//W3C//DTD SVG 1.1//EN" "http://www.w3.org/Graphics/SVG/1.1/DTD/svg11.dtd"><svg t="1502434432605" class="icon" style="" viewBox="0 0 1024 1024" version="1.1" xmlns="http://www.w3.org/2000/svg" p-id="23316" xmlns:xlink="http://www.w3.org/1999/xlink" width="200" height="200"><defs><style type="text/css"></style></defs><path d="M510.645654 66.629513c-227.655953 0-412.206156 184.393637-412.206156 411.858232 0 227.460502 184.550203 411.853116 412.206156 411.853116 227.656977 0 412.206156-184.392614 412.206156-411.853116C922.85181 251.02315 738.301608 66.629513 510.645654 66.629513zM510.603699 858.870102c-210.287377 0-380.75791-170.325223-380.75791-380.434545S300.316322 97.998965 510.603699 97.998965c210.287377 0 380.759957 170.32727 380.759957 380.435569S720.891076 858.870102 510.603699 858.870102zM668.987962 319.91417c-8.746198-8.739035-22.927175-8.739035-31.67542 0L510.612908 446.506357 383.914298 319.91417c-8.746198-8.739035-22.928199-8.739035-31.67542 0-8.746198 8.741082-8.746198 22.910802 0 31.648814l126.699634 126.592186-126.699634 126.59321c-8.746198 8.739035-8.746198 22.908756 0 31.646767 8.747221 8.739035 22.929222 8.739035 31.67542 0L510.612908 509.802962l126.69861 126.591163c8.748245 8.739035 22.929222 8.739035 31.67542 0 8.747221-8.738012 8.747221-22.907733 0-31.646767l-126.699634-126.59321 126.699634-126.592186C677.735184 342.823949 677.735184 328.654228 668.987962 319.91417z" p-id="23317" fill="#999999"></path></svg>