<?xml version="1.0" standalone="no"?><!DOCTYPE svg PUBLIC "-//W3C//DTD SVG 1.1//EN" "http://www.w3.org/Graphics/SVG/1.1/DTD/svg11.dtd"><svg t="1507804597417" class="icon" style="" viewBox="0 0 1024 1024" version="1.1" xmlns="http://www.w3.org/2000/svg" p-id="2099" xmlns:xlink="http://www.w3.org/1999/xlink" width="200" height="200"><defs><style type="text/css"></style></defs><path d="M360.576 805.9904 360.576 336.8192c0-11.8016-9.5488-21.3248-21.3248-21.3248-11.776 0-21.3248 9.5488-21.3248 21.3248l0 469.1712c0 11.776 9.5488 21.3248 21.3248 21.3248C351.0016 827.3408 360.576 817.7664 360.576 805.9904z" p-id="2100" fill="#ffffff"></path><path d="M531.1744 805.9904 531.1744 336.8192c0-11.8016-9.5744-21.3248-21.3248-21.3248-11.776 0-21.3248 9.5488-21.3248 21.3248l0 469.1712c0 11.776 9.5744 21.3248 21.3248 21.3248C521.6256 827.3408 531.1744 817.7664 531.1744 805.9904z" p-id="2101" fill="#ffffff"></path><path d="M147.2768 294.1696c-9.9072 0-18.2784 6.784-20.6336 15.9744C126.4128 310.016 126.1824 309.888 125.952 309.76l0 581.5552c0 47.104 38.1696 85.2992 85.3248 85.2992L808.448 976.6144c47.104 0 85.3248-38.1952 85.3248-85.2992L893.7728 315.4944c0-11.8016-9.5488-21.3248-21.3248-21.3248-11.776 0-21.3248 9.5488-21.3248 21.3248l0 575.8208c0 23.5264-19.0976 42.6496-42.6496 42.6496L211.2768 933.9648c-23.552 0-42.6496-19.1232-42.6496-42.6496L168.6272 315.4944C168.6016 303.7184 159.0528 294.1696 147.2768 294.1696z" p-id="2102" fill="#ffffff"></path><path d="M83.3024 187.52l255.9232 0c0.3584 0 0.7168 0 1.0752-0.0256 5.9904 0.1536 12.0064-2.048 16.5632-6.6048l78.6944-78.6944 148.7104 0 78.6944 78.6944c4.5568 4.5568 10.5984 6.7584 16.5632 6.6048 0.3584 0.0256 0.7168 0.0256 1.0752 0.0256l255.9232 0c11.776 0 21.3248-9.5488 21.3248-21.3248 0-11.776-9.5488-21.3248-21.3248-21.3248l-245.632 0-78.6944-78.6688c-4.5056-4.5056-10.4448-6.7072-16.3584-6.6048-0.2304 0-0.4608-0.0256-0.7168-0.0256l-170.624 0c-0.2048 0-0.4096 0-0.6144 0.0256-5.888-0.0768-11.8016 2.0992-16.3072 6.6048l-78.6944 78.6688L83.3024 144.8704c-11.776 0-21.3248 9.5488-21.3248 21.3248C61.9776 177.9712 71.5264 187.52 83.3024 187.52z" p-id="2103" fill="#ffffff"></path><path d="M701.7984 805.9904 701.7984 336.8192c0-11.8016-9.5488-21.3248-21.3248-21.3248-11.776 0-21.3248 9.5488-21.3248 21.3248l0 469.1712c0 11.776 9.5488 21.3248 21.3248 21.3248C692.2496 827.3408 701.7984 817.7664 701.7984 805.9904z" p-id="2104" fill="#ffffff"></path></svg>