<?xml version="1.0" standalone="no"?><!DOCTYPE svg PUBLIC "-//W3C//DTD SVG 1.1//EN" "http://www.w3.org/Graphics/SVG/1.1/DTD/svg11.dtd"><svg t="1502089177346" class="icon" style="" viewBox="0 0 1024 1024" version="1.1" xmlns="http://www.w3.org/2000/svg" p-id="2209" xmlns:xlink="http://www.w3.org/1999/xlink" width="200" height="200"><defs><style type="text/css"></style></defs><path d="M558.592 426.496H640c11.776 0 21.504 9.728 21.504 21.504 0 11.776-9.728 21.504-21.504 21.504h-106.496v85.504H640c11.776 0 21.504 9.216 21.504 21.504 0 11.776-9.728 21.504-21.504 21.504h-106.496v128c0 11.776-9.216 21.504-21.504 21.504-11.776 0-21.504-9.728-21.504-21.504v-128H384c-11.776 0-21.504-9.216-21.504-20.992s9.728-21.504 21.504-21.504h106.496V469.504H384c-11.776 0-21.504-9.216-21.504-20.992s9.728-21.504 21.504-21.504h81.408L367.616 312.32c-7.168-9.216-5.632-22.528 3.584-30.208 8.704-7.168 21.504-6.144 28.672 2.048L512 415.232l111.616-130.56c7.68-8.704 20.992-10.24 30.208-2.56 8.704 7.68 10.24 20.992 2.56 30.208l-97.792 114.176zM675.328 117.76c10.752 4.608 15.872 17.408 10.752 28.16-4.608 10.24-16.384 15.36-27.136 11.264-46.592-19.456-96.768-29.184-146.944-29.184-211.968 0-384 172.032-384 384s172.032 384 384 384 384-172.032 384-384c0-51.2-9.728-100.864-29.184-146.944-4.096-10.752 1.024-23.552 12.288-27.648 10.752-4.096 22.528 1.024 27.136 11.264 21.504 51.712 32.256 107.52 32.256 163.328 0 235.52-190.976 426.496-426.496 426.496S85.504 747.52 85.504 512 276.48 85.504 512 85.504c56.832 0 112.128 10.752 163.328 32.256z" fill="#ffffff" p-id="2210"></path></svg>