<?xml version="1.0" standalone="no"?><!DOCTYPE svg PUBLIC "-//W3C//DTD SVG 1.1//EN" "http://www.w3.org/Graphics/SVG/1.1/DTD/svg11.dtd"><svg t="1500534277033" class="icon" style="" viewBox="0 0 1024 1024" version="1.1" xmlns="http://www.w3.org/2000/svg" p-id="681" xmlns:xlink="http://www.w3.org/1999/xlink" width="200" height="200"><defs><style type="text/css"></style></defs><path d="M512.702 7.084c-279.119 0-505.39 226.271-505.39 505.39s226.271 505.39 505.39 505.39 505.39-226.271 505.39-505.39S791.821 7.084 512.702 7.084zM391.754 831.882c-21.523 0-38.969-17.447-38.969-38.97 0-21.522 17.447-38.97 38.969-38.97s38.969 17.447 38.969 38.97-17.447 38.97-38.969 38.97z m299.092 0c-21.522 0-38.969-17.447-38.969-38.97 0-21.522 17.447-38.97 38.969-38.97 21.523 0 38.97 17.447 38.97 38.97-0.001 21.523-17.448 38.97-38.97 38.97z m38.966-105.221h-0.06c-2.42-0.007-244.17-0.943-310.494 0-0.76 0.009-1.522 0.016-2.267 0.016-62.443 0-83.892-37.965-86.495-58.28-1.628-11.021-41.009-277.75-47.783-348.291-5.282-55.076-40.172-52.738-41.664-52.685l-33.429 0.054c-8.616 0-15.588-6.98-15.588-15.588 0-8.608 6.972-15.588 15.588-15.588h32.15c22.012-1.872 67.42 12.59 73.966 80.824 6.713 69.757 47.235 344.249 47.647 347.02 0.547 3.326 6.713 31.906 57.419 31.343 66.583-0.943 308.652-0.015 311.072 0 8.616 0.038 15.558 7.04 15.527 15.648-0.032 8.586-7.004 15.527-15.589 15.527z m63.601-355.164c-4.993 54.824-33.125 172.898-37.006 188.973-0.959 19.895-18.511 54.657-80.466 57.388-65.351 2.885-262.68 15.124-264.674 15.246-0.32 0.023-0.655 0.03-0.974 0.03-8.175 0-15.025-6.355-15.543-14.621-0.533-8.593 5.998-15.991 14.598-16.523 1.979-0.122 199.598-12.383 265.222-15.276 48.331-2.131 50.615-25.719 50.707-28.405 0.046-1.043 0.198-2.527 0.441-3.539 0.32-1.301 31.602-130.731 36.641-186.095 1.309-14.401-0.807-25.133-5.952-30.202-5.054-4.978-12.848-4.224-12.985-4.224-0.533 0.06-1.37 0.121-1.918 0.121h-374.11c-8.615 0-15.587-6.979-15.587-15.588 0-8.608 6.972-15.587 15.587-15.587h373.303c5.206-0.472 22.924-0.891 37.052 12.543 12.649 12.048 17.931 30.809 15.664 55.759z" p-id="682" fill="#cccccc"></path></svg>