<?xml version="1.0" standalone="no"?><!DOCTYPE svg PUBLIC "-//W3C//DTD SVG 1.1//EN" "http://www.w3.org/Graphics/SVG/1.1/DTD/svg11.dtd"><svg t="1501556093645" class="icon" style="" viewBox="0 0 1238 1024" version="1.1" xmlns="http://www.w3.org/2000/svg" p-id="4127" xmlns:xlink="http://www.w3.org/1999/xlink" width="241.796875" height="200"><defs><style type="text/css"></style></defs><path d="M1221.246153 808.67857c0 64.379378-273.459074 116.496018-610.68439 116.496018S-0.122627 873.057949-0.122627 808.67857 273.336447 692.182552 610.561763 692.182552s610.68439 52.11664 610.68439 116.496018" fill="#D8D8D8" p-id="4128"></path><path d="M1171.582061 431.574828l-202.33519-255.678103c-13.489013-16.554697-38.01449-28.204299-59.474283-28.204299h-581.253817c-21.459793 0-53.956051 11.649602-68.0582 28.204299l-226.860667 255.678103v293.692593c0 37.401353 49.664092 79.707802 87.065445 79.707802h996.960661c37.401353 0 53.956051-42.919586 53.956051-79.707802v-293.692593z" fill="#FFFFFF" p-id="4129"></path><path d="M1117.62601 808.040908H120.665349c-37.401353 0-90.13113-42.919586-90.131129-82.773487v-294.30573l0.613136-0.613137 226.860667-255.678103c14.10215-17.167834 47.824681-29.430573 69.897611-29.430573h581.253818c22.686067 0 47.824681 11.649602 61.92683 29.430573l203.561464 256.29124v294.30573c0 41.080175-19.620382 82.773487-57.021736 82.773487z m-1080.960421-375.239806v292.466319c0 33.722532 47.211544 76.642117 83.99976 76.642117h996.960661c33.109395 0 50.890366-38.627627 50.890366-76.642117v-292.466319l-201.722052-255.064966c-12.875876-15.94156-36.788216-26.978025-57.021736-26.978026h-581.253817c-20.233519 0-52.11664 11.036465-65.605652 26.978026l-226.24753 255.064966z" fill="#9C9C9C" p-id="4130"></path><path d="M726.444644 711.778408h-247.707323c-12.875876 0-23.299204-10.423328-23.299204-23.299203 0-12.875876 10.423328-23.299204 23.299204-23.299204h247.707323c12.875876 0 23.299204 10.423328 23.299204 23.299204 0 12.875876-10.423328 23.299204-23.299204 23.299203" fill="#FFFFFF" p-id="4131"></path><path d="M726.444644 714.844093h-247.707323c-14.715287 0-26.364888-11.649602-26.364888-26.364888s11.649602-26.364888 26.364888-26.364888h247.707323c14.715287 0 26.364888 11.649602 26.364888 26.364888s-11.649602 26.364888-26.364888 26.364888z m-247.707323-46.598407c-11.036465 0-20.233519 9.197054-20.233519 20.233519s9.197054 20.233519 20.233519 20.233519h247.707323c11.036465 0 20.233519-9.197054 20.233519-20.233519s-9.197054-20.233519-20.233519-20.233519h-247.707323z" fill="#9C9C9C" p-id="4132"></path><path d="M1044.049578 408.888761l-144.087181-194.977546c-4.291959-5.518232-12.875876-9.197054-19.620382-9.197054h-539.560505c-6.744506 0-15.328423 0.613137-19.620382 6.131369l-144.08718 199.882642c-9.810191 13.489013-9.810191 28.817436 0.613137 28.817436h99.328184v104.846416c0 35.561942 35.561942 73.576433 71.737021 73.576433h523.005808c35.561942 0 55.795461-38.01449 55.795462-73.576433v-104.233279h115.269744c11.036465 0 11.036465-17.780971 1.226274-31.269984" fill="#ECECEC" p-id="4133"></path><path d="M872.371235 621.647279h-523.005808c-36.788216 0-74.802706-38.627627-74.802706-76.642118v-101.780731h-96.262499c-4.291959 0-7.97078-1.839411-9.810191-5.518233-3.678822-6.744506-1.226274-18.394108 6.131369-28.204299l144.08718-200.495779c4.905096-6.744506 14.715287-7.357643 22.07293-7.357643h539.560505c7.357643 0 17.167834 3.678822 22.07293 10.423328l144.087181 194.977546c7.357643 9.810191 9.810191 22.686067 6.131369 30.04371-1.839411 3.678822-5.518232 6.131369-9.197054 6.13137h-112.20406v101.780731c0 36.788216-20.846656 76.642117-58.861146 76.642118z m-531.589725-413.867433c-6.131369 0-14.10215 0.613137-17.167834 4.905095l-144.087181 199.882642c-6.744506 8.583917-7.97078 17.780971-5.518232 22.07293 0.613137 1.839411 2.452548 2.452548 4.291959 2.452547h102.393868v107.912101c0 34.335669 34.948805 70.510748 68.671337 70.510748h523.005808c34.335669 0 52.729777-36.175079 52.729777-70.510748v-107.912101h118.335429c1.839411 0 3.065685-0.613137 4.291958-2.452547 2.452548-4.905096 0.613137-14.715287-5.518232-23.912341l-144.08718-194.977546c-3.678822-4.905096-11.649602-7.97078-17.167835-7.97078h-540.173642z" fill="#9C9C9C" p-id="4134"></path><path d="M915.254033 789.162421c-36.788216 22.686067-79.707802 36.175079-126.30621 36.17508-131.211305 0-237.897132-106.07269-237.897131-237.283995 0-131.211305 106.685827-237.283995 237.897131-237.283995s237.897132 106.07269 237.897132 237.283995c0 45.372133-12.875876 87.065445-34.335668 123.240524" fill="#FFFFFF" p-id="4135"></path><path d="M788.947823 828.403185c-133.050716 0-240.962817-107.912101-240.962816-240.349679s107.912101-240.34968 240.962816-240.34968 240.962817 107.912101 240.962817 240.34968c0 44.14586-12.262739 87.065445-34.948805 124.466798l-5.518233-3.065685c22.07293-36.788216 34.335669-78.481528 34.335669-121.401113 0-129.371894-105.459553-234.21831-234.831448-234.218311-129.371894 0-234.831447 104.846416-234.831447 234.218311s105.459553 234.21831 234.831447 234.21831c44.14586 0 87.065445-12.262739 124.466799-35.561942l3.065685 4.905095c-38.01449 23.912341-82.16035 36.788216-127.532484 36.788216z" fill="#9C9C9C" p-id="4136"></path><path d="M786.887683 781.191641c107.298964 0 194.364409-87.065445 194.36441-194.364409s-87.065445-194.364409-194.36441-194.364409-194.977546 87.065445-194.977546 194.364409 87.065445 194.364409 194.977546 194.364409z" fill="#ECECEC" p-id="4137"></path><path d="M786.887683 784.257326c-109.138375 0-198.043231-88.291719-198.043231-197.430094s88.904856-197.430094 198.043231-197.430094 197.430094 88.291719 197.430094 197.430094-88.291719 197.430094-197.430094 197.430094z m0-388.728819c-105.459553 0-191.911862 85.839171-191.911861 191.298725s85.839171 191.298725 191.911861 191.298725 191.911862-85.839171 191.911862-191.298725c-0.613137-105.459553-86.452308-191.298725-191.911862-191.298725z" fill="#9C9C9C" p-id="4138"></path><path d="M994.741105 706.395066l221.955572 221.342435c21.459793 21.459793 21.459793 56.408598 0 77.255254-21.459793 21.459793-56.408598 21.459793-77.868391 0l-221.342435-220.729298c31.269984-19.620382 58.248009-46.598407 77.255254-77.868391" fill="#FFFFFF" p-id="4139"></path><path d="M1177.455913 1024c-14.715287 0-29.430573-5.518232-41.080175-17.167834l-223.794982-223.794983 3.065684-1.83941c30.656847-19.620382 57.021735-45.98527 76.028981-76.642118l1.83941-3.065684 225.021257 223.794982c11.036465 11.036465 17.167834 25.138614 17.167834 41.080175 0 15.328423-6.131369 30.04371-17.167834 41.080175-11.036465 11.036465-25.751751 16.554697-41.080175 16.554697z m-255.064966-239.123406l218.889886 217.663613c20.233519 20.233519 53.342914 20.233519 72.963296 0 9.810191-9.810191 15.328423-22.686067 15.328424-36.788216s-5.518232-26.978025-15.328424-36.788216l-218.889887-217.663613c-18.394108 28.817436-43.532723 54.569187-72.963295 73.576432z" fill="#9C9C9C" p-id="4140"></path><path d="M648.784719 73.754242c-3.065685 0-5.518232-2.452548-5.518232-5.518232V9.374864c0-3.065685 2.452548-5.518232 5.518232-5.518233s5.518232 2.452548 5.518233 5.518233v58.861146c0 3.065685-2.452548 5.518232-5.518233 5.518232" fill="#9C9C9C" p-id="4141"></path><path d="M613.627447 38.554051c0-3.065685 2.452548-5.518232 5.518233-5.518233h58.861146c3.065685 0 5.518232 2.452548 5.518232 5.518233s-2.452548 5.518232-5.518232 5.518232h-58.861146c-3.065685 0-5.518232-2.452548-5.518233-5.518232" fill="#9C9C9C" p-id="4142"></path><path d="M433.978325 434.027376c-3.678822 0-7.357643-3.065685-7.357644-7.357644v-79.707802c0-3.678822 3.065685-7.357643 7.357644-7.357643 3.678822 0 7.357643 3.065685 7.357643 7.357643v79.707802c0 4.291959-3.065685 7.357643-7.357643 7.357644" fill="#9C9C9C" p-id="4143"></path><path d="M387.379917 387.428968c0-3.678822 3.065685-7.357643 7.357644-7.357643h79.707802c3.678822 0 7.357643 3.065685 7.357643 7.357643s-3.678822 6.744506-7.97078 6.744507h-79.707802c-3.678822 0-6.744506-3.065685-6.744507-6.744507" fill="#9C9C9C" p-id="4144"></path><path d="M457.890665 73.502856l32.496258 59.474283 59.474283 32.496258-59.474283 32.496258-32.496258 59.474282-32.496257-59.474282-59.474283-32.496258 59.474283-32.496258z" fill="#FFFFFF" p-id="4145"></path><path d="M457.890665 263.575307l-34.948805-63.766242-63.766242-34.948805 63.766242-34.335669 34.948805-63.766241 34.335669 63.766241 63.766241 34.948806-63.766241 34.948805-34.335669 63.153105z m-85.839171-98.10191l55.182324 30.04371 30.04371 55.182324 30.04371-55.182324 55.182325-30.04371-55.182325-30.04371-30.04371-55.182325-30.04371 55.182325-55.182324 30.04371z" fill="#9C9C9C" p-id="4146"></path><path d="M753.907047 232.02328l19.007246 34.335669 34.335668 19.007245-34.335668 19.007245-19.007246 34.335668-19.007245-34.335668-34.335668-19.007245 34.335668-19.007245z" fill="#FFFFFF" p-id="4147"></path><path d="M753.907047 345.453614l-21.459792-38.627628-38.627627-20.846655 38.627627-20.846656 21.459792-38.627627 21.459793 38.627627 38.627627 20.846656-38.627627 20.846655-21.459793 38.627628z m-47.211544-60.08742l30.656847 16.554697 16.554697 30.656847 16.554698-30.656847 30.656847-16.554697-30.656847-16.554698-16.554698-30.656847-16.554697 30.656847-30.656847 16.554698z" fill="#9C9C9C" p-id="4148"></path></svg>