<?xml version="1.0" standalone="no"?><!DOCTYPE svg PUBLIC "-//W3C//DTD SVG 1.1//EN" "http://www.w3.org/Graphics/SVG/1.1/DTD/svg11.dtd"><svg t="1501556117383" class="icon" style="" viewBox="0 0 1049 1024" version="1.1" xmlns="http://www.w3.org/2000/svg" p-id="4270" xmlns:xlink="http://www.w3.org/1999/xlink" width="204.8828125" height="200"><defs><style type="text/css"></style></defs><path d="M1049.860353 930.477957c0 50.682914-213.592279 92.315307-476.660735 92.315307S96.538883 981.764239 96.538883 930.477957 310.131162 838.766018 573.199618 838.766018s476.660735 41.029025 476.660735 91.711939" fill="#D8D8D8" p-id="4271"></path><path d="M533.377329 896.689348h304.70085V337.970562H533.377329v558.718786z m101.365827-203.335022H736.108983v-50.682914h-101.365827v50.682914z m0-152.652109H736.108983v-50.682914h-101.365827v50.682914z" fill="#ECECEC" p-id="4272"></path><path d="M841.095019 899.706188H530.360489V334.953722h310.73453v564.752466z m-304.70085-6.03368h298.667169V340.987402H536.394169v552.685106z m203.335022-197.301342h-108.002875v-56.716594h107.399507v56.716594z m-101.969195-6.033681h95.332147v-44.649233h-95.332147v44.649233z m101.969195-146.01506h-108.002875V487.002463h107.399507v57.319962z m-101.969195-6.03368h95.332147V493.036143h-95.332147v45.252602z" fill="#979797" p-id="4273"></path><path d="M126.707284 896.689348h457.352959V185.318453H126.707284v711.370895z m101.969195-203.335022h101.365827v-50.682914H228.676479v50.682914z m0-152.652109h101.365827v-50.682914H228.676479v50.682914z m0-152.048741h101.365827v-50.682914H228.676479v50.682914z m152.048741 304.70085H482.694415v-50.682914H380.72522v50.682914z m0-152.652109H482.694415v-50.682914H380.72522v50.682914z m0-152.048741H482.694415v-50.682914H380.72522v50.682914z" fill="#FFFFFF" p-id="4274"></path><path d="M587.077083 899.706188H123.690444V182.301613h463.386639v717.404575z m-457.352959-6.03368h451.319278V188.335293H129.724124v705.337215z m355.987131-197.301342H377.70838v-56.716594h107.399507v56.716594z m-101.969195-6.033681h95.332147v-44.649233H383.74206v44.649233z m-50.682913 6.033681H225.659639v-56.716594h107.399508v56.716594z m-101.365828-6.033681h95.332147v-44.649233H231.693319v44.649233z m254.017936-146.01506H377.70838V487.002463h107.399507v57.319962z m-101.969195-6.03368h95.332147V493.036143H383.74206v45.252602z m-50.682913 6.03368H225.659639V487.002463h107.399508v57.319962z m-101.365828-6.03368h95.332147V493.036143H231.693319v45.252602z m254.017936-146.618429H377.70838v-56.716594h107.399507v56.716594z m-101.969195-6.03368h95.332147v-44.649234H383.74206v44.649234z m-50.682913 6.03368H225.659639v-56.716594h107.399508v56.716594z m-101.365828-6.03368h95.332147v-44.649234H231.693319v44.649234z" fill="#979797" p-id="4275"></path><path d="M497.241618 6.03368l18.704409 34.391977 34.995345 19.307777-34.995345 18.704408-18.704409 34.995346-19.307776-34.995346-34.391977-18.704408 34.391977-19.307777z" fill="#FFFFFF" p-id="4276"></path><path d="M497.241618 119.466868l-21.11788-38.615553-38.615554-21.117881 38.615554-21.117881 21.11788-38.615553 21.117881 38.615553 38.615553 21.117881-38.615553 21.117881-21.117881 38.615553z m-47.666073-59.733434l30.771769 16.894304 16.894304 30.771769 16.894305-30.771769 30.771769-16.894304-30.771769-16.894305-16.894305-30.771769-16.894304 30.771769-30.771769 16.894305z" fill="#9C9C9C" p-id="4277"></path><path d="M43.442497 614.916483c-3.01684 0-4.826944-2.413472-4.826944-4.826944V536.478641c0-3.01684 2.413472-4.826944 4.826944-4.826945 3.01684 0 4.826944 2.413472 4.826945 4.826945v73.00753c0.603368 3.01684-1.810104 5.430312-4.826945 5.430312" fill="#9C9C9C" p-id="4278"></path><path d="M2.413472 573.28409c0-3.01684 2.413472-4.826944 4.826944-4.826944h72.404163c2.413472 0 4.826944 2.413472 4.826944 4.826944s-2.413472 4.826944-4.826944 4.826944h-72.404163c-2.413472 0-4.826944-2.413472-4.826944-4.826944" fill="#9C9C9C" p-id="4279"></path><path d="M306.510954 961.853094h-1.206736c-4.223576 0-7.240416-3.01684-7.240417-7.240416v-115.84666c0-4.223576 3.01684-7.240416 7.240417-7.240416h1.206736c4.223576 0 7.240416 3.01684 7.240416 7.240416v115.84666c0 3.620208-3.620208 7.240416-7.240416 7.240416" fill="#9C9C9C" p-id="4280"></path><path d="M241.347208 897.292716v-1.206736c0-4.223576 3.01684-7.240416 7.240416-7.240416h114.639924c4.223576 0 7.240416 3.01684 7.240416 7.240416v1.206736c0 4.223576-3.01684 7.240416-7.240416 7.240416h-114.639924c-4.223576 0-7.240416-3.620208-7.240416-7.240416" fill="#9C9C9C" p-id="4281"></path></svg>