<?xml version="1.0" standalone="no"?><!DOCTYPE svg PUBLIC "-//W3C//DTD SVG 1.1//EN" "http://www.w3.org/Graphics/SVG/1.1/DTD/svg11.dtd"><svg t="1502694168057" class="icon" style="" viewBox="0 0 1024 1024" version="1.1" xmlns="http://www.w3.org/2000/svg" p-id="3742" xmlns:xlink="http://www.w3.org/1999/xlink" width="200" height="200"><defs><style type="text/css"></style></defs><path d="M678.143483 534.248723 344.448448 534.248723c-12.786211 0-23.163559-10.378371-23.163559-23.162536 0-12.732999 10.377348-23.060205 23.163559-23.060205l333.696058 0c12.734022 0 23.060205 10.327206 23.060205 23.060205C701.203688 523.870352 690.878528 534.248723 678.143483 534.248723z" p-id="3743" fill="#ffab00"></path><path d="M511.295454 959.391517c-247.214405 0-448.305329-201.089901-448.305329-448.305329 0-247.164263 201.090924-448.279746 448.305329-448.279746 247.164263 0 448.255187 201.116507 448.255187 448.279746C959.550641 758.301616 758.46074 959.391517 511.295454 959.391517zM511.295454 109.032252c-221.747383 0-402.080541 180.360787-402.080541 402.054959 0 221.696218 180.333158 402.080541 402.080541 402.080541 221.695195 0 402.030399-180.3833 402.030399-402.080541C913.325853 289.39304 732.990648 109.032252 511.295454 109.032252z" p-id="3744" fill="#ffab00"></path></svg>