<?xml version="1.0" standalone="no"?><!DOCTYPE svg PUBLIC "-//W3C//DTD SVG 1.1//EN" "http://www.w3.org/Graphics/SVG/1.1/DTD/svg11.dtd"><svg t="1491536622938" class="icon" style="" viewBox="0 0 1024 1024" version="1.1" xmlns="http://www.w3.org/2000/svg" p-id="4029" xmlns:xlink="http://www.w3.org/1999/xlink" width="200" height="200"><defs><style type="text/css"></style></defs><path d="M512 2.844444h-11.377778c-193.422222 11.377778-355.555556 173.511111-355.555555 369.777778 0 96.711111 31.288889 184.888889 96.711111 250.311111l22.755555 22.755556c42.666667 54.044444 65.422222 65.422222 65.422223 130.844444v31.288889h366.933333v-31.288889c0-65.422222 22.755556-88.177778 65.422222-130.844444l31.288889-31.288889c54.044444-65.422222 85.333333-150.755556 85.333333-238.933333 0-210.488889-162.133333-372.622222-366.933333-372.622223" fill="#FF8646" p-id="4030"></path><path d="M403.911111 989.866667c0 22.755556 22.755556 31.288889 31.288889 31.288889h150.755556c22.755556 0 31.288889-11.377778 31.288888-31.288889s-22.755556-31.288889-31.288888-31.288889h-150.755556c-19.911111 0-31.288889 11.377778-31.288889 31.288889" fill="#FF9D68" p-id="4031"></path><path d="M512 156.444444c-119.466667 0-216.177778 96.711111-216.177778 216.177778 0 22.755556 22.755556 31.288889 31.288889 31.288889s31.288889-22.755556 31.288889-31.288889c0-76.8 65.422222-150.755556 150.755556-150.755555 22.755556 0 31.288889-22.755556 31.288888-31.288889s-5.688889-34.133333-28.444444-34.133334" fill="#FFFFFF" p-id="4032"></path><path d="M329.955556 881.777778c0 22.755556 22.755556 31.288889 31.288888 31.288889h290.133334c22.755556 0 31.288889-11.377778 31.288889-31.288889 0-22.755556-22.755556-31.288889-31.288889-31.288889h-290.133334c-11.377778 0-31.288889 8.533333-31.288888 31.288889" fill="#FF9D68" p-id="4033"></path></svg>