<?xml version="1.0" standalone="no"?><!DOCTYPE svg PUBLIC "-//W3C//DTD SVG 1.1//EN" "http://www.w3.org/Graphics/SVG/1.1/DTD/svg11.dtd"><svg t="1512112239055" class="icon" style="" viewBox="0 0 1024 1024" version="1.1" xmlns="http://www.w3.org/2000/svg" p-id="3051" xmlns:xlink="http://www.w3.org/1999/xlink" width="300" height="300"><defs><style type="text/css"></style></defs><path d="M527.629979 123.811864c-158.88466 0-288.165072 129.280412-288.165072 288.165072 0 153.379273 258.221086 425.718915 269.197068 437.21883 4.948709 5.212722 11.812023 8.123005 18.968004 8.123005l0.575098 0c7.358595 0 14.302751-3.434216 19.147082-8.962116l89.411379-102.426811c118.79971-145.521305 179.026396-257.881348 179.026396-333.952908C815.789934 253.092275 686.509523 123.811864 527.629979 123.811864L527.629979 123.811864zM527.629979 542.960129c-72.354911 0-130.983193-58.628282-130.983193-130.983193s58.628282-130.983193 130.983193-130.983193 130.983193 58.628282 130.983193 130.983193S599.98489 542.960129 527.629979 542.960129L527.629979 542.960129z" p-id="3052" fill="#fffdb6"></path></svg>