<?xml version="1.0" standalone="no"?><!DOCTYPE svg PUBLIC "-//W3C//DTD SVG 1.1//EN" "http://www.w3.org/Graphics/SVG/1.1/DTD/svg11.dtd"><svg t="1510567477546" class="icon" style="" viewBox="0 0 1024 1024" version="1.1" xmlns="http://www.w3.org/2000/svg" p-id="6293" xmlns:xlink="http://www.w3.org/1999/xlink" width="300" height="300"><defs><style type="text/css"></style></defs><path d="M649.6 774.4c-67.2-3.2-150.4-64-230.4-160l-28.8-35.2c-80-96-121.6-192-112-252.8 6.4-44.8 70.4-80 108.8-80 19.2 0 25.6 9.6 25.6 16 22.4 38.4 48 102.4 48 124.8v3.2c-3.2 12.8-16 19.2-22.4 22.4-12.8 6.4-19.2 9.6-19.2 22.4 0 3.2 3.2 22.4 54.4 86.4l22.4 28.8c54.4 64 70.4 70.4 73.6 70.4 12.8 3.2 19.2-3.2 28.8-12.8 6.4-6.4 16-16 28.8-19.2h6.4c22.4 6.4 83.2 41.6 115.2 70.4 6.4 3.2 12.8 12.8 6.4 35.2-19.2 32-64 80-105.6 80m0 0" fill="#ffab00" p-id="6294"></path><path d="M512 32c265.6 0 480 214.4 480 480s-214.4 480-480 480S32 777.6 32 512 246.4 32 512 32m0-32C230.4 0 0 230.4 0 512s230.4 512 512 512 512-230.4 512-512S793.6 0 512 0z" fill="#ffab00" p-id="6295"></path></svg>