<?xml version="1.0" standalone="no"?><!DOCTYPE svg PUBLIC "-//W3C//DTD SVG 1.1//EN" "http://www.w3.org/Graphics/SVG/1.1/DTD/svg11.dtd"><svg t="1497234736029" class="icon" style="" viewBox="0 0 1024 1024" version="1.1" xmlns="http://www.w3.org/2000/svg" p-id="2922" xmlns:xlink="http://www.w3.org/1999/xlink" width="200" height="200"><defs><style type="text/css"></style></defs><path d="M850.944 375.808c-4.096-3.584-9.216-5.632-14.336-5.632-5.12 0-10.752 2.048-14.848 6.144l0 0-154.624 160.256c-1.536 1.536-3.072 2.048-4.608 2.048-1.024 0-2.048-0.512-2.56-0.512-1.024-0.512-1.536-1.024-2.048-2.048l0 0-123.904-238.08 0 0c-2.048-3.584-4.608-6.656-8.192-8.704-3.072-2.048-7.168-3.072-10.752-3.072-3.584 0-7.168 1.024-10.752 3.072-3.072 2.048-6.144 4.608-8.192 8.704l0 0L371.2 537.6l0 0c-0.512 1.024-1.024 1.536-2.048 2.048-1.024 0.512-2.048 1.024-3.072 1.024-1.536 0-3.072-0.512-4.096-1.536l0 0L207.36 378.88l0 0c-4.096-4.096-9.728-6.144-14.848-6.144-5.632 0-10.752 2.048-14.336 5.632-4.096 3.584-6.656 8.704-6.656 14.848 0 1.536 0 2.56 0.512 4.096l0 0 57.344 321.024 0 0c0.512 4.608 3.072 8.704 6.144 11.776 3.072 3.072 7.68 5.12 12.288 5.12 0.512 0 1.024 0 1.536 0l529.408 0c5.12 0 9.728-1.536 13.824-4.608 3.584-3.072 6.656-7.168 7.168-12.288l0 0 57.344-322.56 0 0c0.512-1.536 0.512-2.56 0.512-4.096C857.6 385.024 854.528 379.392 850.944 375.808zM752.128 668.672c0 1.536-1.024 2.56-1.536 3.072-1.024 0.512-1.536 1.024-2.56 1.024l-0.512 0-0.512 0L283.136 672.768c-1.536 0-3.072-0.512-4.096-1.536-1.024-1.024-1.536-2.048-2.048-3.072l0 0L251.392 522.24l0 0c0-0.512 0-1.024 0-1.536 0-1.536 0.512-3.072 1.536-4.096 1.024-1.024 2.56-1.536 4.096-1.536 1.536 0 2.56 0.512 4.096 2.048l0 0 99.328 103.424 0 0c4.096 4.096 9.728 6.656 15.36 6.656 3.584 0 7.168-1.024 10.752-3.072 3.072-2.048 6.144-4.608 7.68-8.192l0 0 115.712-221.184c0.512-1.024 1.536-2.048 2.048-2.56 1.024-0.512 1.536-0.512 2.56-0.512 1.024 0 2.048 0 2.56 0.512 1.024 0.512 1.536 1.024 2.048 2.56l115.712 221.184 0 0c2.048 3.584 4.608 6.656 8.192 8.704 3.072 2.048 7.168 3.072 10.752 3.072 5.632 0 11.264-2.048 15.36-6.656l0 0 99.84-103.424c1.536-1.536 2.56-1.536 4.096-1.536 1.536 0 3.072 0.512 4.096 1.536 1.024 1.024 1.536 2.048 1.536 3.584l0 1.024 0 0L752.128 668.672 752.128 668.672z" p-id="2923" fill="#ff9a00"></path><path d="M771.584 772.608 258.56 772.608c-5.632 0-11.264 2.56-14.848 6.144-3.584 3.584-6.144 9.216-6.144 14.848l0 20.48c0 5.632 2.56 11.264 6.144 14.848 3.584 3.584 9.216 6.144 14.848 6.144l512.512 0c5.632 0 11.264-2.56 14.848-6.144 3.584-3.584 6.144-9.216 6.144-14.848l0-20.48c0-5.632-2.048-11.264-5.632-14.848C782.336 774.656 777.216 772.608 771.584 772.608z" p-id="2924" fill="#ff9a00"></path><path d="M154.624 310.272m-34.304 0a6.7 6.7 0 1 0 68.608 0 6.7 6.7 0 1 0-68.608 0Z" p-id="2925" fill="#ff9a00"></path><path d="M869.376 310.272m-34.304 0a6.7 6.7 0 1 0 68.608 0 6.7 6.7 0 1 0-68.608 0Z" p-id="2926" fill="#ff9a00"></path><path d="M514.048 223.232m-34.304 0a6.7 6.7 0 1 0 68.608 0 6.7 6.7 0 1 0-68.608 0Z" p-id="2927" fill="#ff9a00"></path></svg>