<?xml version="1.0" standalone="no"?><!DOCTYPE svg PUBLIC "-//W3C//DTD SVG 1.1//EN" "http://www.w3.org/Graphics/SVG/1.1/DTD/svg11.dtd"><svg t="1496384126408" class="icon" style="" viewBox="0 0 1064 1024" version="1.1" xmlns="http://www.w3.org/2000/svg" p-id="30038" xmlns:xlink="http://www.w3.org/1999/xlink" width="207.8125" height="200"><defs><style type="text/css"></style></defs><path d="M991.90938 932.691142c0 49.796328-209.028167 90.165548-466.870454 90.165548S58.173669 982.48747 58.173669 932.691142 267.201835 842.525594 525.044123 842.525594s466.865257 40.369221 466.865257 90.165548" fill="#D8D8D8" p-id="30039"></path><path d="M1016.677622 524.747901a5.124106 5.124106 0 0 1-5.077334-5.139696V444.420012c0-2.821896 2.281422-5.139696 5.077334-5.139696s5.077334 2.3178 5.077334 5.139696v75.182996c0 2.827093-2.281422 5.144893-5.077334 5.144893" fill="#9C9C9C" p-id="30040"></path><path d="M974.473909 482.014109c0-2.83229 2.286619-5.139696 5.077334-5.139696h74.252758c2.790715 0 5.077334 2.312603 5.077334 5.139696 0 2.83229-2.286619 5.139696-5.077334 5.139696h-74.252758a5.118909 5.118909 0 0 1-5.077334-5.139696M44.864506 675.456887a5.124106 5.124106 0 0 1-5.077334-5.139696v-75.188193c0-2.821896 2.281422-5.139696 5.077334-5.139696s5.077334 2.3178 5.077334 5.139696v75.182996c0 2.827093-2.281422 5.144893-5.077334 5.144893" fill="#9C9C9C" p-id="30041"></path><path d="M2.660793 632.723095c0-2.83229 2.286619-5.139696 5.077334-5.139697h74.252758c2.790715 0 5.077334 2.312603 5.077334 5.139697 0 2.83229-2.286619 5.139696-5.077334 5.139696H7.738127a5.118909 5.118909 0 0 1-5.077334-5.139696" fill="#9C9C9C" p-id="30042"></path><path d="M921.247653 5.41513l33.561332 61.31777 61.380132 33.535347-61.380132 33.540545-33.561332 61.312573-33.566529-61.312573L826.300992 100.268247l61.380132-33.535347z" fill="#FFFFFF" p-id="30043"></path><path d="M921.247653 200.531298l-35.478974-64.804864-64.882817-35.458187 64.882817-35.447792 35.478974-64.820455 35.478974 64.815258 64.882817 35.447793-64.882817 35.458186-35.478974 64.810061z m-89.526335-100.263051l57.872251 31.622903 31.654084 57.815085 31.654084-57.815085 57.87225-31.622903-57.877447-31.617705-31.648887-57.820282-31.654084 57.820282-57.872251 31.617705z" fill="#9C9C9C" p-id="30044"></path><path d="M937.539814 349.878706l16.349326 29.829986 29.902742 16.328539-29.902742 16.318145-16.349326 29.840379-16.349327-29.840379-29.902741-16.318145 29.902741-16.323343z" fill="#FFFFFF" p-id="30045"></path><path d="M937.539814 447.600491l-18.261772-33.327473-33.410623-18.240984 33.41582-18.230591 18.261772-33.327473 18.266968 33.327473 33.41582 18.240985-33.41582 18.235787-18.272165 33.322276z m-40.821348-51.56326l26.384466 14.395306 14.436882 26.348088 14.436881-26.348088 26.389663-14.395306-26.389663-14.405701-14.436881-26.348088-14.436882 26.348088-26.384466 14.405701z" fill="#9C9C9C" p-id="30046"></path><path d="M486.031283 94.925874l13.0805 23.552176 23.921154 12.888217-23.921154 12.88302-13.0805 23.552177-13.075304-23.552177-23.926351-12.888217 23.926351-12.888216z" fill="#FFFFFF" p-id="30047"></path><path d="M486.03648 173.154231l-14.982552-26.982105-27.496595-14.811056 27.491398-14.811055 14.987749-26.982106 14.982551 26.982106 27.501792 14.811055-27.501792 14.811056-14.982551 26.982105z m-31.524163-41.787964l20.345713 10.954984 11.173253 20.132642 11.173252-20.132642 20.35091-10.954984-20.345713-10.965378-11.173252-20.127445-11.17845 20.132642-20.345713 10.960181z" fill="#9C9C9C" p-id="30048"></path><path d="M874.678576 841.319922h-28.780219v-237.912324h-47.249866v237.912324H489.035069v-249.719593h-30.370459v249.719593H280.640919v-237.912324h-41.33064v237.912324h-43.45096c-16.312949 0-29.50778 13.641762-29.50778 29.944316 0 16.27657 13.200028 29.949513 29.50778 29.949513h678.819257c16.307752 0 29.523371-13.672943 29.523371-29.949513 0-16.302555-13.215619-29.944316-29.523371-29.944316z m-352.180916-130.586738l10.440495 10.424904 110.552837-110.552836-11.765695-9.104902-109.227637 109.232834z m239.050436-26.342892l-11.755301-9.110098-109.227636 109.238031 10.440495 10.435298 110.542442-110.563231z m-36.435196-66.842033l-10.450889-10.435298-177.384476 177.405264 10.424904 10.435298 177.410461-177.405264z m-348.428782 154.190883a26.400057 26.400057 0 0 0 26.400057 26.452025 26.462419 26.462419 0 0 0 26.47801-26.452025c0-9.369941-6.324581-17.565392-12.233412-22.258158v-88.258301c5.908832-4.692766 12.233412-12.888217 12.233412-22.278945a26.462419 26.462419 0 0 0-26.47801-26.441632 26.410451 26.410451 0 0 0-26.400057 26.441632c0 8.850255 5.207255 16.629957 11.116087 21.447448v89.921296c-5.908832 4.807097-11.116087 12.586799-11.116087 21.42666z m-138.449589-200.354605c28.899747 0 52.498696-21.125242 54.489093-56.552247h10.336558c2.005989 35.427005 25.589346 56.552248 54.515078 56.552247 28.899747 0 52.483105-21.125242 54.4787-56.552247h10.346951c1.990398 35.427005 25.589346 56.552248 54.489094 56.552247 28.899747 0 52.498696-21.125242 54.515078-56.552247h10.320967c1.990398 35.427005 25.604937 56.552248 54.504685 56.552247s52.498696-21.125242 54.489093-56.552247h10.320967c2.016382 35.427005 25.604937 56.552248 54.515078 56.552247 28.899747 0 52.498696-21.125242 54.515078-56.552247h10.305377c1.990398 35.427005 25.604937 56.552248 54.489094 56.552247 28.910141 0 52.52468-21.125242 54.515078-56.552247h-2.146304v-12.654358h-707.812548v12.654358h4.323789c1.974807 35.421809 25.589346 56.552248 54.489094 56.552247z m1.07575-336.642299h588.871977v29.52337H239.310279v-29.52337z m581.866607 47.239471H249.350616L181.100232 484.46183H889.44286l-68.265974-202.480121zM301.443956 472.649364h-29.497386l44.272064-178.0081h29.50778l-44.282458 178.0081z m118.062302 0h-29.507781l27.429036-178.0081h29.497386l-27.418641 178.0081z m128.575552 0h-29.523371V294.641264h29.523371v178.0081z m105.252038 0l-27.43943-178.0081h29.533765l27.403051 178.0081h-29.497386z m118.041514 0l-44.256474-178.0081h29.50778l44.256474 178.0081h-29.50778z" fill="#FFFFFF" p-id="30049"></path><path d="M874.678576 903.817379H195.859319c-17.705707 0-32.111408-14.603181-32.111407-32.553141 0-17.944763 14.4057-32.547944 32.111407-32.547944h40.852529v-237.912323h46.527502v237.912323h172.821632v-249.719593h35.567321v249.719593h304.416561v-237.912323h52.446727v237.912323h26.181788c17.710904 0 32.126998 14.603181 32.126999 32.547944 0 17.94996-14.410897 32.553141-32.121802 32.553141zM195.859319 843.918352c-14.83704 0-26.914546 12.26979-26.914546 27.351083 0 15.081292 12.072309 27.356279 26.914546 27.356279h678.81406c14.847434 0 26.930137-12.26979 26.930137-27.356279 0-15.076095-12.077506-27.351083-26.930137-27.351083h-31.37865v-237.912323h-42.053004v237.912323H486.436638v-249.719592h-25.173598v249.719592H278.042488v-237.912323h-36.133778v237.912323h-46.049391z m207.219659-43.133951c-15.990743 0-28.998488-13.028532-28.998488-29.045259 0-8.153876 4.131505-16.536414 11.116087-22.632332v-87.509952c-6.984582-6.106312-11.116087-14.494047-11.116087-22.65312 0-16.011531 13.007745-29.040063 28.998488-29.040063 16.032318 0 29.076441 13.028532 29.076441 29.040063 0 11.687742-8.398128 20.220988-12.233413 23.500208v85.815775c3.840481 3.284417 12.233412 11.812466 12.233413 23.484618 0 16.011531-13.044123 29.040063-29.076441 29.040062z m0-185.689061a23.853595 23.853595 0 0 0-23.801626 23.843201c0 6.984582 3.798906 14.249794 10.159864 19.431065l0.956223 0.77953v92.389805l-0.961419 0.779529c-6.360959 5.176074-10.159864 12.43609-10.159865 19.410278a23.853595 23.853595 0 0 0 23.801626 23.848398 23.889973 23.889973 0 0 0 23.879579-23.848398c0-8.330569-5.815288-15.907593-11.251205-20.226185l-0.982207-0.779529v-90.768385l0.982207-0.779529c5.435917-4.318592 11.251205-11.900813 11.251205-20.246973a23.879579 23.879579 0 0 0-23.874382-23.832807z m144.623461 183.532364l-14.099085-14.109479 181.058657-181.079445 14.130267 14.109479-181.089839 181.079445z m-6.750723-14.109479l6.750723 6.761116 173.741477-173.731082-6.781905-6.761117-173.710295 173.731083z m110.059134 14.109479l-14.119872-14.109479 112.688746-112.699141 15.8972 12.321759-114.466074 114.486861z m-6.77151-14.109479l6.77151 6.761116 106.618813-106.639599-7.613403-5.908832-105.77692 105.787315z m-111.295988-59.685956l-14.119873-14.099085 112.688747-112.688747 15.907593 12.311365-114.476467 114.476467z m-6.766314-14.099085l6.766314 6.750723 106.629206-106.629206-7.623796-5.898438-105.771724 105.776921z m308.693578-136.750216c-31.409831 0-54.026573-22.621938-56.910831-56.557445h-5.467098c-2.915439 33.935506-25.537378 56.557445-56.936816 56.557445-31.404635 0-54.026573-22.621938-56.936815-56.557445h-5.482689c-2.884258 33.940703-25.495803 56.557445-56.910831 56.557445-31.420225 0-54.036967-22.616742-56.921225-56.557445h-5.482689c-2.910242 33.935506-25.537378 56.557445-56.936816 56.557445-31.409831 0-54.026573-22.621938-56.910831-56.557445h-5.508673c-2.884258 33.935506-25.495803 56.557445-56.895241 56.557445-31.409831 0-54.036967-22.621938-56.936815-56.557445h-5.493083c-2.884258 33.935506-25.501 56.557445-56.910831 56.557445-31.420225 0-54.036967-22.621938-56.916028-56.557445h-4.495286v-17.851219h713.019803v12.654358h2.297013l-0.155906 2.743943c-1.980004 35.302281-24.934542 59.010363-57.108312 59.010363z m-67.252585-61.749109h15.221607l0.135119 2.452918c1.824098 32.360857 22.679104 54.104526 51.895859 54.104526 28.400849 0 48.902467-20.51721 51.719167-51.360583h-1.948823v-12.654358H182.020077v7.457497h4.178277l0.135118 2.452918c1.808508 32.360857 22.663513 54.099329 51.89586 54.09933 29.221953 0 50.076958-21.743669 51.89586-54.09933l0.135118-2.452918h15.247592l0.135118 2.452918c1.834492 32.360857 22.699891 54.104526 51.921844 54.104526 29.211559 0 50.061368-21.743669 51.88027-54.099329l0.135118-2.452918h15.263182l0.135119 2.452918c1.818902 32.360857 22.673907 54.099329 51.89586 54.099329 29.216756 0 50.076958-21.743669 51.921844-54.104526l0.140315-2.452918h15.232001l0.135119 2.452918c1.818902 32.360857 22.673907 54.099329 51.906253 54.09933 29.221953 0 50.082155-21.743669 51.89586-54.09933l0.135118-2.452918h15.237198l0.135119 2.452918c1.839689 32.360857 22.705088 54.104526 51.921844 54.104526 29.211559 0 50.076958-21.743669 51.921844-54.104526l0.161103-2.452918z m125.441845-25.173598H177.47802l70.001725-207.676982h575.562814l0.592443 1.766933 69.424874 205.910049z m-708.342628-5.196861h701.103399l-66.509434-197.28326H251.211092L184.717248 481.8634z m619.491885-6.615605h-34.865744l-45.555689-183.204961h34.865744l45.555689 183.204961z m-30.806995-5.196862h24.155012l-42.967651-172.811238h-24.155013l42.967652 172.811238z m-87.535937 5.196862h-34.75661l-28.239746-183.204961h34.787791l28.208565 183.204961z m-30.3029-5.196862h24.24336l-26.602735-172.811238h-24.27454l26.633915 172.811238z m-104.88306 5.196862h-34.720232V292.042834h34.720232v183.204961z m-29.523371-5.196862h24.326509V297.239695h-24.326509v172.811238z m-99.421159 5.196862h-34.767004l28.229352-183.204961h34.756611l-28.218959 183.204961z m-28.707463-5.196862h24.253753l26.613128-172.811238h-24.238162l-26.628719 172.811238z m-89.552319 5.196862H268.625775l45.560886-183.204961h34.865744l-45.576476 183.204961z m-28.203368-5.196862h24.144619l42.988439-172.811238h-24.155013l-42.978045 172.811238z m555.508125-203.186894H236.711848v-34.720232h594.068838v34.720232z m-588.871976-5.196861h583.675115v-24.32651H241.90871v24.32651z" fill="#8C8C8C" p-id="30050"></path><path d="M893.860192 595.321282c-76.263944 0-138.085809 61.821865-138.085809 138.085809s108.214249 192.975061 108.214249 192.975061c16.494839 19.259569 43.497731 19.358309 59.831467-0.103937 0 0 108.120705-116.612377 108.120705-192.871124 0.005197-76.263944-61.816669-138.085809-138.080612-138.085809z m0 197.548299c-35.281493 0-63.879823-28.598329-63.879822-63.879822s28.593132-63.879823 63.879822-63.879823c35.281493 0 63.874626 28.598329 63.874626 63.879823 0 35.28669-28.593132 63.879823-63.874626 63.879822z" fill="#D0D0D0" p-id="30051"></path><path d="M893.969326 942.799038c-11.916404 0-23.084459-5.378752-31.4618-15.148852-0.218268-0.239056-27.397854-29.663686-54.224053-68.042508-36.133779-51.703576-54.457913-94.167132-54.457913-126.200587 0-77.209773 62.819663-140.029435 140.029435-140.029435s140.029435 62.819663 140.029436 140.029435c0 32.033455-18.303346 74.476223-54.411141 126.148618-26.795018 38.352838-53.959014 67.751484-54.229251 68.047706-8.190254 9.775297-19.327128 15.195623-31.274713 15.195623zM893.860192 597.275302c-75.063469 0-136.131789 61.06832-136.131789 136.131789 0 74.621735 106.613615 190.485764 107.694563 191.649861 7.670568 8.948996 17.788857 13.844439 28.54636 13.84444 10.778291 0 20.855006-4.926625 28.364471-13.875621 1.138113-1.231656 107.663381-116.996945 107.663381-191.61868-0.005197-75.063469-61.073517-136.131789-136.136986-136.131789z m0 197.543102c-36.294881 0-65.828646-29.533764-65.828645-65.828645s29.533764-65.823449 65.828645-65.823449 65.823449 29.528568 65.823449 65.823449S930.155074 794.818404 893.860192 794.818404z m0-127.754448c-34.148577 0-61.930999 27.782422-61.930999 61.925803 0 34.148577 27.782422 61.930999 61.930999 61.930999 34.143381 0 61.925803-27.782422 61.925803-61.930999 0-34.143381-27.782422-61.925803-61.925803-61.925803z" fill="#757575" p-id="30052"></path></svg>