<?xml version="1.0" standalone="no"?><!DOCTYPE svg PUBLIC "-//W3C//DTD SVG 1.1//EN" "http://www.w3.org/Graphics/SVG/1.1/DTD/svg11.dtd"><svg t="1497250793646" class="icon" style="" viewBox="0 0 1024 1024" version="1.1" xmlns="http://www.w3.org/2000/svg" p-id="2275" xmlns:xlink="http://www.w3.org/1999/xlink" width="200" height="200"><defs><style type="text/css"></style></defs><path d="M512 1024C229.6832 1024 0 794.3168 0 512S229.6832 0 512 0s512 229.6832 512 512-229.6832 512-512 512z m0-993.28C246.62016 30.72 30.72 246.62016 30.72 512S246.62016 993.28 512 993.28 993.28 777.37984 993.28 512 777.37984 30.72 512 30.72z" fill="#4990E2" p-id="2276"></path><path d="M547.10272 493.01504h151.83872v24.94464h-151.83872z" fill="#4A90E2" p-id="2277"></path><path d="M593.3056 676.47488l-1.3312-1.24928H293.62176c-11.8784 0-21.11488-8.74496-21.11488-19.968V393.15456c0-11.22304 9.23648-21.21728 21.11488-21.21728h425.10336c11.8784 0 21.13536 8.74496 21.13536 19.968v157.26592l1.31072 1.24928c6.59456 3.74784 13.2096 8.74496 18.49344 14.97088l5.28384 6.2464v-184.7296c0-21.21728-18.49344-38.68672-40.91904-38.68672H287.00672c-22.44608 0-40.91904 17.46944-40.91904 38.68672V661.504c0 21.21728 18.49344 38.68672 40.91904 38.68672h323.46112l-3.95264-4.99712c-5.28384-6.22592-9.23648-12.47232-13.2096-18.71872z" fill="#4A90E2" p-id="2278"></path><path d="M547.10272 547.92192h44.89216v24.96512h-44.89216zM547.10272 439.33696h151.83872v24.96512h-151.83872zM685.73184 551.66976c-48.8448 0-87.1424 36.18816-87.1424 82.37056 0 44.93312 39.60832 82.37056 87.1424 82.37056 48.8448 0 87.1424-36.20864 87.1424-82.39104-0.02048-46.16192-39.6288-82.35008-87.1424-82.35008z m-1.3312 132.3008c-3.95264 3.74784-11.8784 3.74784-17.16224 0l-36.9664-34.93888c-3.95264-3.74784-3.95264-11.24352 0-14.97088 3.95264-3.74784 11.8784-3.74784 17.16224 0l29.04064 27.46368 56.77056-52.4288c3.95264-3.74784 11.8784-3.74784 17.16224 0 3.95264 3.74784 3.95264 11.24352 0 14.97088l-66.00704 59.904zM414.24896 566.272c-36.70016 0-66.53952-28.63104-66.53952-63.81568 0-35.18464 29.85984-63.81568 66.53952-63.81568 36.70016 0 66.56 28.63104 66.56 63.81568-0.02048 35.18464-29.88032 63.81568-66.56 63.81568z m0-106.61888c-24.45312 0-44.3392 19.21024-44.3392 42.8032 0 23.61344 19.88608 42.8032 44.3392 42.8032s44.3392-19.21024 44.3392-42.8032c0-23.61344-19.90656-42.8032-44.3392-42.8032z" fill="#4A90E2" p-id="2279"></path><path d="M502.9888 596.43904a11.264 11.264 0 0 1-9.5232-5.05856l-36.352-56.95488a10.19904 10.19904 0 0 1 3.76832-14.41792 11.4688 11.4688 0 0 1 15.2576 3.56352l36.352 56.95488a10.19904 10.19904 0 0 1-3.76832 14.41792 11.75552 11.75552 0 0 1-5.7344 1.49504z" fill="#4A90E2" p-id="2280"></path><path d="M502.9888 596.43904a11.71456 11.71456 0 0 1-2.7648-0.32768l-36.352-8.78592a10.48576 10.48576 0 0 1-8.00768-12.77952 11.1616 11.1616 0 0 1 13.5168-7.5776l36.352 8.78592c5.9392 1.4336 9.5232 7.168 8.00768 12.77952a10.99776 10.99776 0 0 1-10.752 7.90528z" fill="#4A90E2" p-id="2281"></path><path d="M456.97024 616.93952a12.4928 12.4928 0 0 1-3.31776-0.47104 10.40384 10.40384 0 0 1-7.29088-13.14816l9.64608-29.2864a11.264 11.264 0 0 1 13.90592-6.90176 10.4448 10.4448 0 0 1 7.31136 13.14816l-9.66656 29.30688a11.0592 11.0592 0 0 1-10.58816 7.35232z" fill="#4A90E2" p-id="2282"></path><path d="M456.97024 616.93952a11.22304 11.22304 0 0 1-9.64608-5.28384l-29.5936-49.00864a10.19904 10.19904 0 0 1 4.13696-14.31552 11.42784 11.42784 0 0 1 15.1552 3.91168l29.5936 49.00864a10.19904 10.19904 0 0 1-4.13696 14.31552 11.73504 11.73504 0 0 1-5.50912 1.37216zM325.44768 596.43904a11.61216 11.61216 0 0 1-5.7344-1.51552 10.17856 10.17856 0 0 1-3.76832-14.41792l36.352-56.95488a11.4688 11.4688 0 0 1 15.2576-3.56352 10.19904 10.19904 0 0 1 3.7888 14.41792l-36.352 56.95488a11.34592 11.34592 0 0 1-9.54368 5.07904z" fill="#4A90E2" p-id="2283"></path><path d="M325.46816 596.43904a10.99776 10.99776 0 0 1-10.752-7.8848 10.48576 10.48576 0 0 1 8.00768-12.77952l36.352-8.78592a11.18208 11.18208 0 0 1 13.5168 7.5776 10.48576 10.48576 0 0 1-8.00768 12.77952l-36.352 8.78592a12.98432 12.98432 0 0 1-2.7648 0.3072z" fill="#4A90E2" p-id="2284"></path><path d="M371.46624 616.93952a11.01824 11.01824 0 0 1-10.58816-7.3728l-9.64608-29.30688a10.38336 10.38336 0 0 1 7.29088-13.14816c5.8368-1.67936 12.0832 1.37216 13.90592 6.90176l9.64608 29.2864a10.40384 10.40384 0 0 1-7.29088 13.14816 10.9568 10.9568 0 0 1-3.31776 0.49152z" fill="#4A90E2" p-id="2285"></path><path d="M371.44576 616.93952a11.264 11.264 0 0 1-5.48864-1.39264 10.19904 10.19904 0 0 1-4.13696-14.31552l29.5936-49.00864a11.4688 11.4688 0 0 1 15.1552-3.91168c5.3248 2.8672 7.168 9.29792 4.13696 14.31552l-29.5936 49.00864a11.18208 11.18208 0 0 1-9.66656 5.30432z" fill="#4A90E2" p-id="2286"></path></svg>