<?xml version="1.0" standalone="no"?><!DOCTYPE svg PUBLIC "-//W3C//DTD SVG 1.1//EN" "http://www.w3.org/Graphics/SVG/1.1/DTD/svg11.dtd"><svg t="1496309943872" class="icon" style="" viewBox="0 0 1024 1024" version="1.1" xmlns="http://www.w3.org/2000/svg" p-id="9846" xmlns:xlink="http://www.w3.org/1999/xlink" width="200" height="200"><defs><style type="text/css"></style></defs><path d="M512 52.736c-191.6672 0-347.6224 155.9552-347.6224 347.6224 0 76.4928 24.3712 149.0688 70.3744 209.6896l261.8368 353.4592c3.6096 4.8896 9.344 7.7824 15.4368 7.7824 0 0 0 0 0 0 6.0672 0 11.8016-2.8928 15.4368-7.7824L801.024 593.5616c38.3488-57.216 58.5984-124.032 58.5984-193.2032C859.6224 208.6656 703.6672 52.736 512 52.736zM769.6384 571.4432 512 919.808l-246.528-332.7744c-41.0112-54.0672-62.6944-118.6304-62.6944-186.6752C202.7776 229.8624 341.4784 91.136 512 91.136s309.2224 138.7264 309.2224 309.2224C821.2224 461.8752 803.2 521.2928 769.6384 571.4432z" p-id="9847" fill="#ffab00"></path><path d="M512 271.3856c-71.1168 0-128.9728 57.856-128.9728 128.9728s57.856 128.9728 128.9728 128.9728 128.9728-57.856 128.9728-128.9728S583.1168 271.3856 512 271.3856zM512 490.9312c-49.9456 0-90.5728-40.6272-90.5728-90.5728s40.6272-90.5728 90.5728-90.5728 90.5728 40.6272 90.5728 90.5728S561.9456 490.9312 512 490.9312z" p-id="9848" fill="#ffab00"></path></svg>