<?xml version="1.0" standalone="no"?><!DOCTYPE svg PUBLIC "-//W3C//DTD SVG 1.1//EN" "http://www.w3.org/Graphics/SVG/1.1/DTD/svg11.dtd"><svg class="icon" width="200px" height="200.00px" viewBox="0 0 1024 1024" version="1.1" xmlns="http://www.w3.org/2000/svg"><path fill="#999999" d="M845.050613 649.76939c7.39105 2.698492 14.724301 5.559544 22.180375 8.055739 16.552195 5.545094 18.560711 8.167724 18.874993 25.789201 0.046962 2.442009 0.007225 4.884017 0.007225 8.171337-10.616958 0-20.587289-0.039737-30.557621 0.010837-8.507294 0.043349-14.124636 4.407175-14.417244 11.0649-0.307057 6.917821 5.610118 12.166694 14.186048 12.275067 9.966719 0.130048 19.933438 0.0289 30.76353 0.0289 0 13.644182 0.007225 26.370804-0.003612 39.101039-0.007225 6.527677 0.158947 13.058967-0.126435 19.572194-0.202297 4.544448 1.278803 7.315189 4.855118 10.580834 3.605214 3.294544 5.248874 8.958849 7.120117 13.832029 0.838086 2.185526-0.01445 4.974328 0.169785 7.470524 1.46665 20.153797-8.084638 24.474274-23.256882 25.951761-5.942462 0.57799-11.856025 1.354665-18.481238 2.120502 2.561219-38.371326-8.875762-70.69543-37.869197-95.657383-21.215854-18.264491-46.10917-26.663412-74.127247-25.74224-20.85461 0.682751-39.794627 7.279064-56.90675 18.961692-17.404731 11.877699-30.109678 27.707407-38.262953 47.210964-7.994327 19.124252-10.425499 38.942092-7.152629 59.8834-86.759946 0-172.739605 0-259.506775 0 5.064639-42.1391-7.932916-77.313418-41.192641-103.713122-23.014848-18.268104-49.895006-24.954728-79.058226-21.721595-52.185293 5.783515-105.483217 57.137946-92.659058 130.521031-11.169661-1.820669-21.909442-3.388468-32.558912-5.462008-2.225262-0.433493-4.399951-2.431171-6.079735-4.204879-7.893179-8.333897-6.524065-33.928026 1.60031-41.958478 2.333636-2.304736 4.067606-6.108634 4.385501-9.388729 1.123469-11.476718 1.650885-23.014848 2.098827-34.542141 0.216746-5.527032 1.697846-8.554255 8.113538-9.031097 7.943753-0.588828 15.779133-2.633468 23.643413-4.150692 7.575284-1.459425 12.27868-7.369375 10.970977-13.593608-1.394401-6.592701-7.488586-10.288226-14.962722-8.994973-8.1316 1.408851-16.255975 2.882726-24.369513 4.327702-1.954329-7.651146 0.419043-12.780809 8.348346-17.964659 22.812552-14.919373 47.713093-25.612192 73.766003-32.804558 29.354679-8.106313 59.316247-13.976526 88.970758-21.006332 3.211458-0.758612 6.603538-2.19275 9.106959-4.277128 33.440347-27.884416 69.557512-51.563953 108.65855-70.789353 34.206184-16.815903 70.926626-22.216499 108.318981-24.607934 40.19922-2.568444 80.188919-0.126435 119.987159 5.931625 18.611285 2.832152 35.763145 9.833059 51.592853 19.561357 24.524848 15.071095 48.973835 30.366162 72.530549 46.882232 12.983105 9.099734 25.677216 12.965043 41.055368 8.803514 6.968395-1.885693 14.319708-2.344473 21.494012-3.467941 9.280356-1.4522 15.576837 1.972392 16.982075 9.255069 1.517224 7.889567-3.059736 13.579158-12.455689 15.461239-1.838731 0.368469-3.6883 0.668301-5.527032 0.997033C845.213173 648.934916 845.130087 649.350347 845.050613 649.76939zM591.146731 582.92482c-89.310328-10.046193-164.817526 19.716692-232.579655 77.515714 75.846768 17.191597 150.985497 8.127988 226.629968 4.179592C587.216397 636.894657 589.177951 609.9567 591.146731 582.92482zM616.220669 585.099508c-1.892918 25.688053-3.778611 51.264121-5.682366 77.129183 34.92506-2.94775 68.907273-5.816027 104.005729-8.781839C689.639878 617.67287 659.407377 592.627831 616.220669 585.099508zM573.474679 715.07506c0 0.021675 0 0.039737 0 0.065024 4.75397 0 9.511552 0.003612 14.269134-0.003612 0.498517 0 1.000646-0.032512 1.49555-0.111986 6.831122-1.076507 11.942723-6.766098 11.411695-12.690498-0.527416-5.967749-5.624567-10.403824-12.56045-10.519422-9.511552-0.158947-19.033941-0.260096-28.538268-0.01445-7.300739 0.187847-12.238943 5.039352-12.41234 11.473106-0.169785 6.332605 4.775644 11.328608 12.065546 11.751264C563.95229 715.302644 568.717097 715.07506 573.474679 715.07506zM311.027379 125.868209c46.697998 0 93.395996 0.075861 140.086769-0.032512 22.310423-0.054187 44.812305 20.446404 45.061563 43.970607 0.285383 27.042718-0.007225 54.09266 0.083086 81.138991 0.122823 36.073815 0.437105 72.14763 0.549091 108.221445 0.093923 30.059104 0.845311 60.147108-0.223971 90.170088-0.989808 27.77243-26.461115 46.871395-49.035246 45.903261-17.014587-0.729713-34.083361-0.332344-51.119623-0.382919-13.767005-0.043349-27.530397-0.057799-41.301014 0.003612-17.28552 0.079474-34.574653 0.270933-51.867398 0.372081-11.270809 0.068636-22.545231 0.086699-33.819653 0.090311-29.560588 0.010837-59.117563 0.252871-88.674538-0.115598-12.275067-0.151722-24.243078-0.747775-34.968409-9.475427-13.380474-10.887891-19.66973-24.730757-19.745591-40.900034-0.404593-89.62461-0.549091-179.256444 0.050574-268.877442 0.155335-23.134059 10.327963-42.092138 36.767403-48.962997 2.846602-0.74055 5.877438-1.076507 8.825188-1.080119C218.137125 125.846535 264.582252 125.868209 311.027379 125.868209zM177.208191 163.939703c-7.047868 0.075861-11.884924 4.992391-11.978847 11.754876-0.256483 18.033295-0.072249 248.636946-0.126435 266.670241-0.079474 26.031235 0-26.031235 0 0 0.122823 0 0.003612-134.480264 0.126435-134.483876 0 8.268873-0.155335 126.211391-0.126435 134.483876 0.0289 8.261648 0.003612-8.26526 0 0-0.003612 11.769326 0.075861-11.769326 0 0-0.108373 16.530521-0.863373-16.479946 0 0 0.581603 11.054063 5.653467 15.020521 16.389635 14.890473 22.523557-0.278158 45.057951-0.462392 67.588732-0.531029 29.289655-0.086699 58.590147-0.036124 87.883414-0.01445 11.516455 0.007225 23.036523 0.090311 34.552978 0.151722 24.037169 0.130048 48.085175 0.632177 72.115118 0.220359 9.269518-0.158947 14.084899-4.125405 13.792292-14.522004-0.689976-24.774106-0.021675-49.573499 0-74.362055 0.032512-35.810107-0.11921-71.616602 0-107.426709 0.090311-27.288364-0.093923-54.573115 0-81.861478 0.039737-11.003489-3.269257-14.695402-14.283584-15.540712-1.49555-0.115598-3.009162-0.046962-4.515549-0.0289M748.573207 898.139015c-44.400487-0.003612-78.696982-34.679414-78.646408-79.520618 0.046962-43.103621 34.878098-77.869733 78.035906-77.884183 42.973573-0.01445 78.386312 34.444605 79.654278 75.008682C829.083633 863.008047 790.351063 899.352795 748.573207 898.139015zM778.386665 819.79244c0.263708-15.659923-13.748943-29.907382-29.582262-30.084391-15.677985-0.173397-29.921832 14.001813-29.903769 29.748435 0.018062 15.450401 13.59722 29.300492 29.170444 29.766497C763.431168 849.68176 778.126569 835.416238 778.386665 819.79244zM196.982682 818.921842c-0.061411-42.037952 34.787787-77.136408 75.427725-78.3538 46.101946-1.387177 82.201048 36.048528 81.959014 77.920308-0.252871 44.465511-34.33262 79.625379-77.783035 79.647053C231.188866 898.164302 197.044094 864.192927 196.982682 818.921842zM275.101674 789.79836c-15.649085 0.234809-29.184894 13.987364-29.137932 29.607549 0.046962 15.930856 14.182435 30.041042 29.802621 29.748435 16.205401-0.307057 29.596712-13.918727 29.535301-30.019367C305.236639 803.388355 291.000018 789.556326 275.101674 789.79836zM227.023724 421.694446c0-73.596218 0-146.296552 0-219.600162 2.402272-0.223971 4.540836-0.59244 6.683012-0.596052 29.603937-0.021675 59.229549-0.650239 88.811811 0.198684 30.705731 0.881435 57.134334 11.816288 70.457009 41.387713 20.637864 45.809338 0.834473 101.303625-60.197682 110.836851-15.714109 2.456458-31.984534 1.354665-48.005701 1.856794-2.712942 0.083086-5.433108 0.010837-9.04916 0.010837 0 22.227337 0 43.883908 0 65.905336C259.116632 421.694446 243.435034 421.694446 227.023724 421.694446zM275.997559 312.967259c13.048129 0 25.301522 0.072249 37.554915-0.054187 2.980262-0.0289 5.974974-0.59244 8.933561-1.101794 16.718367-2.882726 27.754368-15.06387 28.234823-31.088649 0.552703-18.250041-8.846863-31.879774-26.58755-34.469892-15.692435-2.286674-31.789463-1.770095-48.132136-2.510645C275.997559 267.540839 275.997559 289.750114 275.997559 312.967259z" /></svg>