<?xml version="1.0" standalone="no"?><!DOCTYPE svg PUBLIC "-//W3C//DTD SVG 1.1//EN" "http://www.w3.org/Graphics/SVG/1.1/DTD/svg11.dtd"><svg t="1497249981880" class="icon" style="" viewBox="0 0 1024 1024" version="1.1" xmlns="http://www.w3.org/2000/svg" p-id="5707" xmlns:xlink="http://www.w3.org/1999/xlink" width="200" height="200"><defs><style type="text/css"></style></defs><path d="M512 0c281.6 0 512 230.4 512 512s-230.4 512-512 512S0 793.6 0 512 230.4 0 512 0z m0 36.565333A474.453333 474.453333 0 0 0 36.565333 512 474.453333 474.453333 0 0 0 512 987.434667 474.453333 474.453333 0 0 0 987.434667 512 474.453333 474.453333 0 0 0 512 36.565333z m-43.904 515.669334c40.234667 40.234667 113.408 80.469333 128 58.496 25.6-25.6 29.269333-58.496 87.808-10.965334 58.496 43.904 14.592 76.8-11.008 102.4-29.226667 29.269333-138.965333 3.669333-248.661333-106.069333C318.165333 486.4 288.853333 376.746667 318.165333 347.434667c25.6-25.6 54.869333-69.504 102.4-10.965334 47.530667 58.496 14.634667 58.496-10.965333 84.096-18.304 21.930667 18.304 91.434667 58.496 131.669334z" fill="#ff9a00" p-id="5708"></path></svg>