<?xml version="1.0" standalone="no"?><!DOCTYPE svg PUBLIC "-//W3C//DTD SVG 1.1//EN" "http://www.w3.org/Graphics/SVG/1.1/DTD/svg11.dtd"><svg class="icon" width="200px" height="200.00px" viewBox="0 0 1024 1024" version="1.1" xmlns="http://www.w3.org/2000/svg"><path fill="#999999" d="M433.92 570.24l166.4 0c17.92 0 32-14.08 32-32l0-12.8c0-17.92-14.08-32-32-32l-166.4 0c-17.92 0-32 14.08-32 32l0 12.8C401.92 556.16 416 570.24 433.92 570.24zM805.76 454.4c1.28-12.16-2.56-24.32-10.88-33.28-8.96-9.6-21.76-15.36-35.2-15.36l-17.92 0 0-100.48c0-26.24-21.76-48-48-48l-355.84 0c-26.24 0-48 21.76-48 48l0 100.48-15.36 0c-26.24 0-48 21.76-48 48l0 210.56c0 0.64 0 1.28 0 1.92l0 1.28c0 21.12 13.44 38.4 32 45.44l0 12.8c0 12.16 10.24 22.4 22.4 22.4l42.88 0c12.16 0 22.4-10.24 22.4-22.4l0-9.6 336.64 0 0 10.88c0 12.16 10.24 22.4 22.4 22.4l42.88 0c12.16 0 22.4-10.24 22.4-22.4l0-12.8c12.16-3.84 23.04-12.16 28.8-23.68 5.12-8.32 7.04-17.28 6.4-26.88L805.76 454.4zM337.92 289.28l355.84 0c8.96 0 16 7.04 16 16l0 100.48-12.8 0c-26.24 0-48 21.76-48 48l0 133.12-263.68 0L385.28 455.04c0 0 0 0 0 0l0-1.92c0-26.24-21.76-48-48-48l-15.36 0 0-100.48C321.92 296.32 329.6 289.28 337.92 289.28zM773.76 666.24c0.64 2.56 0 5.12-1.92 7.68l-0.64 1.28c-2.56 5.76-8.32 8.96-14.08 8.96L275.2 684.16c-8.96 0-16-7.04-16-16l0-4.48L259.2 453.12c0-8.96 7.04-16 16-16l15.36 0 0 0 48 0c8.32 0 16 8.32 16 17.28l0 163.2 0 0 0 0.64 327.68 0 0.64-164.48c0-8.96 7.04-16 15.36-16l32.64-0.64 29.44 0c4.48 0 8.32 1.92 10.88 5.12 1.92 1.92 3.2 5.12 3.2 8.96l0 212.48L773.76 666.24z" /></svg>