<?xml version="1.0" standalone="no"?><!DOCTYPE svg PUBLIC "-//W3C//DTD SVG 1.1//EN" "http://www.w3.org/Graphics/SVG/1.1/DTD/svg11.dtd"><svg class="icon" width="200px" height="200.00px" viewBox="0 0 1024 1024" version="1.1" xmlns="http://www.w3.org/2000/svg"><path fill="#999999" d="M716.559421 603.452875c-50.847062-50.851155-118.345362-78.872349-190.124152-78.872349-71.77265 0-139.269927 28.021194-190.092429 78.872349l1.604544 1.602498c-8.083096 12.229532-7.284917 28.742625 2.925632 40.125883 11.104919 12.481266 29.437449 14.56574 42.871413 5.618974l2.137687 2.13564c75.192539-75.139328 205.943442-75.139328 281.077653 0l1.848091-1.843998c12.152784 7.78122 28.418236 6.890944 39.712467-3.175319 12.31242-10.979052 14.509459-28.977985 5.931083-42.360783L716.559421 603.452875zM527.348058 691.871647c-34.06177 0-61.739133 27.64871-61.739133 61.740156 0 33.978882 27.677363 61.680804 61.739133 61.680804 34.089399 0 61.679781-27.701922 61.679781-61.680804C589.028862 719.519334 561.438481 691.871647 527.348058 691.871647zM964.201567 350.762759c-0.391926-0.438998-0.792039-0.864694-1.202385-1.278109l1.315972-1.318018C723.341894 107.222023 331.353199 107.194394 90.377892 348.025415l1.388627 1.388627c-12.31242 12.289907-13.011338 32.162514-1.274016 45.302789 12.143575 13.650905 33.008788 14.849196 46.63411 2.705622 0.469698-0.417509 0.921999-0.848321 1.362021-1.286296l1.429559 1.429559c213.582423-213.610052 561.191352-213.465766 774.917038 0.143263l1.487887-1.489934c12.300141 12.214183 32.094976 12.882402 45.198411 1.203408C975.203132 385.2799 976.402447 364.416733 964.201567 350.762759zM833.859987 478.540957l1.387603-1.38965c-82.316797-82.319867-191.661158-127.670751-307.930231-127.69838 0 0-0.029676 0-0.056282 0-116.241444 0-225.581712 45.322232-307.872926 127.640052l1.413186 1.413186c-12.338003 12.292977-13.037944 32.165584-1.299599 45.333488 12.172227 13.623275 33.036417 14.81952 46.63411 2.679016 0.475837-0.421602 0.932232-0.857531 1.37737-1.300622l1.414209 1.414209c69.066005-69.094658 160.792103-107.11867 258.33365-107.11867 0.027629 0 0.056282 0 0.056282 0 97.571223 0 189.29732 38.080294 258.449283 107.174951l1.39272-1.393743c12.346189 12.231579 32.1707 12.914124 45.239344 1.222851 13.681604-12.144598 14.879895-33.009811 2.735297-46.633087C834.719564 479.422024 834.292845 478.975862 833.859987 478.540957z" /></svg>