<?xml version="1.0" standalone="no"?><!DOCTYPE svg PUBLIC "-//W3C//DTD SVG 1.1//EN" "http://www.w3.org/Graphics/SVG/1.1/DTD/svg11.dtd"><svg t="1512625574722" class="icon" style="" viewBox="0 0 1024 1024" version="1.1" xmlns="http://www.w3.org/2000/svg" p-id="5379" xmlns:xlink="http://www.w3.org/1999/xlink" width="300" height="300"><defs><style type="text/css"></style></defs><path d="M511.5 98.9c-229 0-414.6 185.8-414.6 415s185.6 415 414.6 415c229 0 414.6-185.8 414.6-415 0.1-229.2-185.6-415-414.6-415z m0.2 767.7c-194.6 0-352.3-157.9-352.3-352.6 0-194.7 157.8-352.6 352.3-352.6C706.3 161.4 864 319.3 864 514c0 194.7-157.8 352.6-352.3 352.6z" p-id="5380" fill="#ff4c48"></path><path d="M119.5 304.4c-13.8-17.8-22-40.1-22-64.4 0-58.1 47.1-105.2 105.1-105.2 18.3 0 35.6 4.7 50.6 13 0 0-41.9 31.3-77.9 73.4-29.5 34.8-55.8 83.2-55.8 83.2zM905 304.4c13.8-17.8 22-40.1 22-64.4 0-58.1-47.1-105.2-105.1-105.2-18.3 0-35.6 4.7-50.6 13 0 0 52 48.2 74 73.9 24.9 29.3 59.7 82.7 59.7 82.7z" p-id="5381" fill="#ff4c48"></path><path d="M674.1 540.4l-162.4 1.4c-16.5 0-29.9-13.5-29.9-30l0.3-240.8c0-16.6 13.4-30 30-30s30 13.5 30 30l-0.3 210.9 132.4-1.5c16.6 0 30 13.5 29.9 30.1 0 16.5-13.4 29.9-30 29.9z" p-id="5382" fill="#ff4c48"></path></svg>