<?xml version="1.0" standalone="no"?><!DOCTYPE svg PUBLIC "-//W3C//DTD SVG 1.1//EN" "http://www.w3.org/Graphics/SVG/1.1/DTD/svg11.dtd"><svg t="1504271131393" class="icon" style="" viewBox="0 0 1024 1024" version="1.1" xmlns="http://www.w3.org/2000/svg" p-id="3203" xmlns:xlink="http://www.w3.org/1999/xlink" width="112" height="112"><defs><style type="text/css"></style></defs><path d="M870.4 955.733H597.333c-37.7 0-68.266-30.566-68.266-68.266V614.4c0-37.7 30.566-68.267 68.266-68.267H870.4c37.7 0 68.267 30.567 68.267 68.267v273.067c0 37.7-30.567 68.266-68.267 68.266zM904.533 614.4c0-18.859-15.274-34.133-34.133-34.133H597.333c-18.858 0-34.133 15.274-34.133 34.133v273.067c0 18.858 15.275 34.133 34.133 34.133H870.4c18.859 0 34.133-15.275 34.133-34.133V614.4zM870.4 494.933H597.333c-37.7 0-68.266-30.566-68.266-68.266V153.6c0-37.7 30.566-68.267 68.266-68.267H870.4c37.7 0 68.267 30.567 68.267 68.267v273.067c0 37.7-30.567 68.266-68.267 68.266zM904.533 153.6c0-18.859-15.274-34.133-34.133-34.133H597.333c-18.858 0-34.133 15.274-34.133 34.133v273.067c0 18.858 15.275 34.133 34.133 34.133H870.4c18.859 0 34.133-15.275 34.133-34.133V153.6zM409.6 955.733H136.533c-37.7 0-68.266-30.566-68.266-68.266V614.4c0-37.7 30.566-68.267 68.266-68.267H409.6c37.7 0 68.267 30.567 68.267 68.267v273.067c0 37.7-30.567 68.266-68.267 68.266zM443.733 614.4c0-18.859-15.274-34.133-34.133-34.133H136.533c-18.858 0-34.133 15.274-34.133 34.133v273.067c0 18.858 15.275 34.133 34.133 34.133H409.6c18.859 0 34.133-15.275 34.133-34.133V614.4zM409.6 494.933H136.533c-37.7 0-68.266-30.566-68.266-68.266V153.6c0-37.7 30.566-68.267 68.266-68.267H409.6c37.7 0 68.267 30.567 68.267 68.267v273.067c0 37.7-30.567 68.266-68.267 68.266zM443.733 153.6c0-18.859-15.274-34.133-34.133-34.133H136.533c-18.858 0-34.133 15.274-34.133 34.133v273.067c0 18.858 15.275 34.133 34.133 34.133H409.6c18.859 0 34.133-15.275 34.133-34.133V153.6z" p-id="3204" fill="#999999"></path></svg>