<?xml version="1.0" standalone="no"?><!DOCTYPE svg PUBLIC "-//W3C//DTD SVG 1.1//EN" "http://www.w3.org/Graphics/SVG/1.1/DTD/svg11.dtd"><svg t="1505893302452" class="icon" style="" viewBox="0 0 1024 1024" version="1.1" xmlns="http://www.w3.org/2000/svg" p-id="2623" xmlns:xlink="http://www.w3.org/1999/xlink" width="238" height="238"><defs><style type="text/css"></style></defs><path d="M736.01219 64c-76.921905 0-138.556952 27.648-192.950857 82.017524-0.048762 0.024381-0.073143 0.048762-0.097524 0.097524-0.024381 0.024381-0.024381 0.024381-0.048762 0.024381L512 185.027048l-30.939429-36.571429c0-0.024381-0.024381-0.048762-0.073143-0.121905 0 0 0 0-0.024381 0l0 0c-54.369524-54.369524-116.053333-84.333714-192.975238-84.333714-76.946286 0-149.26019 29.96419-203.678476 84.333714C29.96419 202.752 0 275.065905 0 352.01219c0 76.873143 29.93981 149.187048 84.260571 203.53219l382.317714 385.511619c12.01981 12.141714 28.379429 18.944 45.446095 18.944s33.450667-6.802286 45.470476-18.944l382.244571-385.511619C994.06019 501.223619 1024 428.909714 1024 352.01219c0-76.921905-29.96419-149.26019-84.358095-203.678476C885.296762 93.96419 812.934095 64 736.01219 64L736.01219 64z" p-id="2624" fill="#ffffff"></path></svg>