<?xml version="1.0" standalone="no"?><!DOCTYPE svg PUBLIC "-//W3C//DTD SVG 1.1//EN" "http://www.w3.org/Graphics/SVG/1.1/DTD/svg11.dtd"><svg t="1510208850292" class="icon" style="" viewBox="0 0 1200 1024" version="1.1" xmlns="http://www.w3.org/2000/svg" p-id="2843" xmlns:xlink="http://www.w3.org/1999/xlink" width="351.5625" height="300"><defs><style type="text/css"></style></defs><path d="M1077.009655 372.347586C1024.29131 158.472828 831.390897 0 601.555862 0 371.720828 0 178.820414 158.296276 126.278621 371.994483c0 0-131.848828 20.762483-126.022621 153.494069 5.861517 132.590345 145.019586 140.747034 145.019586 140.747034 1.588966 4.237241 30.861241-4.096 41.313104-5.861517a447.170207 447.170207 0 0 1-33.686069-170.725517c0-247.737379 200.915862-448.653241 448.794482-448.653242 247.77269 0 448.688552 200.915862 448.688552 448.653242 0 197.737931-127.96469 365.60331-305.434483 425.419034-11.369931 3.884138-23.410759-1.235862-23.410758-1.235862s-30.190345-5.684966-67.795862 4.943448c-18.643862 5.331862-26.624 25.211586-25.423449 42.443035 1.412414 20.762483 9.25131 35.486897 30.896552 38.841379 27.895172 4.449103 67.442759 9.25131 82.379035-20.409379 4.06069-7.980138 8.474483-23.057655 17.902344-26.270897a492.226207 492.226207 0 0 0 298.725518-287.320276s138.20469-16.136828 142.300689-143.748413c4.237241-127.435034-123.515586-149.963034-123.515586-149.963035M601.555862 807.159172a317.510621 317.510621 0 1 1 0-635.021241 317.510621 317.510621 0 0 1 0 635.021241m373.583448-317.687172c0-206.212414-167.194483-373.583448-373.583448-373.583448-206.424276 0-373.583448 167.194483-373.583448 373.583448 0 101.164138 40.112552 192.54731 105.224827 259.813517 29.66069 26.624 61.934345 50.070069 97.456552 68.678621 19.350069 9.957517 40.606897 20.056276 62.993655 29.307586 34.251034 10.27531 70.444138 15.783724 107.908414 15.783724 206.212414 0 373.583448-167.159172 373.583448-373.583448m-577.147586 75.422897s0 184.955586 203.564138 184.955586 203.564138-184.955586 203.564138-184.955586-195.584 178.740966-407.128276 0" fill="#999999" p-id="2844"></path></svg>