<?xml version="1.0" standalone="no"?><!DOCTYPE svg PUBLIC "-//W3C//DTD SVG 1.1//EN" "http://www.w3.org/Graphics/SVG/1.1/DTD/svg11.dtd"><svg t="1504843173649" class="icon" style="" viewBox="0 0 1024 1024" version="1.1" xmlns="http://www.w3.org/2000/svg" p-id="5721" xmlns:xlink="http://www.w3.org/1999/xlink" width="112" height="112"><defs><style type="text/css"></style></defs><path d="M373.310621 556.090747c0 0 0 126.738092 139.509205 126.738092 139.509205 0 139.509205-126.738092 139.509205-126.738092S518.293161 678.571802 373.310621 556.090747L373.310621 556.090747zM768.850234 504.398147c0-141.33365-114.575128-256.030407-256.030407-256.030407-141.45528 0-256.030407 114.575128-256.030407 256.030407 0 69.328899 27.4883 131.968167 72.126381 178.065804 20.312151 18.244447 42.448747 34.299561 66.774676 47.070673 13.257632 6.81126 27.853189 13.74415 43.178525 20.068892 23.474522 7.05452 48.28697 10.825039 73.950826 10.825039C654.153476 760.428554 768.850234 645.853427 768.850234 504.398147L768.850234 504.398147zM512.819826 722.115216c-120.170091 0-217.595439-97.425347-217.595439-217.595439 0-120.170091 97.425347-217.595439 217.595439-217.595439 120.170091 0 217.595439 97.425347 217.595439 217.595439C730.415265 624.568239 632.989918 722.115216 512.819826 722.115216L512.819826 722.115216zM838.665651 424.12258C802.541646 277.558855 670.33022 168.94358 512.819826 168.94358c-157.510393 0-289.72182 108.493645-325.724195 254.935741 0 0-90.370828 14.230669-86.35705 105.209645 4.013778 90.857346 99.371422 96.45231 99.371422 96.45231 1.094667 2.919112 21.163559-2.797482 28.339708-4.013778-14.838817-36.002376-23.109633-75.532011-23.109633-117.007721 0-169.794988 137.684761-307.479748 307.601378-307.479748 169.794988 0 307.479748 137.684761 307.479748 307.479748 0 135.495427-87.694976 250.557073-209.324623 291.546264-7.784297 2.675852-16.055113-0.851408-16.055113-0.851408s-20.67704-3.892149-46.462525 3.40563c-12.771113 3.648889-18.244447 17.27141-17.39304 29.069486 0.973037 14.230669 6.324742 24.325929 21.163559 26.636893 19.095855 3.040741 46.219266 6.324742 56.436156-13.987409 2.797482-5.473334 5.838223-15.811854 12.284594-18.001188C714.84667 790.227818 790.135422 717.614919 825.772909 625.419646c0 0 94.749495-11.068298 97.546977-98.520014C926.238997 439.569545 838.665651 424.12258 838.665651 424.12258L838.665651 424.12258zM838.665651 424.12258" p-id="5722" fill="#ffffff"></path></svg>