<?xml version="1.0" standalone="no"?><!DOCTYPE svg PUBLIC "-//W3C//DTD SVG 1.1//EN" "http://www.w3.org/Graphics/SVG/1.1/DTD/svg11.dtd"><svg t="1505879510751" class="icon" style="" viewBox="0 0 1024 1024" version="1.1" xmlns="http://www.w3.org/2000/svg" p-id="2454" xmlns:xlink="http://www.w3.org/1999/xlink" width="238" height="238"><defs><style type="text/css"></style></defs><path d="M515.419658 357.260925c-1.837846 0-3.681773-0.166635-5.520835-0.498688L163.758629 294.496849C149.03032 291.817316 138.150419 278.932934 138.150419 263.866491v-93.399299c0-51.384271 41.843528-93.394434 93.399299-93.394434h560.044281c51.384271 0 93.399299 41.843528 93.399299 93.394434v93.399299c0 15.066443-10.713267 27.950825-25.442791 30.630358l-338.438514 62.265388c-2.009346 0.332053-3.848408 0.498687-5.692335 0.498688zM200.247956 237.925012l315.006284 56.571837 307.308252-56.571837v-67.45782c0-17.070924-13.892703-31.130262-31.135127-31.130262H231.378218c-17.070924 0-31.130262 13.892703-31.130262 31.130262v67.45782z m0 0" fill="#adadad" p-id="2455"></path><path d="M791.593999 948.445198H231.378218c-51.384271 0-93.394434-41.848393-93.394434-93.399299v-466.649847c0-17.242424 13.892703-31.135127 31.130262-31.135127 17.242424 0 31.133911 13.892703 31.13391 31.135127V855.212534c0 17.241207 13.892703 31.133911 31.130262 31.13391h560.215781c17.242424 0 31.135127-13.892703 31.135127-31.13391V388.396052c0-17.242424 13.892703-31.135127 31.129045-31.135127 17.242424 0 31.135127 13.892703 31.135127 31.135127V855.212534c-0.166635 51.384271-42.015028 93.232665-93.399299 93.232664z m0 0" fill="#adadad" p-id="2456"></path></svg>