<?xml version="1.0" standalone="no"?><!DOCTYPE svg PUBLIC "-//W3C//DTD SVG 1.1//EN" "http://www.w3.org/Graphics/SVG/1.1/DTD/svg11.dtd"><svg t="1506326974039" class="icon" style="" viewBox="0 0 1024 1024" version="1.1" xmlns="http://www.w3.org/2000/svg" p-id="3258" xmlns:xlink="http://www.w3.org/1999/xlink" width="238" height="238"><defs><style type="text/css"></style></defs><path d="M882.688 281.7536c-10.5984 0-19.2 8.6016-19.2 19.2l0 631.424L170.5472 932.3776 170.5472 300.9536c0-10.5984-8.6016-19.2-19.2-19.2s-19.2 8.6016-19.2 19.2l0 650.624c0 10.5984 8.6016 19.2 19.2 19.2L882.688 970.7776c10.5984 0 19.2-8.6016 19.2-19.2L901.888 300.9536C901.888 290.3552 893.2864 281.7536 882.688 281.7536z" p-id="3259" fill="#666666"></path><path d="M958.0032 139.8272l-255.7184 0-81.664-81.6896c-3.6096-3.6096-8.4736-5.632-13.568-5.632l-169.728 0c-4.8384 0-9.5232 1.8432-13.0816 5.1456l-88.4224 82.176L65.9968 139.8272c-10.5984 0-19.2 8.6016-19.2 19.2s8.6016 19.2 19.2 19.2l277.376 0c4.8384 0 9.5232-1.8432 13.0816-5.1456l88.4224-82.176 154.2144 0 81.664 81.6896c3.6096 3.6096 8.4736 5.632 13.568 5.632l263.68 0c10.5984 0 19.2-8.6016 19.2-19.2S968.6016 139.8272 958.0032 139.8272z" p-id="3260" fill="#666666"></path><path d="M364.2624 809.6256 364.2624 316.032c0-10.5984-8.6016-19.2-19.2-19.2s-19.2 8.6016-19.2 19.2l0 493.6192c0 10.5984 8.6016 19.2 19.2 19.2S364.2624 820.2496 364.2624 809.6256z" p-id="3261" fill="#666666"></path><path d="M534.3744 809.6256 534.3744 316.032c0-10.5984-8.6016-19.2-19.2-19.2s-19.2 8.6016-19.2 19.2l0 493.6192c0 10.5984 8.6016 19.2 19.2 19.2S534.3744 820.2496 534.3744 809.6256z" p-id="3262" fill="#666666"></path><path d="M706.688 809.6256 706.688 316.032c0-10.5984-8.6016-19.2-19.2-19.2s-19.2 8.6016-19.2 19.2l0 493.6192c0 10.5984 8.6016 19.2 19.2 19.2S706.688 820.2496 706.688 809.6256z" p-id="3263" fill="#666666"></path></svg>