<?xml version="1.0" standalone="no"?><!DOCTYPE svg PUBLIC "-//W3C//DTD SVG 1.1//EN" "http://www.w3.org/Graphics/SVG/1.1/DTD/svg11.dtd"><svg t="1512625552884" class="icon" style="" viewBox="0 0 1024 1024" version="1.1" xmlns="http://www.w3.org/2000/svg" p-id="5208" xmlns:xlink="http://www.w3.org/1999/xlink" width="300" height="300"><defs><style type="text/css"></style></defs><path d="M943.529 436.183 601.202 93.855c-22.826-22.826-53.175-35.397-85.456-35.397-32.281 0-62.63 12.571-85.456 35.397L87.963 436.183c-22.827 22.826-35.397 53.175-35.397 85.456 0 32.28 12.571 62.629 35.397 85.455l342.329 342.328c22.826 22.825 53.174 35.396 85.456 35.396 32.28 0 62.629-12.571 85.455-35.396l342.327-342.328c22.826-22.825 35.396-53.174 35.396-85.455S966.355 459.009 943.529 436.183zM908.174 571.738 565.847 914.066c-13.382 13.382-31.175 20.752-50.1 20.752-18.926 0-36.719-7.37-50.101-20.752L123.318 571.738c-13.382-13.382-20.752-31.175-20.752-50.1 0-18.926 7.37-36.718 20.752-50.101L465.646 129.21c13.382-13.382 31.175-20.752 50.101-20.752 18.926 0 36.719 7.37 50.101 20.752l161.198 161.198-268.15 0c-28.23 18.346-28.23 36.692 0 55.005l277.141 0c12.121 0 19.074-8.371 20.916-25.098l151.223 151.223c13.382 13.382 20.752 31.175 20.752 50.1C928.926 540.564 921.556 558.356 908.174 571.738z" p-id="5209" fill="#ff4c48"></path><path d="M488.513 497.735l203.095 0c26.775 2.843 39.469-8.462 38.08-33.849l0-63.467c0-25.387-12.693-38.081-38.08-38.081L490.628 362.338c-25.387 1.421-38.08 13.42-38.08 35.965l0 65.583C451.126 487.885 463.125 499.157 488.513 497.735zM518.131 415.228l148.09 0c4.232 0 6.348 2.116 6.348 6.347l0 16.924c0 5.653-2.115 8.462-6.348 8.462l-148.09 0c-7.074 0-9.885-2.81-8.463-8.462l0-16.924C508.246 417.343 511.057 415.228 518.131 415.228z" p-id="5210" fill="#ff4c48"></path><path d="M695.84 512.545 482.166 512.545c-21.156 1.421-35.271 7.768-42.312 19.04 0-1.389-2.116-4.926-6.347-10.578-12.693-12.694-25.387-26.082-38.08-40.196 5.62-7.041 14.809-23.271 27.502-48.658 5.62-12.693 10.578-22.544 14.809-29.618 12.693-33.849 5.62-52.162-21.156-55.005l-25.387 0c5.62-7.041 6.347-17.619 2.116-31.733-4.231-5.62-11.305-16.198-21.156-31.734-1.421-4.231-2.116-7.041-2.116-8.462-9.883-9.851-22.577-9.851-38.08 0-12.693 8.462-15.536 19.04-8.462 31.734 5.62 14.115 13.388 27.502 23.271 40.196l-55.005 0c-14.115 1.421-21.883 12-23.271 31.733 1.388 19.768 9.156 29.618 23.271 29.618l78.276 0c-18.346 45.154-52.195 96.623-101.547 154.438-9.884 12.693-9.884 25.387 0 38.08 12.693 11.306 25.387 11.999 38.08 2.115 9.851-8.462 18.313-17.618 25.387-27.502l0 169.246c0 15.503 9.156 23.966 27.502 25.387 18.313-1.421 28.197-9.884 29.618-25.387L389.079 559.087c1.388 2.843 3.504 5.652 6.347 8.462 4.231 5.653 7.735 8.463 10.578 8.463 12.694 9.884 23.271 9.189 31.734-2.115L437.738 715.64c-1.421 26.775 11.966 40.196 40.196 40.196l224.251 0c26.775 0 40.195-12.693 40.195-38.081L742.38 554.855C743.77 526.659 728.268 512.545 695.84 512.545zM560.441 705.062l-57.119 0c-5.653 1.422-7.769-0.694-6.347-6.347L496.975 662.75l63.466 0L560.441 705.062zM560.441 609.86l-63.466 0 0-33.849c-1.422-4.231 0.694-6.347 6.347-6.347l57.119 0L560.441 609.86zM685.262 698.715c0 4.231-2.115 6.347-6.348 6.347l-59.236 0L619.678 662.75l65.584 0L685.262 698.715zM685.262 609.86l-65.584 0 0-40.195 59.236 0c4.232 0 6.348 2.115 6.348 6.347L685.262 609.86z" p-id="5211" fill="#ff4c48"></path></svg>