<?xml version="1.0" standalone="no"?><!DOCTYPE svg PUBLIC "-//W3C//DTD SVG 1.1//EN" "http://www.w3.org/Graphics/SVG/1.1/DTD/svg11.dtd"><svg t="1504179484026" class="icon" style="" viewBox="0 0 1024 1024" version="1.1" xmlns="http://www.w3.org/2000/svg" p-id="2298" xmlns:xlink="http://www.w3.org/1999/xlink" width="112" height="112"><defs><style type="text/css"></style></defs><path d="M701.671478 187.590307l-49.199508 21.215093-256.437508-64.056695c1.005464-8.904679 0.042145-18.158562-3.748916-26.948848-11.650138-27.017082-43.120564-39.44791-70.27813-27.737564-27.16158 11.710346-39.748948 43.14264-28.096802 70.157715 1.760064 4.086078 4.094105 7.726621 6.660949 11.112285L160.440769 420.964354l-49.201515 21.215092c-40.760432 17.576557-59.623421 64.700915-42.135169 105.260656l147.767104 342.694691c17.474204 40.517596 64.698908 59.169859 105.45934 41.593301L912.76476 677.132935c40.736349-17.564515 59.615394-64.722991 42.141189-105.244601l-147.76911-342.68867c-17.488252-40.557734-64.727005-59.177886-105.465361-41.609357m-385.670757-2.659161c14.182864 8.268488 31.93603 10.054641 48.218127 3.034454 11.716367-5.051404 20.466514-13.835668 25.981514-24.261589l237.66483 55.709939-442.825673 190.947875 130.961202-225.430679m94.421311 513.495151l-52.723649 22.734327-110.414412-69.65398 42.636897 98.882682-52.603235 22.682147-77.65354-180.088461 52.227941-22.521594 111.114826 70.246019-42.964025-99.635274 52.721643-22.73232 77.657554 180.086454m189.653415-81.779757l-152.605774 65.804718-77.655548-180.086454 149.894433-64.636694 16.575107 38.438433-93.837299 40.463409 12.342524 28.630641 87.043893-37.535321 15.840576 36.736569-87.043893 37.531307 15.31075 35.506331 96.550647-41.633441 17.584584 40.780502m224.820578-96.944002l-54.852986 23.653493-80.635816-99.691468 17.261471 127.015609-54.846964 23.651486-117.926293-162.724637 53.13306-22.908928 62.599675 92.582977-15.479331-112.900979 52.924341-22.820624 71.482279 88.581189-24.273631-108.937323 52.850085-22.79052 37.76411 197.289725m0 0z" fill="#ff4848" p-id="2299"></path></svg>