<?xml version="1.0" standalone="no"?><!DOCTYPE svg PUBLIC "-//W3C//DTD SVG 1.1//EN" "http://www.w3.org/Graphics/SVG/1.1/DTD/svg11.dtd"><svg t="1505821129245" class="icon" style="" viewBox="0 0 1024 1024" version="1.1" xmlns="http://www.w3.org/2000/svg" p-id="2792" xmlns:xlink="http://www.w3.org/1999/xlink" width="238" height="238"><defs><style type="text/css"></style></defs><path d="M790.545629 88.430452C558.514584-55.618091 253.565173 17.108813 109.166217 250.866634c-11.747859 18.965639-21.830353 38.469541-30.536485 58.251605l-22.820179-67.763325c-4.620391-13.72751-19.363014-21.021153-33.032724-16.368249-13.56856 4.754053-20.970578 19.601439-16.281549 33.357849l40.785155 121.640189c0 0 0.10115 0.108375 0.079475 0.1734 2.380639 6.993805 7.279193 12.127171 13.449347 15.158061 6.014817 3.052565 13.095322 3.771453 20.096352 1.398039l0.021675-0.065025 121.213914-41.57268c0.13005 0.046963 0.13005 0.046963 0.151725-0.01445 13.691385-4.714316 21.093403-19.558089 16.436887-33.227799-4.624003-13.734735-19.366627-21.021153-33.036337-16.375474l-65.873986 22.509504c7.799393-16.910125 16.747562-33.47345 26.74697-49.794736 130.787046-211.62763 406.933973-277.512453 617.040739-147.072208 210.027291 130.483596 274.423763 407.797361 143.723418 619.381641-130.649771 211.67098-406.952036 277.584703-616.975714 147.097495C213.769844 850.021873 157.241403 782.832936 121.849714 706.699443l-0.151725 0.0289c-2.113314-5.552417-6.415805-10.187257-12.466747-12.383659-11.010908-4.006265-23.318705 1.770126-27.39722 12.97611-1.398039 3.850928-1.412489 7.831906-0.715276 11.578071 0.700826 1.607564 0.578 2.922515 1.152388 4.479503 0.155338 0.3468 0.343188 0.628575 0.498525 0.968151 38.859691 84.012362 100.712961 158.144528 185.151598 210.554717 231.991307 144.182206 537.020193 71.404727 681.357737-162.378381C1093.594863 538.811995 1022.551386 232.551245 790.545629 88.430452L790.545629 88.430452zM790.545629 88.430452" p-id="2793" fill="#ffab00"></path><path d="M373.883186 577.845086l0 0.133663c-12.398109 0-22.578142 10.180032-22.578142 22.570917 0 12.398109 10.183645 22.578142 22.578142 22.578142l0 0.133663 135.732562 0 0 133.987723 0.065025 0c0 12.398109 10.111395 22.505891 22.578142 22.505891 12.459522 0 22.505891-10.111395 22.505891-22.505891l0.198688 0 0-133.987723 135.667537 0 0-0.267325c12.459522 0 22.505891-10.11862 22.505891-22.570917 0-12.531772-10.04637-22.578142-22.505891-22.578142l-135.667537 0 0-69.677951 135.667537 0 0-0.270938c12.459522 0 22.505891-10.11862 22.505891-22.578142 0-12.463134-10.04637-22.574529-22.505891-22.574529l-135.667537 0 0-41.536555 134.529599-131.979172-0.140888-0.133663c9.313032-8.240119 10.187257-22.509504 1.813476-31.891173-8.240119-9.374444-22.513116-10.180032-31.822536-1.874889l-126.488168 124.739716-133.11711-130.765371c-9.381669-8.247344-23.582417-7.373118-31.887561 2.004939-8.243731 9.248007-7.373118 23.51378 1.939914 31.753898l-0.137275 0.205913 139.951965 136.866888 0 42.609469-135.728949 0 0 0.13005c-12.398109 0-22.513116 10.049982-22.513116 22.509504 0 12.531772 10.11862 22.581754 22.513116 22.581754l0 0.13005 135.732562 0 0 69.750201L373.883186 577.845086 373.883186 577.845086zM373.883186 577.845086" p-id="2794" fill="#ffab00"></path></svg>