<?xml version="1.0" standalone="no"?><!DOCTYPE svg PUBLIC "-//W3C//DTD SVG 1.1//EN" "http://www.w3.org/Graphics/SVG/1.1/DTD/svg11.dtd"><svg t="1504526982505" class="icon" style="" viewBox="0 0 1024 1024" version="1.1" xmlns="http://www.w3.org/2000/svg" p-id="10077" xmlns:xlink="http://www.w3.org/1999/xlink" width="112" height="112"><defs><style type="text/css"></style></defs><path d="M512 0C229.2224 0 0 229.2224 0 512s229.2224 512 512 512 512-229.2224 512-512S794.7776 0 512 0z m141.6192 512l-174.9248 204.672a40.448 40.448 0 0 1-56.8832 4.4544L244.736 569.856a40.448 40.448 0 0 1-4.4544-56.9088 40.448 40.448 0 0 1 56.8832-4.4544l146.4064 125.1072 278.784-326.2464a40.448 40.448 0 0 1 56.9088-4.4544 40.448 40.448 0 0 1 4.4544 56.8832L653.6192 512z" fill="#ffab00" p-id="10078"></path></svg>