<?xml version="1.0" standalone="no"?><!DOCTYPE svg PUBLIC "-//W3C//DTD SVG 1.1//EN" "http://www.w3.org/Graphics/SVG/1.1/DTD/svg11.dtd"><svg t="1504699250112" class="icon" style="" viewBox="0 0 1024 1024" version="1.1" xmlns="http://www.w3.org/2000/svg" p-id="5208" xmlns:xlink="http://www.w3.org/1999/xlink" width="112" height="112"><defs><style type="text/css"></style></defs><path d="M512 0C230.4 0 0 230.4 0 512s230.4 512 512 512 512-230.4 512-512S793.6 0 512 0zM512 950.857143C270.628571 950.857143 73.142857 753.371429 73.142857 512S270.628571 73.142857 512 73.142857s438.857143 197.485714 438.857143 438.857143S753.371429 950.857143 512 950.857143z" p-id="5209" fill="#ffab00"></path><path d="M738.742857 307.2l-303.542857 369.371429-117.028571-117.028571c-14.628571-14.628571-36.571429-14.628571-51.2 0-14.628571 14.628571-14.628571 36.571429 0 51.2l146.285714 146.285714c7.314286 7.314286 14.628571 10.971429 25.6 10.971429l0 0c10.971429 0 18.285714-3.657143 25.6-14.628571l329.142857-402.285714c10.971429-14.628571 10.971429-40.228571-3.657143-51.2C775.314286 288.914286 753.371429 288.914286 738.742857 307.2z" p-id="5210" fill="#ffab00"></path></svg>