<?xml version="1.0" standalone="no"?><!DOCTYPE svg PUBLIC "-//W3C//DTD SVG 1.1//EN" "http://www.w3.org/Graphics/SVG/1.1/DTD/svg11.dtd"><svg t="1499071656000" class="icon" style="" viewBox="0 0 1024 1024" version="1.1" xmlns="http://www.w3.org/2000/svg" p-id="1958" xmlns:xlink="http://www.w3.org/1999/xlink" width="112" height="112"><defs><style type="text/css"></style></defs><path d="M512 435.2c-64 0-121.6-51.2-121.6-121.6C390.4 249.6 448 192 512 192s121.6 51.2 121.6 121.6C633.6 384 576 435.2 512 435.2zM512 256c-32 0-57.6 25.6-57.6 57.6s25.6 57.6 57.6 57.6 57.6-25.6 57.6-57.6S544 256 512 256z" fill="#ffab00" p-id="1959"></path><path d="M512 844.8c-12.8 0-19.2-6.4-25.6-12.8-57.6-76.8-256-332.8-256-505.6C230.4 166.4 358.4 32 512 32c153.6 0 281.6 134.4 281.6 294.4 0 172.8-198.4 435.2-256 505.6-6.4 6.4-19.2 12.8-25.6 12.8zM512 96c-121.6 0-217.6 102.4-217.6 230.4 0 115.2 108.8 294.4 217.6 435.2 108.8-140.8 217.6-320 217.6-435.2 0-128-96-230.4-217.6-230.4z" fill="#ffab00" p-id="1960"></path><path d="M915.2 992H108.8c-12.8 0-19.2-6.4-25.6-12.8s-6.4-19.2 0-25.6L166.4 640c0-19.2 12.8-25.6 25.6-25.6h83.2c19.2 0 32 12.8 32 32s-12.8 32-32 32h-57.6l-64 249.6h716.8l-64-249.6h-57.6c-19.2 0-32-12.8-32-32s12.8-32 32-32H832c12.8 0 25.6 12.8 32 25.6l83.2 313.6c0 6.4 0 19.2-6.4 25.6s-19.2 12.8-25.6 12.8z" fill="#ffab00" p-id="1961"></path></svg>