<?xml version="1.0" standalone="no"?><!DOCTYPE svg PUBLIC "-//W3C//DTD SVG 1.1//EN" "http://www.w3.org/Graphics/SVG/1.1/DTD/svg11.dtd"><svg class="icon" width="200px" height="200.00px" viewBox="0 0 1024 1024" version="1.1" xmlns="http://www.w3.org/2000/svg"><path fill="#ffffff" d="M716.8 358.4H332.8l128 170.6752v264.3712a25.6 25.6 0 0 1-51.2 0.0768v-247.3984L291.84 389.12c-29.6192-39.4752-8.5248-81.92 40.832-81.92h384.256c49.3568 0 70.5536 42.3168 40.832 81.92L640 546.1248V665.6a25.6 25.6 0 0 1-51.1744-0.0512v-136.448L716.8 358.4z m-8.8064-319.5392a25.6 25.6 0 0 1-19.6096 47.2832A459.264 459.264 0 0 0 512 51.2C257.5104 51.2 51.2 257.5104 51.2 512s206.3104 460.8 460.8 460.8 460.8-206.3104 460.8-460.8c0-61.3376-11.9808-120.96-34.944-176.384a25.6 25.6 0 0 1 47.2832-19.6096A510.7968 510.7968 0 0 1 1024 512c0 282.7776-229.2224 512-512 512S0 794.7776 0 512 229.2224 0 512 0c68.096 0 134.4 13.312 195.9936 38.8608z" /></svg>