<?xml version="1.0" standalone="no"?><!DOCTYPE svg PUBLIC "-//W3C//DTD SVG 1.1//EN" "http://www.w3.org/Graphics/SVG/1.1/DTD/svg11.dtd"><svg class="icon" width="200px" height="200.00px" viewBox="0 0 1024 1024" version="1.1" xmlns="http://www.w3.org/2000/svg"><path fill="#ffffff" d="M898.56 268.8c-10.24 0-20.48 10.24-20.48 20.48v668.16H153.6v-668.16c0-10.24-10.24-20.48-20.48-20.48s-20.48 10.24-20.48 20.48v688.64c0 10.24 10.24 20.48 20.48 20.48h762.88c10.24 0 20.48-10.24 20.48-20.48v-688.64c2.56-10.24-5.12-20.48-17.92-20.48M977.92 117.76h-266.24l-84.48-87.04c-2.56-2.56-7.68-5.12-15.36-5.12h-176.64c-5.12 0-10.24 2.56-12.8 5.12l-92.16 87.04h-281.6c-10.24 0-20.48 10.24-20.48 20.48s10.24 20.48 20.48 20.48h289.28c5.12 0 10.24-2.56 12.8-5.12l92.16-87.04h161.28l84.48 87.04c2.56 2.56 7.68 5.12 15.36 5.12h276.48c10.24 0 20.48-10.24 20.48-20.48s-12.8-20.48-23.04-20.48"  /><path fill="#ffffff" d="M358.4 826.88v-522.24c0-10.24-10.24-20.48-20.48-20.48s-20.48 10.24-20.48 20.48v522.24c0 10.24 10.24 20.48 20.48 20.48s20.48-7.68 20.48-20.48M535.04 826.88v-522.24c0-10.24-10.24-20.48-20.48-20.48s-20.48 10.24-20.48 20.48v522.24c0 10.24 10.24 20.48 20.48 20.48 12.8 0 20.48-7.68 20.48-20.48M714.24 826.88v-522.24c0-10.24-10.24-20.48-20.48-20.48s-20.48 10.24-20.48 20.48v522.24c0 10.24 10.24 20.48 20.48 20.48 12.8 0 20.48-7.68 20.48-20.48"  /></svg>