<?xml version="1.0" standalone="no"?><!DOCTYPE svg PUBLIC "-//W3C//DTD SVG 1.1//EN" "http://www.w3.org/Graphics/SVG/1.1/DTD/svg11.dtd"><svg class="icon" width="200px" height="200.00px" viewBox="0 0 1024 1024" version="1.1" xmlns="http://www.w3.org/2000/svg"><path d="M192 0h640a192 192 0 0 1 192 192v640a192 192 0 0 1-192 192H192a192 192 0 0 1-192-192V192a192 192 0 0 1 192-192z" fill="#FF4848" /><path d="M223.168 654.496l-20-60c15.008-9.984 30.016-24.992 44.992-44.992a528 528 0 0 0 49.984-70.016c-43.36 0-75.008 2.496-95.008 7.488l-17.504-57.504c13.312-8.32 25.824-23.328 37.504-44.992 35.008-58.304 63.328-111.616 84.992-160l64.992 20a2677.856 2677.856 0 0 1-107.488 180c30.016 0 53.312-0.8 70.016-2.496 15.008-24.992 29.152-49.984 42.496-75.008l62.496 30.016c-58.368 88.384-106.688 158.368-144.992 209.984 21.632-3.328 62.496-7.488 122.496-12.512a547.04 547.04 0 0 0-2.496 55.008c-53.344 4.992-100.864 9.984-142.496 15.008-18.336 5.024-34.976 8.384-49.984 10.016z m-24.992 130.016l-10.016-62.528c73.312-8.32 149.152-19.136 227.488-32.512a801.44 801.44 0 0 0-2.496 62.496c-8.352 0-20 0.8-35.008 2.496l-179.968 30.048z m237.504-442.496V276.992h337.472v64.992h-135.008v387.488h155.008v57.504H415.68v-57.504h154.976V342.016h-134.976z" fill="#FFFFFF" /></svg>