<?xml version="1.0" standalone="no"?><!DOCTYPE svg PUBLIC "-//W3C//DTD SVG 1.1//EN" "http://www.w3.org/Graphics/SVG/1.1/DTD/svg11.dtd"><svg class="icon" width="200px" height="200.00px" viewBox="0 0 1024 1024" version="1.1" xmlns="http://www.w3.org/2000/svg"><path fill="#ff6e19" d="M475.722 544.586l46.918 0 0 96.307-46.918 0 0-96.307ZM808.977 66.022 215.022 66.022c-82.843 0-150 67.157-150 150l0 591.956c0 82.844 67.157 150 150 150l593.954 0c82.844 0 150-67.156 150-150L958.976 216.022C958.977 133.18 891.82 66.022 808.977 66.022zM688.091 226.034c14.815 14.816 34.571 37.041 59.265 66.673-13.195 9.878-25.542 19.755-37.041 29.633-18.134-26.314-37.04-48.539-56.796-66.673C666.676 244.168 678.213 234.291 688.091 226.034zM273.232 295.177c27.974 44.449 51.857 83.149 71.612 116.062-14.816 8.257-30.481 18.945-46.918 32.102-8.257-21.375-31.292-60.886-69.143-118.531C245.22 313.312 260.036 303.434 273.232 295.177zM213.966 690.28c19.755-24.694 37.427-52.667 53.092-83.959 15.626-31.254 30.019-65.015 43.214-101.246 14.816 11.537 29.633 21.415 44.449 29.632-18.135 32.951-36.231 67.523-54.327 103.715-18.135 36.23-31.292 64.204-39.511 83.96C244.41 707.566 228.783 696.878 213.966 690.28zM431.273 460.626l0-39.51 130.878 0 0 39.51L431.273 460.626zM433.743 507.545 564.62 507.545c-1.658 19.755-2.469 49.388-2.469 88.898 0 37.89 0.811 64.204 2.469 79.021L433.743 675.464c1.621-23.035 2.469-49.388 2.469-79.021C436.212 565.19 435.363 535.558 433.743 507.545zM772.05 771.771c-13.196 18.096-29.633 21.376-49.388 9.878-19.756-11.537-46.108-45.299-79.021-101.246-32.951 42.829-70.803 80.642-113.593 113.593-11.536-16.476-23.884-29.633-37.041-39.511 42.79-19.755 85.58-60.886 128.409-123.47-24.694-64.204-38.7-151.443-41.98-261.756L404.11 369.259l0 143.225c3.28 115.251-18.135 209.899-64.204 283.981-13.196-11.537-29.633-20.604-49.388-27.164 27.974-34.571 46.918-77.786 56.796-129.643 9.877-51.857 14.816-109.04 14.816-171.624 0-62.545-0.849-108.653-2.47-138.286l217.307 0c-1.659-29.633-3.318-63.355-4.939-101.245 18.097 1.659 36.192 2.469 54.327 2.469-3.318 13.196-4.938 46.108-4.938 98.776l51.857 0c27.974 0 59.265-0.81 93.837-2.469l0 44.449c-31.292-1.621-61.735-2.47-91.368-2.47l-51.857 0c-1.659 77.4 7.408 149.013 27.164 214.838 26.314-49.389 46.069-103.715 59.265-162.98 16.438 9.877 33.723 17.286 51.857 22.225-8.257 18.135-21.414 47.768-39.51 88.898-18.135 41.169-35.421 76.551-51.857 106.184 26.314 51.047 46.494 80.68 60.5 88.898 13.968 8.219 25.929-12.347 35.807-61.735 8.218 8.258 22.225 16.476 41.979 24.694C797.554 726.511 785.207 753.636 772.05 771.771z" /></svg>