<?xml version="1.0" standalone="no"?><!DOCTYPE svg PUBLIC "-//W3C//DTD SVG 1.1//EN" "http://www.w3.org/Graphics/SVG/1.1/DTD/svg11.dtd"><svg class="icon" width="200px" height="200.00px" viewBox="0 0 1024 1024" version="1.1" xmlns="http://www.w3.org/2000/svg"><path fill="#ffffff" d="M567.782258 409.728154h97.791976c14.207996 0 25.753594 11.366397 25.753593 25.599993 0 14.131196-11.519997 25.599994-25.779193 25.599994h-127.820768v102.399974h127.820768c14.233596 0 25.779194 11.366397 25.779193 25.599994 0 14.131196-11.519997 25.599994-25.779193 25.599993h-127.820768v153.420762c0 14.233596-11.366397 25.779194-25.599994 25.779194-14.131196 0-25.599994-11.494397-25.599994-25.779194v-153.420762h-127.820768a25.548794 25.548794 0 0 1-25.779193-25.599993c0-14.131196 11.519997-25.599994 25.779193-25.599994h127.820768v-102.399974h-127.820768a25.548794 25.548794 0 0 1-25.779193-25.599994c0-14.131196 11.519997-25.599994 25.779193-25.599993h97.766376l-117.375971-136.959966a25.599994 25.599994 0 0 1 38.860791-33.279992l134.169566 156.467161 134.143966-156.518361a25.599994 25.599994 0 1 1 38.911991 33.331192l-117.427171 136.959966h0.0256z m140.211165-370.867108a25.599994 25.599994 0 0 1-19.609595 47.283188A459.647885 459.647885 0 0 0 511.999872 51.200243C257.510336 51.200243 51.199987 257.510592 51.199987 512.000128s206.310348 460.799885 460.799885 460.799885 460.799885-206.310348 460.799885-460.799885a459.724685 459.724685 0 0 0-34.943991-176.383956 25.599994 25.599994 0 0 1 47.283188-19.609595A510.438272 510.438272 0 0 1 1023.999744 512.000128c0 282.777529-229.222343 511.999872-511.999872 511.999872S0 794.777657 0 512.000128 229.222343 0.000256 511.999872 0.000256a510.796672 510.796672 0 0 1 195.993551 38.86079z" /></svg>