<?xml version="1.0" standalone="no"?><!DOCTYPE svg PUBLIC "-//W3C//DTD SVG 1.1//EN" "http://www.w3.org/Graphics/SVG/1.1/DTD/svg11.dtd"><svg class="icon" width="200px" height="200.00px" viewBox="0 0 1024 1024" version="1.1" xmlns="http://www.w3.org/2000/svg"><path fill="#ffab00" d="M512 64.08c-247.361 0-447.92 200.538-447.92 447.919 0 247.382 200.559 447.921 447.92 447.921 247.362 0 447.919-200.539 447.919-447.921C959.919 264.619 759.363 64.08 512 64.08zM454.915 749.428c-14.404 14.407-38.385 14.397-52.781 0L219.219 566.551c-14.58-14.564-14.58-38.203 0-52.784 14.581-14.58 38.201-14.58 52.783 0l156.523 156.489L779.118 319.625c14.583-14.581 38.203-14.581 52.783 0 14.58 14.58 14.58 38.202 0 52.783C831.901 372.408 454.915 749.428 454.915 749.428z" /></svg>