<?xml version="1.0" standalone="no"?><!DOCTYPE svg PUBLIC "-//W3C//DTD SVG 1.1//EN" "http://www.w3.org/Graphics/SVG/1.1/DTD/svg11.dtd"><svg class="icon" width="200px" height="200.00px" viewBox="0 0 1024 1024" version="1.1" xmlns="http://www.w3.org/2000/svg"><path fill="#ffffff" d="M750.592 559.5392H461.9776V270.9248a29.696 29.696 0 1 1 59.3408 0v229.248h229.248c16.4096 0 29.6704 13.2864 29.6704 29.6704a29.6192 29.6192 0 0 1-29.6448 29.696M706.3808 38.6304a25.1136 25.1136 0 0 1 12.8768 33.7152 25.6 25.6 0 0 1-32.4864 13.4912 457.472 457.472 0 0 0-175.9744-34.944c-253.8496 0-459.8784 206.0288-459.8784 459.8784 0 253.8496 206.0288 459.8784 459.8784 459.8784s459.8784-206.0288 459.8784-459.8784c0-61.312-11.648-120.8064-34.944-175.9744-4.9152-12.8768 1.2288-28.2112 14.72-33.1008a25.5744 25.5744 0 0 1 32.4864 13.4912 510.3616 510.3616 0 0 1 38.6304 195.6096c0 282.0608-228.7104 510.7712-510.7712 510.7712C228.736 1021.568 0.0256 792.8576 0.0256 510.7968 0.0256 228.736 228.736 0.0256 510.7968 0.0256c68.0448-0.0256 134.272 12.8512 195.584 38.6048" /></svg>