<?xml version="1.0" standalone="no"?><!DOCTYPE svg PUBLIC "-//W3C//DTD SVG 1.1//EN" "http://www.w3.org/Graphics/SVG/1.1/DTD/svg11.dtd"><svg class="icon" width="200px" height="200.00px" viewBox="0 0 1024 1024" version="1.1" xmlns="http://www.w3.org/2000/svg"><path fill="#ffab00" d="M537.599866 332.800173a25.599994 25.599994 0 0 0-51.199988 0v204.799949c0 6.783998 2.687999 13.311997 7.500799 18.099195l153.599961 153.599962a25.599994 25.599994 0 0 0 36.198391-36.198391L537.599866 527.001724V332.800173z m170.393557-293.939127A510.796672 510.796672 0 0 0 511.999872 0.000256C229.222343 0.000256 0 229.222599 0 512.000128s229.222343 511.999872 511.999872 511.999872 511.999872-229.222343 511.999872-511.999872c0-68.095983-13.311997-134.399966-38.86079-195.993551a25.599994 25.599994 0 0 0-47.283188 19.609595A459.724685 459.724685 0 0 1 972.799757 512.000128c0 254.489536-206.310348 460.799885-460.799885 460.799885S51.199987 766.489664 51.199987 512.000128 257.510336 51.200243 511.999872 51.200243c61.337585 0 120.95997 11.980797 176.383956 34.943991a25.599994 25.599994 0 0 0 19.609595-47.283188z" /></svg>