<?xml version="1.0" standalone="no"?><!DOCTYPE svg PUBLIC "-//W3C//DTD SVG 1.1//EN" "http://www.w3.org/Graphics/SVG/1.1/DTD/svg11.dtd"><svg class="icon" width="200px" height="149.93px" viewBox="0 0 1366 1024" version="1.1" xmlns="http://www.w3.org/2000/svg"><path fill="#cccccc" d="M928.4544 364.885333 928.4544 364.885333 928.4544 364.885333l-86.926933-86.926933c-7.1552-7.1552-19.389867-2.088533-19.389867 8.029867l0 67.5392c0 6.272-5.083733 11.357867-11.357867 11.357867L477.5168 364.885333c-6.272 0-11.357867 5.083733-11.357867 11.357867l0 30.442667c0 6.272 5.083733 11.357867 11.357867 11.357867l476.674133 0c10.1184 0 15.185067-12.234667 8.032-19.389867L928.4544 364.885333 928.4544 364.885333zM503.1872 589.4272 503.1872 589.4272 503.1872 589.4272l86.926933 86.926933c7.1552 7.1552 19.389867 2.088533 19.389867-8.029867l0-67.5392c0-6.272 5.085867-11.357867 11.357867-11.357867l333.277867 0c6.272 0 11.357867-5.083733 11.357867-11.357867L965.4976 547.626667c0-6.272-5.085867-11.357867-11.357867-11.357867L477.448533 536.2688c-10.120533 0-15.185067 12.234667-8.029867 19.389867L503.1872 589.4272 503.1872 589.4272zM716.996267 429.860267M715.818667 924.9408c-246.907733 0-447.784533-200.872533-447.784533-447.784533 0-246.907733 200.8768-447.784533 447.784533-447.784533s447.7888 200.8768 447.7888 447.784533C1163.607467 724.068267 962.7264 924.9408 715.818667 924.9408zM715.818667 66.1248c-226.6432 0-411.031467 184.386133-411.031467 411.031467 0 226.638933 184.386133 411.031467 411.031467 411.031467s411.0336-184.3904 411.0336-411.031467C1126.852267 250.513067 942.461867 66.1248 715.818667 66.1248z"  /></svg>