<?xml version="1.0" standalone="no"?><!DOCTYPE svg PUBLIC "-//W3C//DTD SVG 1.1//EN" "http://www.w3.org/Graphics/SVG/1.1/DTD/svg11.dtd"><svg class="icon" width="200px" height="200.00px" viewBox="0 0 1024 1024" version="1.1" xmlns="http://www.w3.org/2000/svg"><path fill="#ffab00" d="M513.28 64c246.7328 0 446.72 199.9872 446.72 446.72S760.0128 957.44 513.28 957.44 66.56 757.4528 66.56 510.72 266.5472 64 513.28 64z m383.8976 446.72c0-51.8144-10.0864-102.0928-30.208-149.4016-19.2512-45.7728-47.0016-86.8864-82.2784-122.112a382.6688 382.6688 0 0 0-122.0096-82.2784c-47.3088-20.0192-97.5872-30.1056-149.4016-30.1056h-0.0512c-51.8144 0-102.0416 10.0864-149.4528 30.208a381.52704 381.52704 0 0 0-122.0096 82.2784 384.3328 384.3328 0 0 0-82.2784 122.0096c-20.0192 47.3088-30.1568 97.5872-30.1568 149.4016a380.38528 380.38528 0 0 0 30.2592 149.4528 382.3104 382.3104 0 0 0 82.2784 122.0608 383.488 383.488 0 0 0 122.0096 82.2784c47.3088 20.0192 97.5872 30.1056 149.4016 30.1056s102.0928-10.0864 149.4528-30.208a382.3104 382.3104 0 0 0 122.0608-82.2784 383.488 383.488 0 0 0 82.2784-122.0096c20.0192-47.3088 30.1056-97.5872 30.1056-149.4016zM552.5504 717.4656v0.0512c0 21.7088-17.5616 39.2704-39.2704 39.2704s-39.2704-17.5616-39.2704-39.2704 17.5616-39.2704 39.2192-39.3216c21.7088 0 39.3216 17.5616 39.3216 39.2704zM548.1984 265.5744v321.9968c0 19.2512-15.616 34.8672-34.9184 34.8672v-0.0512a34.8416 34.8416 0 0 1-34.9184-34.816V265.5744c0-19.2512 15.616-34.9184 34.9184-34.9184s34.9184 15.6672 34.9184 34.9184z" /></svg>