<?xml version="1.0" standalone="no"?><!DOCTYPE svg PUBLIC "-//W3C//DTD SVG 1.1//EN" "http://www.w3.org/Graphics/SVG/1.1/DTD/svg11.dtd"><svg class="icon" width="200px" height="200.00px" viewBox="0 0 1024 1024" version="1.1" xmlns="http://www.w3.org/2000/svg"><path fill="#ffab00" d="M512 0q-139.008 0-256.992 68.512t-186.496 186.496-68.512 256.992 68.512 256.992 186.496 186.496 256.992 68.512 256.992-68.512 186.496-186.496 68.512-256.992-68.512-256.992-186.496-186.496-256.992-68.512zM823.008 823.008q-60.992 60.992-140 94.016-80.992 35.008-171.008 35.008t-171.008-34.016q-79.008-34.016-140-95.008t-94.016-140q-35.008-80.992-35.008-171.008t34.016-171.008q34.016-79.008 95.008-140t140-94.016q80.992-35.008 171.008-35.008t171.008 34.016q79.008 34.016 140 95.008t94.016 140q35.008 80.992 35.008 171.008t-34.016 171.008q-34.016 79.008-95.008 140zM796 548l-568 0q-15.008 0-25.504-10.496t-10.496-25.504 10.496-25.504 25.504-10.496l568 0q15.008 0 25.504 10.496t10.496 25.504-10.496 25.504-25.504 10.496z" /></svg>