<?xml version="1.0" standalone="no"?><!DOCTYPE svg PUBLIC "-//W3C//DTD SVG 1.1//EN" "http://www.w3.org/Graphics/SVG/1.1/DTD/svg11.dtd"><svg class="icon" width="200px" height="200.00px" viewBox="0 0 1024 1024" version="1.1" xmlns="http://www.w3.org/2000/svg"><path fill="#ffab00" d="M511.700671 127.718847c-211.957911 0-383.778061 171.815157-383.778061 383.76336 0 211.95025 171.821174 383.76336 383.778061 383.76336 211.957911 0 383.780108-171.813111 383.780108-383.76336C895.480779 299.534004 723.658581 127.718847 511.700671 127.718847zM511.700671 860.359013c-192.690312 0-348.890077-156.209738-348.890077-348.875782 0-192.699814 156.199765-348.875782 348.890077-348.875782 192.691336 0 348.8911 156.176992 348.8911 348.875782C860.591771 704.147228 704.392006 860.359013 511.700671 860.359013zM703.591748 511.48323 529.145686 511.48323 529.145686 284.71346c0-9.641591-7.819403-17.443277-17.445016-17.443277-9.624589 0-17.443992 7.801686-17.443992 17.443277l0 244.213048c0 9.625218 7.819403 17.443277 17.443992 17.443277l191.891077 0c9.624589 0 17.445016-7.819083 17.445016-17.443277C721.033694 519.28594 713.216337 511.48323 703.591748 511.48323z" /></svg>