<?xml version="1.0" standalone="no"?><!DOCTYPE svg PUBLIC "-//W3C//DTD SVG 1.1//EN" "http://www.w3.org/Graphics/SVG/1.1/DTD/svg11.dtd"><svg t="1499071688124" class="icon" style="" viewBox="0 0 1024 1024" version="1.1" xmlns="http://www.w3.org/2000/svg" p-id="2635" xmlns:xlink="http://www.w3.org/1999/xlink" width="112" height="112"><defs><style type="text/css"></style></defs><path d="M639.627261 959.469288 63.980685 959.469288 63.980685 64.021106l575.645552 0L639.626237 959.469288zM575.66653 127.981836 127.941416 127.981836l0 767.526721 447.724091 0L575.665507 127.981836z" p-id="2636" fill="#ffab00"></path><path d="M191.902146 255.903298l127.921461 0 0 63.960731-127.921461 0 0-63.960731Z" p-id="2637" fill="#ffab00"></path><path d="M383.784338 255.903298l127.921461 0 0 63.960731-127.921461 0 0-63.960731Z" p-id="2638" fill="#ffab00"></path><path d="M191.902146 447.784466l127.921461 0 0 63.960731-127.921461 0 0-63.960731Z" p-id="2639" fill="#ffab00"></path><path d="M383.784338 447.784466l127.921461 0 0 63.960731-127.921461 0 0-63.960731Z" p-id="2640" fill="#ffab00"></path><path d="M191.902146 639.666658l127.921461 0 0 63.960731-127.921461 0 0-63.960731Z" p-id="2641" fill="#ffab00"></path><path d="M383.784338 639.666658l127.921461 0 0 63.960731-127.921461 0 0-63.960731Z" p-id="2642" fill="#ffab00"></path><path d="M959.429891 959.469288 575.66653 959.469288 575.66653 255.902274l383.76336 0L959.429891 959.469288zM895.46916 319.863005 639.627261 319.863005l0 575.645552 255.842922 0L895.470183 319.863005z" p-id="2643" fill="#ffab00"></path><path d="M703.586968 447.784466l127.921461 0 0 63.960731-127.921461 0 0-63.960731Z" p-id="2644" fill="#ffab00"></path><path d="M703.586968 639.666658l127.921461 0 0 63.960731-127.921461 0 0-63.960731Z" p-id="2645" fill="#ffab00"></path></svg>