<?xml version="1.0" standalone="no"?><!DOCTYPE svg PUBLIC "-//W3C//DTD SVG 1.1//EN" "http://www.w3.org/Graphics/SVG/1.1/DTD/svg11.dtd"><svg t="1514193661627" class="icon" style="" viewBox="0 0 1389 1024" version="1.1" xmlns="http://www.w3.org/2000/svg" p-id="2924" xmlns:xlink="http://www.w3.org/1999/xlink" width="406.93359375" height="300"><defs><style type="text/css"></style></defs><path d="M205.787429 669.074286h150.820571c-67.620571 33.024-118.528 55.003429-153.197714 65.901714 13.897143 20.772571 27.794286 44.470857 42.020571 71.094857l162.852572-81.481143-37.961143-55.515428h98.998857v41.325714c0 18.505143-6.875429 27.830857-20.772572 27.830857-17.810286 0-37.778286-0.694857-59.794285-1.901714 5.156571 19.894857 10.313143 43.922286 15.469714 72.484571 36.059429 0 64.475429-0.694857 84.955429-1.901714 20.626286-1.206857 35.766857-7.606857 45.421714-19.017143 9.837714-11.410286 14.665143-27.830857 14.665143-49.481143v-69.193143h245.467428v-69.193142H205.787429v69.046857z m696.576-288.365715h321.024v85.613715h-321.024V380.708571zM247.954286 503.515429h504.832v64H247.954286v-64z" fill="#999999" p-id="2925"></path><path d="M1274.806857 0.329143H110.226286C49.481143 0.329143 0 65.718857 0 146.176v731.830857c0 80.420571 49.481143 145.810286 110.226286 145.810286h1164.544c60.745143 0 114.907429-65.389714 114.907428-145.810286V146.176C1389.714286 65.718857 1335.515429 0.329143 1274.806857 0.329143z m50.578286 877.494857c0 33.024-24.832 60.013714-49.664 60.013714H123.501714c-24.832 0-44.982857-26.989714-44.982857-60.013714V146.176c0-33.024 20.150857-60.013714 44.982857-60.013714h1152.219429c24.832 0 49.664 26.989714 49.664 60.013714v731.648z" fill="#999999" p-id="2926"></path><path d="M902.363429 209.298286h321.024v85.613714h-321.024V209.298286zM588.068571 731.684571c63.232 25.782857 118.528 49.810286 165.814858 71.789715l34.962285-67.803429a8380.672 8380.672 0 0 0-167.716571-64.694857l-33.060572 60.708571z m190.646858-467.894857v-67.291428H221.257143v67.291428h167.094857V303.908571H242.029714v168.630858h517.778286V303.908571h-146.944V263.789714h165.851429z m-390.363429 146.688H318.390857v-44.617143h69.961143v44.617143z m147.529143 0h-70.582857v-44.617143h70.582857v44.617143z m0-106.569143h-70.582857V263.789714h70.582857V303.908571z m147.419428 61.915429v44.617143h-70.582857v-44.617143h70.582857z" fill="#999999" p-id="2927"></path></svg>