<?xml version="1.0" standalone="no"?><!DOCTYPE svg PUBLIC "-//W3C//DTD SVG 1.1//EN" "http://www.w3.org/Graphics/SVG/1.1/DTD/svg11.dtd"><svg t="1513828187614" class="icon" style="" viewBox="0 0 1024 1024" version="1.1" xmlns="http://www.w3.org/2000/svg" p-id="4815" xmlns:xlink="http://www.w3.org/1999/xlink" width="300" height="300"><defs><style type="text/css"></style></defs><path d="M886.784 595.495385l-204.051692-70.852923-108.228923-267.972924c-14.454154-29.814154-13.587692-32.492308-35.052308-39.896615l-91.569231-31.744c-28.317538-10.043077-24.300308 6.065231-21.228308 69.592615l11.618462 185.186462L114.451692 327.286154c21.385846 24.221538 160.964923 159.940923 205.430154 175.419077l534.528 185.659077a49.152 49.152 0 0 0 62.582154-30.326154 48.994462 48.994462 0 0 0-30.208-62.542769zM227.564308 352.492308l-34.422154-82.313846c-10.003692-24.615385-17.014154-30.365538-52.420923-42.614154l-36.509539-12.642462 7.719385 97.476923L227.564308 352.492308z m60.219077 14.966154M203.067077 804.194462h617.865846v37.533538H203.067077z" p-id="4816" fill="#999999"></path></svg>