<?xml version="1.0" standalone="no"?><!DOCTYPE svg PUBLIC "-//W3C//DTD SVG 1.1//EN" "http://www.w3.org/Graphics/SVG/1.1/DTD/svg11.dtd"><svg t="1498641379260" class="icon" style="" viewBox="0 0 1024 1024" version="1.1" xmlns="http://www.w3.org/2000/svg" p-id="1850" xmlns:xlink="http://www.w3.org/1999/xlink" width="112" height="112"><defs><style type="text/css"></style></defs><path d="M768.992 839.542c-15.595 0-31.187-6.237-43.677-18.72l-530.309-530.309c-24.954-24.954-24.954-62.395 0-87.343s62.395-24.954 87.343 0l530.309 530.309c24.954 24.954 24.954 62.395 0 87.343-12.485 12.485-28.081 18.72-43.677 18.72z" p-id="1851" fill="#dcdcdc"></path><path d="M238.682 839.542c-15.595 0-31.187-6.237-43.677-18.72-24.954-24.954-24.954-62.395 0-87.343l530.309-530.309c24.954-24.954 62.395-24.954 87.343 0s24.954 62.395 0 87.343l-530.309 530.309c-12.485 12.485-28.081 18.72-43.677 18.72z" p-id="1852" fill="#dcdcdc"></path></svg>