<?xml version="1.0" standalone="no"?><!DOCTYPE svg PUBLIC "-//W3C//DTD SVG 1.1//EN" "http://www.w3.org/Graphics/SVG/1.1/DTD/svg11.dtd"><svg t="1499054692974" class="icon" style="" viewBox="0 0 1072 1024" version="1.1" xmlns="http://www.w3.org/2000/svg" p-id="1898" xmlns:xlink="http://www.w3.org/1999/xlink" width="117.25" height="112"><defs><style type="text/css"></style></defs><path d="M1057.749395 932.862184c0 50.147267-210.819158 90.803419-470.873214 90.803418s-470.873214-40.656152-470.873214-90.803418 210.819158-90.803419 470.873214-90.803419 470.873214 40.656152 470.873214 90.803419" fill="#D8D8D8" p-id="1899"></path><path d="M1025.395388 527.283212a5.164586 5.164586 0 0 1-5.123303-5.176971v-75.71424c0-2.848573 2.303628-5.1811 5.119174-5.1811 2.823803 0 5.127431 2.332527 5.127432 5.176972v75.71424c0 2.848573-2.303628 5.1811-5.123303 5.181099" fill="#9C9C9C" p-id="1900"></path><path d="M982.827802 484.244993a5.160458 5.160458 0 0 1 5.119174-5.176972h74.888567c2.815546 0 5.127431 2.328399 5.127431 5.176972a5.160458 5.160458 0 0 1-5.123303 5.176971h-74.888566a5.160458 5.160458 0 0 1-5.123303-5.176971M45.251024 679.054346a5.164586 5.164586 0 0 1-5.123303-5.176971V598.159007c0-2.848573 2.303628-5.176971 5.123303-5.176972s5.123303 2.332527 5.123303 5.176972v75.714239c0 2.844444-2.303628 5.1811-5.123303 5.1811" fill="#9C9C9C" p-id="1901"></path><path d="M2.683438 636.016126a5.160458 5.160458 0 0 1 5.123303-5.176971h74.888566c2.811418 0 5.123303 2.328399 5.123303 5.176971a5.160458 5.160458 0 0 1-5.123303 5.176972H7.806741A5.160458 5.160458 0 0 1 2.683438 636.016126" fill="#9C9C9C" p-id="1902"></path><path d="M929.142525 4.293501l33.852605 61.752105 61.904854 33.770037-61.904854 33.774165-33.852605 61.743848-33.852604-61.743848-61.904854-33.774165 61.904854-33.770037z" fill="#FFFFFF" p-id="1903"></path><path d="M929.142525 199.627157l-35.371843-64.513982-64.69563-35.297532 64.691502-35.293405 35.375971-64.522238 35.371844 64.522238 64.691501 35.293405-64.691501 35.297532-35.371844 64.513982zM837.686825 99.815643l59.114078 32.254926 32.333366 58.969586 32.333365-58.969586 59.114079-32.254926-59.118207-32.250799-32.325109-58.977842-32.333366 58.977842-59.118206 32.250799z" fill="#9C9C9C" p-id="1904"></path><path d="M945.577552 351.179487l16.488695 30.046251 30.161845 16.439155-30.161845 16.430898-16.488695 30.046251-16.488695-30.046251-30.157717-16.430898 30.157717-16.439155z" fill="#FFFFFF" p-id="1905"></path><path d="M945.577552 448.431414l-18.007934-32.812256-32.952621-17.958394 32.952621-17.958393 18.007934-32.812257 18.007934 32.812257 32.952621 17.962522-32.952621 17.958394-18.007934 32.808127z m-42.336397-50.766521l27.36694 14.907531 14.969457 27.280245 14.969457-27.280245 27.36694-14.903403-27.36694-14.919916-14.969457-27.280245-14.969457 27.280245-27.36694 14.915788z" fill="#9C9C9C" p-id="1906"></path><path d="M490.202225 94.428124l13.190131 23.721594 24.126173 12.979584-24.126173 12.971327-13.194259 23.721593-13.190131-23.721593-24.130301-12.971327 24.130301-12.979584z" fill="#FFFFFF" p-id="1907"></path><path d="M490.202225 172.070311l-14.705241-26.438058-26.974746-14.502951 26.974746-14.511208 14.701113-26.438059 14.701113 26.438059 26.974746 14.511208-26.974746 14.502951-14.696985 26.438058z m-32.965005-40.941009l21.2776 11.439703 11.683277 21.005128 11.683277-21.005128 21.2776-11.435575-21.2776-11.452088-11.683277-21.005128-11.683277 21.005128-21.2776 11.44796z" fill="#9C9C9C" p-id="1908"></path><path d="M578.644219 903.905822h264.826447V419.12827h-264.826447V903.905822z m88.276858-176.281245h88.276859v-44.070312h-88.276859v44.070312z m0-132.210934h88.276859v-44.07444h-88.276859v44.07444z" fill="#ECECEC" p-id="1909"></path><path d="M845.534849 905.970005h-268.954814V417.068215h268.954814V905.970005z m-264.826447-4.128367h260.698081V421.196581h-260.698081V901.841638z m176.553717-172.152878h-92.405225v-48.198678h92.405225v48.198678z m-88.276859-4.128367h84.148493v-39.941944h-84.148493v39.941944z m88.276859-128.086695h-92.405225v-48.198678h92.405225v48.198678z m-88.276859-4.128367h84.148493v-39.941944h-84.148493v39.941944z" fill="#979797" p-id="1910"></path><path d="M225.540913 903.905822h397.243799V286.917336H225.540913v616.984357z m88.27273-176.281245h88.276859v-44.070312H313.813643v44.070312z m0-132.210934h88.276859v-44.07444H313.813643v44.07444z m0-132.215062h88.276859v-44.070311H313.813643v44.070311z m132.417352 264.421867h88.276859v-44.066183H446.235123v44.070312z m0-132.206805h88.276859v-44.07444H446.235123v44.07444z m0-132.215062h88.276859v-44.070311H446.235123v44.070311z" fill="#FFFFFF" p-id="1911"></path><path d="M624.844767 905.970005H223.47673V284.853153h401.372165V905.970005z m-397.239671-4.128367h393.115433V288.981519H227.605096V901.841638z m308.966941-172.152878H444.17094v-48.198678h92.405225v48.198678z m-88.276859-4.128367h84.148492v-39.941944H448.299307v39.941944z m-44.140493 4.128367H311.753588v-48.198678h92.405225v48.198678z m-88.27273-4.128367h84.148492v-39.941944H315.881955v39.941944z m220.690082-128.086695H444.17094v-48.198678h92.405225v48.198678z m-88.276859-4.128367h84.148492v-39.941944H448.299307v39.941944z m-44.140493 4.128367H311.753588v-48.198678h92.405225v48.198678z m-88.27273-4.128367h84.148492v-39.941944H315.881955v39.941944z m220.690082-128.082567H444.17094V417.064086h92.405225v48.198678z m-88.276859-4.128366h84.148492v-39.941945H448.299307v39.941945z m-44.140493 4.128366H311.753588V417.064086h92.405225v48.198678z m-88.27273-4.128366h84.148492v-39.941945H315.881955v39.941945z" fill="#979797" p-id="1912"></path><path d="M664.501855 937.304306c-17.339139 0-31.392098-14.350202-31.392099-32.056765s14.052959-32.056765 31.392099-32.056765 31.392098 14.350202 31.392098 32.056765S681.840993 937.304306 664.501855 937.304306z" fill="#D7D7D7" p-id="1913"></path><path d="M664.501855 939.368489c-18.449669 0-33.456281-15.303854-33.456282-34.120948s15.006612-34.120948 33.456282-34.120949 33.456281 15.303854 33.456281 34.120949-15.006612 34.120948-33.456281 34.120948z m0-64.109402c-16.170811 0-29.327915 13.454346-29.327915 29.992582s13.157104 29.988453 29.327915 29.988454 29.327915-13.454346 29.327914-29.992582-13.157104-29.988453-29.327914-29.988454z" fill="#A1A1A1" p-id="1914"></path><path d="M888.172617 937.304306c-17.339139 0-31.392098-14.350202-31.392098-32.056765s14.052959-32.056765 31.392098-32.056765 31.392098 14.350202 31.392098 32.056765-14.057088 32.056765-31.392098 32.056765z" fill="#D7D7D7" p-id="1915"></path><path d="M888.172617 939.368489c-18.449669 0-33.456281-15.303854-33.456281-34.120948s15.01074-34.120948 33.456281-34.120949 33.456281 15.303854 33.456282 34.120949-15.01074 34.120948-33.456282 34.120948z m0-64.109402c-16.170811 0-29.327915 13.454346-29.327915 29.992582s13.161232 29.992582 29.327915 29.992582 29.327915-13.454346 29.327915-29.992582-13.157104-29.992582-29.327915-29.992582z" fill="#A1A1A1" p-id="1916"></path><path d="M625.261732 909.256184H582.099661v-28.048121s1.960974-30.050379 62.784196-38.067666c27.466022-4.008644 43.162071-4.008644 43.162071-4.008644s39.240123-34.059023 88.289244-36.06128 94.176294 2.002258 141.264441 26.045863c15.696049 8.013159 25.505048 8.013159 35.314046 8.013159 9.808999 0 17.657023 8.013159 17.657023 16.026319v16.030446s5.88705 4.008644 5.887051 16.026319-5.88705 24.043606-23.544074 24.043605h-23.544073s-1.960974-46.080826-41.201097-44.074439c-39.240123 2.002258-35.314046 44.07444-35.314046 44.074439h-149.112466s-1.960974-44.07444-39.240122-44.074439c-37.27502-0.004128-39.240123 44.07444-39.240123 44.074439z m76.519271-64.11353s98.098242 0 100.063345-2.002257 7.848025-32.056765 7.848024-32.056765 0-2.002258-33.353072 0-74.558297 34.059023-74.558297 34.059022z m117.720368-34.059022l-3.921948 30.050379h62.784196c5.88705 0 13.735075-6.010901 9.808998-10.015417-9.813127-12.017675-68.671247-20.034962-68.671246-20.034962z" fill="#D7D7D7" p-id="1917"></path><path d="M952.917787 911.320368h-25.521561l-0.086695-1.977488c-0.074311-1.758684-2.32427-43.913433-39.033705-42.105209-10.498436 0.536688-18.697371 4.132495-24.365618 10.680084-10.622287 12.277762-9.020481 30.95862-8.999839 31.144396l0.210547 2.258217h-153.34817l-0.086695-1.973359c-0.082567-1.7174-2.336655-42.105209-37.184196-42.105209-34.839284 0-37.0975 40.387808-37.180068 42.105209l-0.086696 1.973359H580.035478v-30.112305c0.086696-1.432543 2.790776-31.970069 64.580036-40.115336 23.936268-3.492598 39.190582-3.954975 42.670795-4.016901 5.143945-4.239832 43.021706-34.19113 88.966295-36.069537 7.439316-0.301371 14.267634-0.449992 20.885406-0.449992 47.765199 0 85.209482 8.240219 121.402871 26.722916 15.250185 7.790227 24.53901 7.790227 34.376906 7.790227 10.502564 0 19.717078 8.454894 19.717078 18.090502v15.080922c1.853637 1.762812 5.88705 6.774649 5.887051 16.975843 0 16.344203-9.569553 26.103661-25.604129 26.103661z m-21.649153-4.128367h21.649153c19.38268 0 21.475762-15.369908 21.475762-21.975294 0-10.618158-4.80129-14.193324-5.00358-14.337816l-0.862828-0.619255-0.020642-1.073376v-16.030446c0-6.593001-6.667312-13.962135-15.588712-13.962136-9.891566 0-20.117529 0-36.255313-8.240219-35.58239-18.164812-72.448702-26.268795-119.524464-26.268795-6.559974 0-13.330495 0.148621-20.716143 0.449992-47.728044 1.948589-86.633769 35.223222-87.025963 35.561748l-0.577971 0.503661h-0.772005c-0.156878 0-15.898339 0.053669-42.864828 3.988001-58.156297 7.662248-61.000742 35.883761-61.021384 36.16449l0.004129 25.839445h39.211224c0.970166-8.814062 6.997581-44.078568 41.126786-44.078568 34.133333 0 40.160748 35.264506 41.130914 44.078568h145.054281c-0.127979-5.701274 0.516046-20.897791 10.102113-31.974197 6.431995-7.435188 15.609353-11.505757 27.276117-12.100242 35.9622-1.750427 42.22906 35.033317 43.203354 44.074439z m-229.487631-59.981035h-6.01503l4.747622-3.694888c1.705015-1.325206 42.096952-32.469602 75.701854-34.488373 9.879181-0.594485 17.813901-0.895856 23.597742-0.895855 10.213578 0 11.943364 0.738978 11.947493 2.951782-2.778391 14.387357-6.456765 31.482922-8.438381 33.501693-0.772005 0.78439-2.571972 2.625641-101.5413 2.625641z m98.02806-34.95075c-5.697146 0-13.553427 0.297242-23.345912 0.887599-25.6 1.539881-56.414127 21.512917-68.353362 29.930656 36.342009-0.04954 86.064054-0.516046 92.409353-1.671988 1.155943-2.600871 4.239832-16.088244 6.778778-28.849025-1.209611-0.144493-3.447186-0.297242-7.488857-0.297242z m78.554556 30.942106h-65.137365l4.495791-34.442961 2.055926 0.280729c2.435736 0.330269 59.782874 8.26499 69.992324 20.769812 1.539881 1.564651 1.965102 3.810482 1.032092 6.023286-1.647218 3.926076-7.459958 7.369134-12.438768 7.369134z m-60.435156-4.128366h60.435156c3.554523 0 7.720045-2.662796 8.636542-4.838446 0.288986-0.685309 0.206418-1.155943-0.30137-1.671988-7.439316-9.107176-47.909692-16.612546-65.418094-19.143235l-3.352234 25.653669z" fill="#A1A1A1" p-id="1918"></path></svg>