<?xml version="1.0" standalone="no"?><!DOCTYPE svg PUBLIC "-//W3C//DTD SVG 1.1//EN" "http://www.w3.org/Graphics/SVG/1.1/DTD/svg11.dtd"><svg t="1498025744116" class="icon" style="" viewBox="0 0 2953 1024" version="1.1" xmlns="http://www.w3.org/2000/svg" p-id="14348" xmlns:xlink="http://www.w3.org/1999/xlink" width="322.984375" height="112"><defs><style type="text/css"></style></defs><path d="M650.397538 1024c-119.729231 0-216.812308-104.802462-216.812307-234.062769s97.043692-234.062769 216.812307-234.062769 216.812308 104.802462 216.812308 234.062769S770.126769 1024 650.397538 1024z m0-117.011692c59.864615 0 108.386462-52.381538 108.386462-117.011693s-48.521846-117.011692-108.386462-117.011692-108.386462 52.381538-108.386461 117.011692c-0.039385 64.590769 48.521846 117.011692 108.386461 117.011693zM2384.738462 1024c-119.729231 0-216.812308-104.802462-216.812308-234.062769s97.043692-234.062769 216.812308-234.062769c119.729231 0 216.812308 104.802462 216.812307 234.062769S2504.507077 1024 2384.738462 1024z m0-117.011692c59.864615 0 108.386462-52.381538 108.386461-117.011693s-48.521846-117.011692-108.386461-117.011692c-59.864615 0-108.386462 52.381538-108.386462 117.011692 0 64.590769 48.521846 117.011692 108.386462 117.011693z" fill="#707070" p-id="14349"></path><path d="M414.089846 848.462769c-69.001846 0-287.389538-8.113231-317.479384-11.342769C66.520615 833.890462 0 804.588308 0 775.325538v-190.188307s13.784615-204.8 469.307077-263.325539c179.436308-14.611692 386.481231-29.262769 386.481231-29.262769S1043.337846 73.137231 1490.471385 29.223385 2175.094154 76.406154 2521.206154 251.943385c115.357538 58.525538 187.470769 58.525538 259.584 58.525538 72.113231 0 129.772308 58.525538 129.772308 117.011692v117.011693s29.696 29.262769 29.696 117.011692c0 52.263385 6.222769 123.904-29.696 157.617231-24.418462 22.921846-77.272615 17.92-129.772308 17.92h-152.142769s27.096615-310.468923-243.908923-310.468923-243.908923 321.811692-243.908924 321.811692l-1233.014153-11.264s0-310.468923-257.457231-310.468923-236.268308 292.548923-236.268308 321.811692zM1680.187077 321.811692h528.423385s-121.934769-234.062769-311.650462-248.674461-189.715692 0-189.715692 0l-27.057231 248.674461z m-704.590769 14.651077l596.204307-14.611692 67.741539-248.674462H1544.664615c-54.193231 14.611692-237.095385 14.611692-569.068307 263.286154z m1192.36923-160.925538l94.838154 146.274461h149.031385c-67.741538-102.4-243.869538-146.274462-243.869539-146.274461z" fill="#e5e5e5" p-id="14350"></path></svg>