<?xml version="1.0" encoding="UTF-8" standalone="no"?>
<svg width="110px" height="110px" viewBox="0 0 110 110" version="1.1" xmlns="http://www.w3.org/2000/svg" xmlns:xlink="http://www.w3.org/1999/xlink">
    <!-- Generator: Sketch 46.2 (44496) - http://www.bohemiancoding.com/sketch -->
    <title>支付</title>
    <desc>Created with Sketch.</desc>
    <defs></defs>
    <g id="Page-1" stroke="none" stroke-width="1" fill="none" fill-rule="evenodd">
        <g id="订单详情－支付处理中" transform="translate(-320.000000, -475.000000)">
            <g id="支付" transform="translate(320.000000, 475.000000)">
                <path d="M55,110 C24.6245313,110 0,85.3754688 0,55 C0,24.6245313 24.6245313,0 55,0 C85.3754688,0 110,24.6245313 110,55 C110,85.3754688 85.3754688,110 55,110 L55,110 Z" id="Shape" fill="#E6E6E6"></path>
                <g id="支付-2" transform="translate(26.000000, 22.000000)" fill-rule="nonzero" fill="#FFFFFF">
                    <path d="M57.8175052,51.6357659 C57.8175052,53.287742 55.7942697,54.9432181 53.5832753,54.9432181 L33.1421051,54.9432181 L33.1421051,66.6925479 C33.1421051,68.346274 31.4873687,70.0000001 28.9078752,70 C26.514386,70 24.6736453,68.5317713 24.6736454,66.6925479 L24.6736454,54.9432181 L4.05173514,54.9432181 C1.84249541,54.9432181 7.53997366e-08,53.4714893 0,51.4537686 C0,49.6162952 1.84074063,48.1480664 4.05173514,48.1480664 L24.4893958,48.1480664 L24.4893958,38.0489627 L4.05173514,38.0489627 C1.84249541,38.0489627 7.53997366e-08,36.7644813 0,34.5595132 C0,32.907537 1.84074063,31.4393083 4.05173514,31.4393084 L21.543158,31.4393084 L3.49898654,4.81169396 C2.3952441,3.34346524 3.13224222,1.50599182 5.52573146,0.587255104 C7.55072161,-0.147734219 9.94596563,0.403507792 11.0497081,1.87348644 L29.0938796,28.6830983 L46.9520467,1.68973913 C48.0575439,0.2215104 50.6370375,-0.513478998 52.6602729,0.405257712 C54.8712673,1.14024704 55.6082655,3.15971785 54.5027682,4.62969657 L36.6428463,31.6213057 L53.7657701,31.6213057 C55.9767646,31.6213057 58,33.0895344 58,34.9252579 C58,36.7627313 55.9767646,38.23271 53.7657701,38.23271 L33.1421051,38.23271 L33.1421051,48.3318138 L53.5815206,48.3318138 L53.5815206,48.1498164 C55.7942698,48.1480664 57.8175053,49.6162951 57.8175052,51.6357659 L57.8175052,51.6357659 Z" id="Shape"></path>
                </g>
            </g>
        </g>
    </g>
</svg>