<?xml version="1.0" standalone="no"?>
<!DOCTYPE svg PUBLIC "-//W3C//DTD SVG 1.1//EN" "http://www.w3.org/Graphics/SVG/1.1/DTD/svg11.dtd">
<svg class="icon" width="112px" height="112.00px" viewBox="0 0 1024 1024" version="1.1" xmlns="http://www.w3.org/2000/svg"><path
    fill="#4990e2"
    d="M744.430345 322.01269l-47.457104-47.368828a33.580138 33.580138 0 0 0-47.439448 0l-71.168 94.737655c-10.875586 16.048552-13.117793 34.286345 0 47.368828l29.042759 29.007448c-21.53931 28.883862-47.386483 60.38069-76.499862 89.423448-32.891586 32.838621-69.508414 62.711172-102.417656 87.234207l-28.054068-28.018758c-13.117793-13.082483-31.390897-10.857931-47.457104 0l-94.896552 71.062069c-15.90731 10.963862-13.100138 34.286345 0 47.368827l47.439449 47.368828c26.217931 26.182621 60.292414 17.778759 94.914207 0 0 0 104.748138-58.703448 194.401103-148.232828 84.338759-84.197517 149.592276-195.213241 149.592276-195.213241 13.629793-37.358345 26.200276-68.590345 0-94.737655"/><path
    fill="#4990e2"
    d="M512 1015.172414C234.548966 1015.172414 8.827586 789.451034 8.827586 512S234.548966 8.827586 512 8.827586 1015.172414 234.548966 1015.172414 512 789.451034 1015.172414 512 1015.172414z m0-988.689655C244.276966 26.482759 26.482759 244.276966 26.482759 512c0 267.705379 217.794207 485.517241 485.517241 485.517241 267.705379 0 485.517241-217.811862 485.517241-485.517241C997.517241 244.276966 779.705379 26.482759 512 26.482759z"/></svg>
