<?xml version="1.0" standalone="no"?>
<!DOCTYPE svg PUBLIC "-//W3C//DTD SVG 1.1//EN" "http://www.w3.org/Graphics/SVG/1.1/DTD/svg11.dtd">
<svg class="icon" width="112px" height="112.00px" viewBox="0 0 1024 1024" version="1.1" xmlns="http://www.w3.org/2000/svg"><path
    fill="#666666"
    d="M510.022656 395.998208c16.329728 0 29.544448-13.27104 29.544448-29.544448 0-16.387072-13.213696-29.582336-29.544448-29.582336-16.330752 0-29.563904 13.195264-29.563904 29.582336C480.458752 382.726144 493.691904 395.998208 510.022656 395.998208z"/><path
    fill="#666666"
    d="M512.234496 128.072704c-212.194304 0-384.227328 172.022784-384.227328 384.265216 0 212.155392 172.032 384.188416 384.227328 384.188416 212.194304 0 384.206848-172.033024 384.206848-384.188416C896.441344 300.095488 724.4288 128.072704 512.234496 128.072704zM756.395008 756.473856c-31.72352 31.724544-68.656128 56.628224-109.76768 74.017792-42.545152 17.995776-87.76192 27.12064-134.392832 27.12064-46.631936 0-91.848704-9.124864-134.396928-27.12064-41.114624-17.389568-78.04928-42.294272-109.775872-74.018816-31.725568-31.72352-56.630272-68.65408-74.021888-109.763584-17.995776-42.541056-27.12064-87.749632-27.12064-134.372352 0-46.644224 9.124864-91.870208 27.121664-134.423552 17.390592-41.119744 42.295296-78.057472 74.021888-109.785088 31.725568-31.726592 68.6592-56.63232 109.774848-74.022912 42.546176-17.9968 87.763968-27.12064 134.396928-27.12064 46.631936 0 91.848704 9.124864 134.391808 27.12064 41.112576 17.390592 78.04416 42.295296 109.76768 74.022912 31.72352 31.727616 56.626176 68.665344 74.015744 109.785088 17.994752 42.553344 27.118592 87.780352 27.118592 134.424576 0 46.62272-9.12384 91.833344-27.117568 134.373376C813.021184 687.819776 788.119552 724.750336 756.395008 756.473856z"/><path
    fill="#666666"
    d="M521.889792 453.047296 502.213632 453.047296c-5.040128 0-10.079232 1.924096-13.9264 5.77024-3.847168 3.847168-5.77024 8.896512-5.77024 13.935616l0 196.922368c0 5.039104 1.923072 10.078208 5.77024 13.925376s8.886272 5.771264 13.9264 5.771264l19.67616 0c5.040128 0 10.079232-1.924096 13.9264-5.771264s5.77024-8.886272 5.77024-13.925376L541.586432 472.753152c0-5.039104-1.923072-10.088448-5.77024-13.935616C531.968 454.971392 526.92992 453.047296 521.889792 453.047296z"/></svg>
