<?xml version="1.0" standalone="no"?><!DOCTYPE svg PUBLIC "-//W3C//DTD SVG 1.1//EN" "http://www.w3.org/Graphics/SVG/1.1/DTD/svg11.dtd"><svg class="icon" width="112px" height="112.00px" viewBox="0 0 1024 1024" version="1.1" xmlns="http://www.w3.org/2000/svg"><path fill="#ffa000" d="M461.02016 785.536a47.85152 47.85152 0 0 1-33.98144-14.09536l-197.61152-197.5808a48.0512 48.0512 0 0 1 0-67.93216c18.74432-18.76992 49.17248-18.76992 67.92704 0l163.6608 163.67104 418.05824-418.10432a48.04096 48.04096 0 0 1 67.94752 0c18.72896 18.7392 18.72896 49.15712 0 67.92704l-452.06016 452.03456a47.872 47.872 0 0 1-33.94048 14.08zM512.00512 1024C229.68832 1024 0 794.32192 0 512.00512S229.68832 0 512.00512 0c100.7104 0 198.1952 29.22496 281.87648 84.51072a36.57216 36.57216 0 1 1-40.30976 61.03552c-71.70048-47.37024-155.2384-72.41216-241.56672-72.41216-241.9968 0-438.8608 196.864-438.8608 438.8608 0 241.99168 196.864 438.8608 438.8608 438.8608s438.85568-196.86912 438.85568-438.8608a445.0816 445.0816 0 0 0-2.33984-45.71136 36.5568 36.5568 0 0 1 32.61952-40.13056 36.56704 36.56704 0 0 1 40.13056 32.60928c1.82272 17.55648 2.72896 35.456 2.72896 53.23776 0 282.32192-229.67808 512-511.99488 512z"  /></svg>