<?xml version="1.0" standalone="no"?><!DOCTYPE svg PUBLIC "-//W3C//DTD SVG 1.1//EN" "http://www.w3.org/Graphics/SVG/1.1/DTD/svg11.dtd"><svg t="1513828198354" class="icon" style="" viewBox="0 0 1024 1024" version="1.1" xmlns="http://www.w3.org/2000/svg" p-id="4987" xmlns:xlink="http://www.w3.org/1999/xlink" width="300" height="300"><defs><style type="text/css"></style></defs><path d="M279.04 478.72h7.68l89.6-40.96c5.12-2.56 12.8-12.8 0-17.92l-207.36-107.52L281.6 248.32l271.36 64s5.12 5.12 166.4-87.04c25.6-12.8 46.08-15.36 71.68-17.92 38.4 0 112.64 15.36 125.44 30.72 12.8 12.8 7.68 33.28-20.48 51.2 0 0-350.72 189.44-537.6 286.72-12.8 7.68-28.16 10.24-40.96 12.8-25.6 2.56-40.96 2.56-64 5.12-10.24 0-25.6 2.56-38.4-7.68L102.4 501.76 148.48 460.8l130.56 17.92z" fill="#999999" p-id="4988"></path><path d="M153.6 819.2c-15.36 0-25.6-10.24-25.6-25.6s10.24-25.6 25.6-25.6h588.8c15.36 0 25.6 10.24 25.6 25.6s-10.24 25.6-25.6 25.6H153.6z" fill="#999999" p-id="4989"></path></svg>