<?xml version="1.0" standalone="no"?><!DOCTYPE svg PUBLIC "-//W3C//DTD SVG 1.1//EN" "http://www.w3.org/Graphics/SVG/1.1/DTD/svg11.dtd"><svg t="1513827485451" class="icon" style="" viewBox="0 0 2958 1024" version="1.1" xmlns="http://www.w3.org/2000/svg" p-id="2762" xmlns:xlink="http://www.w3.org/1999/xlink" width="866.6015625" height="300"><defs><style type="text/css"></style></defs><path d="M2343.139556 1008.526222c129.422222 0 234.325333-107.861333 234.325333-240.924444s-104.903111-240.924444-234.325333-240.924445-234.325333 107.861333-234.325334 240.924445 104.903111 240.924444 234.325334 240.924444z m0-120.490666c-64.682667 0-117.134222-53.930667-117.134223-120.490667s52.451556-120.490667 117.134223-120.490667 117.134222 53.930667 117.134222 120.490667-52.451556 120.490667-117.134222 120.490667zM673.678222 1008.526222c129.422222 0 234.325333-107.861333 234.325334-240.924444s-104.903111-240.924444-234.325334-240.924445-234.325333 107.861333-234.325333 240.924445 104.903111 240.924444 234.325333 240.924444z m0-120.490666c-64.682667 0-117.134222-53.930667-117.134222-120.490667s52.451556-120.490667 117.134222-120.490667 117.134222 53.930667 117.134222 120.490667-52.451556 120.490667-117.134222 120.490667z" fill="#999999" p-id="2763"></path><path d="M2636.060444 801.507556H2958.222222v-210.830223s-14.620444-225.905778-468.650666-286.094222c-205.027556-30.094222-322.161778-30.094222-322.161778-30.094222S1874.488889 18.488889 1508.408889 3.413333 805.432889 18.432 453.973333 199.168C336.839111 259.413333 263.566222 259.413333 190.350222 259.413333c-73.216 0-131.811556 60.245333-131.811555 120.490667v120.490667s-43.918222 30.094222-43.918223 120.490666 43.918222 180.679111 175.729778 180.679111h175.729778s14.620444-346.339556 307.541333-331.320888c292.920889 15.075556 263.623111 331.320889 263.623111 331.320888H2050.275556s14.620444-331.320889 292.920888-331.320888c278.186667-0.056889 292.864 331.264 292.864 331.264z m-571.164444-481.905778s-732.216889 0-746.894222-15.075556c-14.620444-15.075556-58.595556-240.924444-58.595556-240.924444s0-15.075556 248.945778 0 556.544 256 556.544 256z m-878.705778-256l29.297778 225.905778h-468.650667c-43.918222 0-102.513778-45.169778-73.216-75.320889 73.272889-90.339556 512.568889-150.584889 512.568889-150.584889z" fill="#999999" p-id="2764"></path></svg>