<?xml version="1.0" standalone="no"?><!DOCTYPE svg PUBLIC "-//W3C//DTD SVG 1.1//EN" "http://www.w3.org/Graphics/SVG/1.1/DTD/svg11.dtd"><svg t="1497585527418" class="icon" style="" viewBox="0 0 1067 1024" version="1.1" xmlns="http://www.w3.org/2000/svg" p-id="1928" xmlns:xlink="http://www.w3.org/1999/xlink" width="208.3984375" height="200"><defs><style type="text/css"></style></defs><path d="M1037.357448 924.398821c0 53.087929-223.281436 96.128044-498.709438 96.128044S39.933617 977.48675 39.933617 924.398821s223.281436-96.128044 498.709438-96.128044 498.714393 43.040115 498.714393 96.128044" fill="#D8D8D8" p-id="1929"></path><path d="M1019.39723 557.019455a5.469816 5.469816 0 0 1-5.420271-5.479724V471.385133c0-3.012362 2.437635-5.479725 5.425225-5.479724s5.425225 2.477272 5.425225 5.479724v80.154598c0 3.007408-2.437635 5.479725-5.425225 5.479724" fill="#9C9C9C" p-id="1930"></path><path d="M974.320797 511.462432c0-3.017317 2.447544-5.479725 5.425225-5.479725h79.317279c2.972726 0 5.425225 2.462408 5.425225 5.479725s-2.447544 5.479725-5.425225 5.479725h-79.322234a5.464861 5.464861 0 0 1-5.42027-5.479725M36.648755 629.132829a4.181634 4.181634 0 0 1-4.146953-4.191543v-61.287698c0-2.308817 1.862908-4.196498 4.146953-4.196498s4.146953 1.887681 4.146952 4.191544v61.292652a4.181634 4.181634 0 0 1-4.146952 4.191543" fill="#9C9C9C" p-id="1931"></path><path d="M2.175044 594.292483c0-2.308817 1.867863-4.191543 4.146953-4.191544h60.653516c2.27909 0 4.146953 1.882726 4.146952 4.191544s-1.867863 4.191543-4.146952 4.191543H6.321997a4.181634 4.181634 0 0 1-4.146953-4.191543" fill="#9C9C9C" p-id="1932"></path><path d="M71.751692 241.598382l11.628313 21.20049 21.264898 11.59363-21.264898 11.598586-11.628313 21.200489-11.628312-21.200489-21.264899-11.598586 21.264899-11.59363z" fill="#FFFFFF" p-id="1933"></path><path d="M71.751692 312.339347l-13.451584-24.524988L33.690893 274.397457l24.614169-13.421857 13.451585-24.524988 13.451584 24.524988 24.61417 13.421857-24.61417 13.421857-13.451584 24.520033z m-27.715714-37.94189l17.910674 9.765404 9.809995 17.875992 9.800086-17.875992 17.915628-9.770359-17.915628-9.765404-9.805041-17.875991-9.80504 17.875991-17.910674 9.770359z" fill="#9C9C9C" p-id="1934"></path><path d="M929.318683 276.409001l17.464764 31.808167 31.941939 17.400355-31.941939 17.3954-17.464764 31.808167-17.464765-31.808167-31.941939-17.390446 31.941939-17.410264z" fill="#FFFFFF" p-id="1935"></path><path d="M929.318683 379.96886l-19.288036-35.12771-35.296165-19.223627 35.296165-19.223627 19.288036-35.12771 19.29299 35.12771 35.296165 19.223627-35.296165 19.223627-19.29299 35.12771z m-44.229206-54.351337l28.587713 15.567174 15.641493 28.488622 15.641492-28.488622 28.587713-15.567174-28.587713-15.572129-15.641492-28.488622-15.641493 28.488622-28.587713 15.572129z" fill="#9C9C9C" p-id="1936"></path><path d="M473.778178 5.063543l19.213718 34.52821 35.132664 18.891673-35.12771 18.886718-19.218672 34.52821-19.208764-34.52821-35.137619-18.886718 35.137619-18.891673z" fill="#FFFFFF" p-id="1937"></path><path d="M473.778178 116.991625l-21.022126-37.783345-38.556254-20.724854 38.556254-20.729808 21.022126-37.783345 21.022126 37.783345 38.556254 20.729808-38.556254 20.724854-21.022126 37.783345z m-49.114385-58.508199l31.71403 17.043628 17.400355 31.273076 17.400355-31.273076 31.71403-17.043628-31.709076-17.048583-17.405309-31.273075-17.400355 31.273075-31.709076 17.048583z" fill="#9C9C9C" p-id="1938"></path><path d="M334.803246 242.227609c-71.246329 0-129.090619 57.695654-129.090619 128.823073 0 71.102647 57.834381 128.823073 129.075755 128.823074 71.271102 0 129.075755-57.720426 129.075755-128.823074 0.019818-71.12742-57.765017-128.823073-129.060891-128.823073m0 188.961317c-33.269756 0-60.257152-26.93785-60.257153-60.138244 0-33.190484 26.987396-60.138243 60.257153-60.138243 33.294529 0 60.23238 26.93785 60.232379 60.138243-0.009909 33.205347-26.93785 60.138243-60.232379 60.138244" fill="#FFFFFF" p-id="1939"></path><path d="M334.793337 502.351027c-72.53451 0-131.553027-58.899608-131.553027-131.300345 0-72.395783 59.023471-131.29539 131.56789-131.29539 35.142574 0 68.179467 13.659675 93.021546 38.462118 24.847033 24.802442 38.526527 57.769972 38.516617 92.838227 0 72.395783-59.008608 131.29539-131.553026 131.29539z m0.009909-257.646146c-69.809511 0-126.613347 56.675018-126.613348 126.340847 0 69.670784 56.793927 126.345802 126.598484 126.345802s126.598484-56.675018 126.598484-126.345802c0.004955-33.740438-13.154312-65.464377-37.059982-89.330411-23.910625-23.866034-55.703927-37.010436-89.523638-37.010436z m0 188.961316c-34.592619 0-62.734424-28.087304-62.734424-62.615515 0-34.523256 28.141804-62.615515 62.734424-62.615514 34.58271 0 62.709651 28.087304 62.709651 62.615514-0.009909 34.52821-28.141804 62.615515-62.709651 62.615515z m0-120.276486c-31.857712 0-57.779881 25.867669-57.779881 57.660971S302.940579 428.711654 334.803246 428.711654c31.832939 0 57.740245-25.867669 57.755108-57.660972 0-31.793303-25.907306-57.660972-57.755108-57.660971z" fill="#9C9C9C" p-id="1940"></path><path d="M622.171696 242.227609c-71.246329 0-129.075755 57.695654-129.075755 128.823073 0 71.102647 57.834381 128.823073 129.075755 128.823074 71.281011 0 129.115392-57.720426 129.115392-128.823074 0-71.12742-57.784835-128.823073-129.115392-128.823073m0 188.961317c-33.254893 0-60.257152-26.93785-60.257152-60.138244 0-33.190484 26.987396-60.138243 60.257152-60.138243 33.304438 0 60.23238 26.93785 60.23238 60.138243s-26.913078 60.138243-60.23238 60.138244" fill="#FFFFFF" p-id="1941"></path><path d="M622.171696 502.351027c-72.53451 0-131.553027-58.899608-131.553026-131.300345 0-72.395783 59.018517-131.29539 131.553026-131.29539 72.564237 0 131.597618 58.899608 131.597618 131.29539 0 72.400737-59.038335 131.300345-131.592663 131.300345z m0-257.646146c-69.809511 0-126.598484 56.675018-126.598483 126.340847 0 69.670784 56.788972 126.345802 126.598483 126.345802 69.82933 0 126.643075-56.675018 126.643075-126.345802 0-69.660875-56.8187-126.340847-126.63812-126.340847z m0 188.961316c-34.58271 0-62.734424-28.087304-62.734424-62.615515 0-34.523256 28.146759-62.615515 62.734424-62.615514 34.58271 0 62.709651 28.087304 62.709651 62.615514s-28.131895 62.615515-62.709651 62.615515z m0-120.276486c-31.857712 0-57.779881 25.867669-57.779881 57.660971s25.917215 57.660972 57.779881 57.660972c31.847803 0 57.755108-25.867669 57.755108-57.660972s-25.91226-57.660972-57.755108-57.660971z" fill="#9C9C9C" p-id="1942"></path><path d="M665.296039 772.561895H291.773039c-15.953629 0-28.929577-12.990812-28.929576-28.870122v-184.64591c0-15.829765 12.990812-28.820577 28.934531-28.820576h373.522999c15.854538 0 28.934531 12.990812 28.934532 28.820576v184.64591c-0.014864 15.87931-13.094857 28.870122-28.944441 28.870122" fill="#FFFFFF" p-id="1943"></path><path d="M665.296039 775.039167H291.773039c-17.316128 0-31.406848-14.065948-31.406848-31.352348v-184.64591c0-17.251719 14.09072-31.292894 31.411803-31.292894h373.527954c17.316128 0 31.411803 14.041175 31.411803 31.292894v184.64591c-0.019818 17.286401-14.115493 31.352348-31.426667 31.352348z m-373.523-242.336609c-14.586175 0-26.452305 11.816585-26.452305 26.338351v184.64591c0 14.556447 11.866131 26.397805 26.45726 26.397805h373.51309c14.576266 0 26.45726-11.846312 26.467169-26.397805v-184.64591c0-14.52672-11.866131-26.338351-26.452305-26.338351H291.773039z" fill="#9C9C9C" p-id="1944"></path><path d="M722.719193 566.928541h36.713163v168.890463h-36.713163z" fill="#FFFFFF" p-id="1945"></path><path d="M761.909628 738.296276h-41.667707v-173.845006h41.667707v173.845006z m-36.713164-4.954543h31.758621v-163.93592h-31.758621v163.93592z" fill="#9C9C9C" p-id="1946"></path><path d="M904.35274 794.223158l-119.136942-58.404154v-168.890463l119.136942-58.409107z" fill="#FFFFFF" p-id="1947"></path><path d="M906.834966 798.196701l-124.091485-60.831879v-171.977144l124.091485-60.836833v293.645856z m-119.136942-63.923514l114.182399 55.976427V512.492977l-114.182399 55.976427v165.803783z" fill="#9C9C9C" p-id="1948"></path><path d="M308.03385 939.321905h-43.986433L357.024371 800.351927h43.996342z" fill="#FFFFFF" p-id="1949"></path><path d="M309.361667 941.799177H259.400055l96.291544-143.929476h49.961612l-96.301453 143.929476z m-40.676798-4.954544h38.026118l89.677229-134.020389h-38.040982l-89.662365 134.020389z" fill="#9C9C9C" p-id="1950"></path><path d="M648.876683 939.321905h44.02607l-92.922455-138.969978h-43.936888z" fill="#FFFFFF" p-id="1951"></path><path d="M697.540205 941.799177H647.558775l-96.142908-143.929476h49.897203l96.232089 143.929476z m-47.335704-4.954544h38.065754l-89.61282-134.020389h-37.976572l89.528592 134.020389z" fill="#9C9C9C" p-id="1952"></path><path d="M357.718007 660.440587l8.447496 2.135408c-1.768772 6.93636-4.954543 12.232767-9.557313 15.874356s-10.226177 5.464861-16.875174 5.464861c-6.88186 0-12.475539-1.397181-16.785992-4.206408-4.310452-2.794362-7.59036-6.857088-9.839722-12.168357s-3.374044-11.018904-3.374044-17.112992c0-6.648997 1.268363-12.445812 3.810043-17.400355 2.541681-4.944634 6.153542-8.710087 10.840541-11.271585 4.686998-2.576362 9.849632-3.854634 15.482947-3.854635 6.386406 0 11.757131 1.62509 16.112174 4.87527s7.387224 7.823223 9.101495 13.71913l-8.318678 1.961999c-1.481408-4.647361-3.626726-8.02636-6.44586-10.146904s-6.356679-3.180817-10.627495-3.180817c-4.904998 0-9.007359 1.174227-12.30213 3.527635s-5.608543 5.504497-6.94627 9.473086a38.036027 38.036027 0 0 0-2.001635 12.25754c0 5.430179 0.792727 10.166722 2.373226 14.219538 1.580499 4.042907 4.042907 7.075087 7.382269 9.076723s6.951224 3.002453 10.84054 3.002453c4.731589 0 8.739814-1.362499 12.019722-4.092452s5.504497-6.782769 6.66386-12.153494zM378.011815 682.825212v-63.839287h8.447496v63.839287h-8.447496zM401.263486 682.825212v-63.839287h8.665496l33.532347 50.120157v-50.120157h8.100678v63.839287h-8.665496l-33.532347-50.164748v50.164748h-8.100678zM465.930182 682.825212v-63.839287h46.156523v7.53586h-37.709028v19.550627h35.315983v7.491269h-35.315983v21.730626h39.190436v7.53586h-47.637931zM524.978425 682.825212v-63.839287h12.713358l15.111356 45.200296c1.392227 4.211362 2.407908 7.357496 3.047044 9.448314 0.723363-2.323681 1.857954-5.732406 3.398817-10.231132l15.284765-44.417478h11.365722v63.839287h-8.145269v-53.429792l-18.549809 53.429792h-7.620087l-18.465582-54.346383v54.346383h-8.140315zM592.518756 682.825212l24.515079-63.839287h9.101496l26.125305 63.839287h-9.621723l-7.446678-19.332627h-26.695078l-7.010678 19.332627h-8.967723z m18.420991-26.214487h21.641444l-6.66386-17.67781c-2.031363-5.370725-3.542498-9.785222-4.528453-13.238539a81.948142 81.948142 0 0 1-3.438452 12.193131l-7.010679 18.723218z" fill="#9C9C9C" p-id="1953"></path></svg>