<?xml version="1.0" standalone="no"?><!DOCTYPE svg PUBLIC "-//W3C//DTD SVG 1.1//EN" "http://www.w3.org/Graphics/SVG/1.1/DTD/svg11.dtd"><svg t="1498457118280" class="icon" style="" viewBox="0 0 1024 1024" version="1.1" xmlns="http://www.w3.org/2000/svg" p-id="3442" xmlns:xlink="http://www.w3.org/1999/xlink" width="200" height="200"><defs><style type="text/css"></style></defs><path d="M835.121212 838.368162 677.893284 838.368162c116.620068-61.372789 196.35711-185.429223 196.35711-328.48129 0-204.021673-162.184823-369.413538-362.250394-369.413538s-362.250394 165.391864-362.250394 369.413538c0 199.205994 154.61952 361.584222 348.149235 369.138268 1.040702 0.164752 2.099824 0.275269 3.185552 0.275269l334.037842 0c11.256368 0 20.466124-9.209756 20.466124-20.466124S846.37758 838.368162 835.121212 838.368162zM699.318246 435.18552c41.256636 0 74.701352 33.444716 74.701352 74.701352s-33.444716 74.701352-74.701352 74.701352-74.701352-33.444716-74.701352-74.701352S658.06161 435.18552 699.318246 435.18552zM512 254.912737c41.256636 0 74.701352 33.444716 74.701352 74.701352 0 41.256636-33.444716 74.701352-74.701352 74.701352s-74.701352-33.444716-74.701352-74.701352C437.298648 288.357454 470.743364 254.912737 512 254.912737zM328.086293 583.394027c-41.256636 0-74.701352-33.444716-74.701352-74.701352 0-41.256636 33.444716-74.701352 74.701352-74.701352 41.256636 0 74.701352 33.444716 74.701352 74.701352C402.787646 549.94931 369.341906 583.394027 328.086293 583.394027zM436.041004 707.150632c0-41.256636 33.444716-74.701352 74.701352-74.701352s74.701352 33.444716 74.701352 74.701352-33.444716 74.701352-74.701352 74.701352S436.041004 748.407268 436.041004 707.150632z" p-id="3443" fill="#999999"></path></svg>