<?xml version="1.0" standalone="no"?><!DOCTYPE svg PUBLIC "-//W3C//DTD SVG 1.1//EN" "http://www.w3.org/Graphics/SVG/1.1/DTD/svg11.dtd"><svg class="icon" width="200px" height="200.00px" viewBox="0 0 1024 1024" version="1.1" xmlns="http://www.w3.org/2000/svg"><path fill="#333333" d="M604.739171 77.124542l-3.631714 4.352121c1.11438-2.099824-7.614421 10.910491-7.614421 10.910491s-8.242731 12.239765-21.666462 42.103934c-11.017938 24.557302-23.154349 54.765301-30.680766 77.800947-9.127891 27.971052-14.683421 47.227628-14.309914 45.994544l-3.949962 19.795858c-1.716084 8.677637 1.26276 21.578458 6.699586 29.78742 4.89038 7.386224 13.077853 12.874215 19.662829 14.635325-2.978844-0.719384 6.55223 4.29277 35.600823 11.815093 12.653181 3.196809 30.108738 6.219655 47.681976 10.778484 23.870664 6.185886 52.461839 31.337729 43.529399 66.543555-11.360745 44.717458-27.986401 102.745059-62.276369 167.029154-39.668465 74.468039-73.55218 118.498858-109.038392 147.916864-12.94073 10.733459-44.50768 16.041348-62.73788-5.285377-17.975397-21.083178-24.585955-34.213219-37.634132-47.053666-12.136412-11.564383-8.585539-9.614985-23.26896-22.903639-0.661056-0.535189-6.437619-4.50664-7.097652-5.101181 0 0-1.51654-0.889253-2.719948-1.619894-12.136412-7.581676-25.327852-6.713912-36.320207 1.713015l-5.865591 3.938706c0 0-22.925129 18.732643-47.965431 44.658106-13.280468 13.709233-29.277814 32.776498-40.410362 47.286979-30.082132 39.133276-34.918277 67.99358-34.918277 67.99358s-1.834788 8.208962-2.487657 12.375865c-2.207271 16.288988 3.001357 28.801976 11.700483 40.093137 17.318434 24.885783 35.172057 36.918841 58.013275 53.550637 49.970088 36.420491 110.935602 54.868655 154.892743 35.895535 68.77641-29.628808 202.057949-163.833369 281.877879-313.580928 79.824023-149.777235 120.462582-341.876368 109.673865-420.99124-7.124258-53.188386-44.418652-89.753163-95.105055-122.44882-17.860786-11.509125-45.766346-25.309432-70.030983-29.684066C640.71657 62.936401 615.761202 63.689554 604.739171 77.124542L604.739171 77.124542 604.739171 77.124542 604.739171 77.124542z" /></svg>