<?xml version="1.0" standalone="no"?><!DOCTYPE svg PUBLIC "-//W3C//DTD SVG 1.1//EN" "http://www.w3.org/Graphics/SVG/1.1/DTD/svg11.dtd"><svg class="icon" width="200px" height="200.00px" viewBox="0 0 1024 1024" version="1.1" xmlns="http://www.w3.org/2000/svg"><path fill="#333333" d="M706.066 472.244h-385.282c-11.817 0-21.406 10.050-21.406 22.441v11.176c0 12.402 9.589 22.452 21.406 22.452h385.282c11.817 0 21.406-10.061 21.406-22.452v-11.176c0.011-12.391-9.589-22.441-21.406-22.441zM504.208 674.462h-184.346c-11.311 0-20.483 10.095-20.483 22.542v11.344c0 12.436 9.172 22.531 20.483 22.531h184.346c11.311 0 20.483-10.084 20.483-22.531v-11.344c0-12.447-9.172-22.542-20.483-22.542zM896.456 0h-766.061c-24.895 0-45.062 20.888-45.062 46.661v929.722c0 25.761 20.168 46.661 45.062 46.661h545.307c8.306-1.733 23.004-6.798 38.479-21.811l204.615-205.201c0 0 17.759-17.118 22.734-45.603v-703.769c-0.011-25.772-20.19-46.661-45.074-46.661zM885.022 789.020c-0.034-0.574-0.113-1.137-0.169-1.699l0.169-0.169v1.868zM885.022 742.011h-174.96c-40.178 0-50.093 12.076-50.093 50.42v115.582l-0.023 0.023v58.939h-493.335c-13.685 0-24.771-11.479-24.771-25.604v-859.675c0-14.158 11.086-25.615 24.771-25.615h693.64c13.685 0 24.771 11.457 24.771 25.615v660.316zM706.066 258.434h-385.282c-11.817 0-21.406 10.084-21.406 22.531v11.344c0 12.436 9.589 22.531 21.406 22.531h385.282c11.817 0 21.406-10.084 21.406-22.531v-11.344c0.011-12.436-9.589-22.531-21.406-22.531z" /></svg>