<?xml version="1.0" standalone="no"?><!DOCTYPE svg PUBLIC "-//W3C//DTD SVG 1.1//EN" "http://www.w3.org/Graphics/SVG/1.1/DTD/svg11.dtd"><svg t="1497338372611" class="icon" style="" viewBox="0 0 1024 1024" version="1.1" xmlns="http://www.w3.org/2000/svg" p-id="5552" xmlns:xlink="http://www.w3.org/1999/xlink" width="200" height="200"><defs><style type="text/css"></style></defs><path d="M840.8 561.312 538.848 1009.888C532.896 1018.688 522.944 1024 512.32 1024L512.288 1024C501.664 1024 491.712 1018.72 485.76 1009.888L183.936 562.432C147.168 503.968 128 437.728 128 370.048 128 166.016 300.256 0 512 0 723.744 0 896 166.016 896 370.048 896 437.6 876.896 503.744 840.8 561.312ZM512 64C335.552 64 192 201.312 192 370.048 192 425.664 207.776 480.096 237.568 527.52L512.256 934.72 787.136 526.4C816.288 479.936 832 425.568 832 370.048 832 201.312 688.448 64 512 64ZM512 544.672C411.68 544.672 330.048 465.728 330.048 368.672 330.048 271.648 411.68 192.672 512 192.672 612.32 192.672 693.92 271.648 693.92 368.672 693.92 465.728 612.32 544.672 512 544.672ZM512 256.672C446.976 256.672 394.048 306.944 394.048 368.672 394.048 430.432 446.976 480.672 512 480.672 577.024 480.672 629.92 430.432 629.92 368.672 629.92 306.944 577.024 256.672 512 256.672Z" p-id="5553" fill="#ff9a00"></path></svg>