<?xml version="1.0" standalone="no"?><!DOCTYPE svg PUBLIC "-//W3C//DTD SVG 1.1//EN" "http://www.w3.org/Graphics/SVG/1.1/DTD/svg11.dtd"><svg class="icon" width="200px" height="200.00px" viewBox="0 0 1024 1024" version="1.1" xmlns="http://www.w3.org/2000/svg"><path fill="#333333" d="M128 128l682.666667 0 0-85.333333-682.666667 0c-46.933333 0-85.333333 38.4-85.333333 85.333333l0 682.666667 85.333333 0L128 128zM981.333333 896 981.333333 298.666667c0-46.933333-38.4-85.333333-85.333333-85.333333l-597.333333 0c-46.933333 0-85.333333 38.4-85.333333 85.333333l0 597.333333c0 46.933333 38.4 85.333333 85.333333 85.333333l597.333333 0C942.933333 981.333333 981.333333 942.933333 981.333333 896zM896 896l-597.333333 0L298.666667 298.666667l597.333333 0L896 896z" /></svg>