<?xml version="1.0" standalone="no"?><!DOCTYPE svg PUBLIC "-//W3C//DTD SVG 1.1//EN" "http://www.w3.org/Graphics/SVG/1.1/DTD/svg11.dtd"><svg t="1497837466985" class="icon" style="" viewBox="0 0 1067 1024" version="1.1" xmlns="http://www.w3.org/2000/svg" p-id="1644" xmlns:xlink="http://www.w3.org/1999/xlink" width="208.3984375" height="200"><defs><style type="text/css"></style></defs><path d="M1035.890733 925.559143c0 53.117485-222.969262 96.179123-498.008293 96.179123s-498.00275-43.061639-498.002751-96.179123 222.969262-96.179123 498.008294-96.179123 498.00275 43.061639 498.00275 96.179123" fill="#D8D8D8" p-id="1645"></path><path d="M1017.963166 557.971958a5.465857 5.465857 0 0 1-5.415965-5.482487V472.286614c0-3.010102 2.433581-5.482487 5.415965-5.482487s5.415966 2.472386 5.415966 5.482487v80.197313c0 3.015645-2.433581 5.488031-5.415966 5.488031" fill="#9C9C9C" p-id="1646"></path><path d="M972.944684 512.388043c0-3.021189 2.439125-5.482487 5.415966-5.482488h79.205032c2.976841 0 5.415966 2.466842 5.415966 5.482488 0 3.021189-2.439125 5.482487-5.415966 5.482487h-79.205032a5.460313 5.460313 0 0 1-5.415966-5.482487M36.597958 630.125702a4.179773 4.179773 0 0 1-4.140969-4.196403v-61.327357c0-2.306082 1.862604-4.196403 4.140969-4.196403s4.140969 1.890322 4.140969 4.196403v61.327357a4.179773 4.179773 0 0 1-4.140969 4.196403" fill="#9C9C9C" p-id="1647"></path><path d="M2.173038 595.268393c0-2.311625 1.868148-4.196403 4.140969-4.196404h60.567902c2.272821 0 4.140969 1.884778 4.140969 4.196404a4.179773 4.179773 0 0 1-4.140969 4.196403H6.314007a4.185316 4.185316 0 0 1-4.140969-4.196403" fill="#9C9C9C" p-id="1648"></path><path d="M71.649289 242.371391l11.61356 21.214841 21.231472 11.602473-21.231472 11.602473-11.61356 21.209298-11.608016-21.209298L38.804257 275.188705l21.237016-11.602473z" fill="#FFFFFF" p-id="1649"></path><path d="M71.649289 313.771224l-13.653555-24.940051-24.973311-13.648011 24.973311-13.642468 13.653555-24.945594 13.653555 24.945594 24.973312 13.642468-24.973312 13.648011-13.653555 24.940051z m-27.063197-38.588062l17.495176 9.562477 9.573565 17.48409 9.573564-17.48409 17.495177-9.562477-17.50072-9.556934-9.573565-17.478547-9.568021 17.478547-17.495176 9.556934z" fill="#9C9C9C" p-id="1650"></path><path d="M928.003811 277.200983l17.439742 31.819491 31.897099 17.417568-31.897099 17.406481-17.439742 31.830578-17.439742-31.830578-31.897099-17.406481 31.897099-17.412025z" fill="#FFFFFF" p-id="1651"></path><path d="M928.003811 381.440305l-19.479737-35.550243-35.638938-19.457563 35.644481-19.446477 19.479738-35.550243 19.48528 35.550243 35.644482 19.457563-35.644482 19.45202-19.490824 35.5447z m-43.54392-55.002263l28.144173 15.355399 15.399747 28.105369 15.399747-28.105369 28.149717-15.355399-28.149717-15.366486-15.399747-28.105369-15.399747 28.105369-28.144173 15.366486z" fill="#9C9C9C" p-id="1652"></path><path d="M473.112591 5.704226l19.18039 34.546876 35.090135 18.903216-35.090135 18.89213-19.18039 34.552419-19.18039-34.552419-35.090136-18.89213 35.090136-18.903216z" fill="#FFFFFF" p-id="1653"></path><path d="M473.112591 118.308637l-21.214842-38.205563-38.898496-20.948756 38.898496-20.954299 21.214842-38.200019 21.214842 38.200019 38.898496 20.954299-38.898496 20.948756-21.214842 38.205563zM424.684878 59.154318l31.270688 16.841048 17.157025 30.893732 17.151481-30.893732 31.270688-16.841048-31.265144-16.846591-17.157025-30.893732-17.157025 30.893732-31.265145 16.846591z" fill="#9C9C9C" p-id="1654"></path><path d="M509.621853 891.843787s-43.821093-31.509057-53.211723-81.926874c-9.39063-50.417817-15.649203-50.417817-50.079666-66.172345-34.430463-15.754528-134.595338-59.869425-103.296933-274.140991s403.791557-248.92931 425.699332 15.754529-122.078193 277.295222-172.163402 311.952967-46.953151 53.566505-46.953151 78.778185 0.005543 15.754528 0.005543 15.754529z" fill="#FFFFFF" p-id="1655"></path><path d="M506.38447 896.345081c-1.862604-1.335975-45.739132-33.404922-55.423567-85.413714-8.315198-44.658157-12.705623-46.637174-41.226751-59.542361l-6.480311-2.94358c-33.975899-15.538333-137.383701-62.813005-105.70834-279.634564 7.722047-52.845855 35.816329-97.99738 81.250571-130.570782C420.150323 308.588084 472.175745 292.262578 525.29323 292.262578c89.033596 0 197.186605 50.451078 208.960925 192.640964 18.565065 224.271976-82.913611 272.056647-143.548034 300.611037-12.339754 5.809552-22.983207 10.826388-30.982428 16.358766-44.857721 31.048949-44.741309 47.379998-44.580548 69.980706l0.01663 21.730384h-6.790745l-1.98456 2.760646zM525.29323 303.349509c-126.291227 0-204.648109 84.044478-216.777211 167.057871-30.472429 208.589513 63.84409 251.717673 99.349985 267.943396l6.435963 2.932493c31.509057 14.252249 38.493823 18.969738 47.551846 67.613646 6.336181 34.02579 29.38591 59.276275 42.219032 71.067226l-0.016631-8.032482c-0.171847-24.036466-0.315978-44.796743 49.359015-79.177315 8.747588-6.059008 19.784628-11.253235 32.567859-17.273438 61.787464-29.092106 155.150507-73.057329 137.222941-289.662693C712.052576 351.139723 609.625968 303.349509 525.29323 303.349509z" fill="#9F9F9F" p-id="1656"></path><path d="M384.694319 414.568054a3.326079 3.326079 0 0 1-3.043362-4.667598c12.711166-28.792759 40.511645-50.772599 41.686859-51.692814a3.326079 3.326079 0 0 1 4.102164 5.238574c-0.277173 0.216195-27.678522 21.902231-39.702299 49.14282a3.326079 3.326079 0 0 1-3.043362 1.979018z" fill="#979797" p-id="1657"></path><path d="M434.785072 396.363314a3.326079 3.326079 0 0 1-2.827168-1.574345c-14.174641-22.82799-39.220017-17.64485-40.278819-17.412024a3.353797 3.353797 0 0 1-3.963577-2.533364 3.320536 3.320536 0 0 1 2.516733-3.963578c0.293804-0.066522 30.66645-6.513572 47.374454 20.394409a3.326079 3.326079 0 0 1-2.821623 5.088902zM591.288184 392.865387a3.326079 3.326079 0 0 1-2.561081-5.449226c0.681846-0.825976 17.140395-20.233648 49.846841-16.946374 1.8238 0.182934 3.154232 1.818257 2.971297 3.642057s-1.862604 3.132058-3.642057 2.976841c-29.136454-2.938037-43.909789 14.396379-44.053919 14.568226a3.303905 3.303905 0 0 1-2.561081 1.208476z" fill="#979797" p-id="1658"></path><path d="M644.499908 417.722285a3.326079 3.326079 0 0 1-3.226297-2.52782c-5.925964-23.864618-39.242191-51.520967-39.580342-51.803683a3.331623 3.331623 0 0 1 4.235207-5.133249c1.441301 1.186302 35.350678 29.352649 41.797729 55.329327a3.326079 3.326079 0 0 1-3.226297 4.135425zM412.86621 508.546421a2.760646 2.760646 0 0 1-1.735105-0.609781c-16.497353-13.282143-16.685831-32.845032-16.68583-33.671008a2.771733 2.771733 0 0 1 2.766189-2.771733h0.005543a2.771733 2.771733 0 0 1 2.771733 2.766189c0 0.177391 0.238369 17.783437 14.618118 29.352649a2.771733 2.771733 0 0 1-1.740648 4.933684zM603.816416 487.392557a3.187493 3.187493 0 0 1-0.72065-0.077608c-98.130423-21.608428-179.159256-0.249456-179.968602-0.038804a3.326079 3.326079 0 0 1-1.740648-6.419333c0.820433-0.221739 83.334914-22.007557 183.13392-0.038804a3.326079 3.326079 0 0 1-0.70402 6.574549z" fill="#979797" p-id="1659"></path><path d="M537.289289 474.265632s-9.39063 34.663289 9.39063 47.263585 50.079666 0 59.470296-37.811977l-68.860926-9.451608z" fill="#ECECEC" p-id="1660"></path><path d="M562.578578 529.023982a31.109927 31.109927 0 0 1-17.439742-5.19977c-20.200388-13.553773-10.92617-48.793582-10.515954-50.290318l0.637498-2.350429 74.326783 10.20552-0.742824 2.993471c-7.655526 30.838298-28.748411 44.641526-46.265761 44.641526z m-23.149512-51.67064c-1.618692 7.738678-5.427053 32.323946 8.79748 41.869793a25.666244 25.666244 0 0 0 14.357575 4.257382c14.795509 0 32.60112-11.608016 40.079254-37.446109l-63.234309-8.681066zM340.878769 695.011964a3.326079 3.326079 0 0 1-1.574344-6.253029c44.225766-23.748205 39.075887-49.663906 39.020452-49.924449a3.326079 3.326079 0 0 1 6.496942-1.430214c0.277173 1.258367 6.241942 31.109927-42.368706 57.208562a3.320536 3.320536 0 0 1-1.574344 0.39913zM703.970204 679.257435c-46.177066 0-53.305962-46.504131-53.372484-46.975325a3.326079 3.326079 0 0 1 6.585637-0.936845c0.243912 1.685213 6.44705 41.260012 46.786847 41.260012a3.326079 3.326079 0 0 1 0 6.652158zM766.572558 679.257435a3.326079 3.326079 0 0 1-3.32608-3.326079c0-0.282717 0.022174-7.00694 2.261734-17.212459a3.326079 3.326079 0 0 1 6.496942 1.430214c-2.067713 9.440521-2.11206 15.726811-2.112061 15.793332a3.314992 3.314992 0 0 1-3.320535 3.314992z m6.918244-32.440359a3.326079 3.326079 0 0 1-3.115427-4.49575c1.995648-5.316183 4.401511-10.538128 7.15107-15.53279a3.309449 3.309449 0 0 1 4.512381-1.308258 3.314992 3.314992 0 0 1 1.308258 4.512381c-2.594342 4.717489-4.867163 9.64563-6.751941 14.668009a3.303905 3.303905 0 0 1-3.104341 2.156408z m16.003985-29.031127a3.326079 3.326079 0 0 1-2.644233-5.338357c3.409231-4.490207 7.206505-8.803023 11.275408-12.822036a3.331623 3.331623 0 0 1 4.678685 4.73412 113.341692 113.341692 0 0 0-10.660084 12.123558 3.337166 3.337166 0 0 1-2.649776 1.302715z m23.787009-23.543098a3.254014 3.254014 0 0 1-2.655319-1.247279c-1.092063-1.480105-1.003367-3.392601 0.471194-4.490207l1.979017 2.67195-1.55217-2.993471a201.726703 201.726703 0 0 1 13.520512-9.179979 3.326079 3.326079 0 1 1 3.509013 5.648791 195.573456 195.573456 0 0 0-13.05486 8.869545 3.680861 3.680861 0 0 1-2.217387 0.72065z m27.955696-17.295611a3.326079 3.326079 0 0 1-1.546627-6.275203 518.934875 518.934875 0 0 1 8.420524-4.279555c2.217386-1.114237 4.35162-2.184125 6.397159-3.242928a3.326079 3.326079 0 0 1 3.065536 5.903791c-2.073256 1.075432-4.235208 2.161951-6.485854 3.292818-2.638689 1.313801-5.404879 2.699668-8.309655 4.224121a3.381514 3.381514 0 0 1-1.541083 0.376956z m28.886998-16.231267a3.326079 3.326079 0 0 1-2.056626-5.942595 50.778142 50.778142 0 0 0 10.610193-11.336386 3.337166 3.337166 0 0 1 5.465857 3.802817 58.38932 58.38932 0 0 1-11.962799 12.766601 3.298362 3.298362 0 0 1-2.056625 0.709563z m19.224737-26.580916a3.320536 3.320536 0 0 1-3.043362-4.667598c1.962387-4.468033 3.819448-9.446065 5.687595-15.222356a3.326079 3.326079 0 0 1 6.336181 2.045539c-1.940213 5.992486-3.880426 11.175626-5.937051 15.848767a3.331623 3.331623 0 0 1-3.043363 1.995648z" fill="#979797" p-id="1661"></path><path d="M804.140622 490.197551a3.326079 3.326079 0 0 1-3.326079-3.326079c0-3.143145 0.14413-6.652158 0.449021-10.416172a3.326079 3.326079 0 1 1 6.629984 0.52663 127.632745 127.632745 0 0 0-0.426847 9.895085 3.326079 3.326079 0 0 1-3.326079 3.320536z m2.378147-26.697329a3.326079 3.326079 0 0 1-3.298362-3.819448c0.837063-5.604443 1.8238-11.219974 2.854885-16.547244a3.326079 3.326079 0 1 1 6.530202 1.258367 392.200171 392.200171 0 0 0-2.79945 16.275614 3.331623 3.331623 0 0 1-3.287275 2.832711z m6.236398-32.711989a3.326079 3.326079 0 0 1-3.24847-4.057816c2.195212-9.745412 3.93586-16.342136 3.93586-16.342136a3.326079 3.326079 0 0 1 6.43042 1.701844c-0.005543 0.027717-1.724018 6.513572-3.880426 16.098223a3.314992 3.314992 0 0 1-3.237384 2.599885z" fill="#979797" p-id="1662"></path><path d="M257.826572 615.041933a3.331623 3.331623 0 0 1-3.220754-2.51119 73.096134 73.096134 0 0 0-5.61553-14.850943 3.337166 3.337166 0 0 1 1.474562-4.473577 3.337166 3.337166 0 0 1 4.468033 1.474562c2.683037 5.32727 4.745206 10.776497 6.119986 16.214636a3.326079 3.326079 0 0 1-3.226297 4.146512z m-14.723444-29.579931a3.326079 3.326079 0 0 1-2.63869-1.291627 98.451944 98.451944 0 0 0-10.831931-11.857472 3.326079 3.326079 0 1 1 4.534555-4.861619c4.268468 3.974665 8.154437 8.232046 11.563669 12.655731a3.326079 3.326079 0 0 1-2.627603 5.354987z m-26.215048-23.40451a133.542079 133.542079 0 0 1-13.171273-10.460519 3.326079 3.326079 0 0 1 4.468033-4.939228c3.885969 3.5201 8.093459 6.86281 12.517145 9.95052l-1.735105 2.849342-2.0788 2.599885z m-22.473208-21.558537a3.309449 3.309449 0 0 1-2.549994-1.186301 120.293197 120.293197 0 0 1-10.044759-13.830946 3.326079 3.326079 0 0 1 5.654335-3.509014 113.779626 113.779626 0 0 0 9.484869 13.060404 3.326079 3.326079 0 0 1-2.544451 5.465857z m-17.461916-28.177434a3.326079 3.326079 0 0 1-3.059993-2.017821c-4.157599-9.723238-5.282922-16.314418-5.32727-16.591592a3.326079 3.326079 0 1 1 6.55792-1.086519c0.011087 0.060978 1.064345 6.147703 4.883793 15.061595a3.331623 3.331623 0 0 1-3.05445 4.634337z" fill="#979797" p-id="1663"></path></svg>