<?xml version="1.0" standalone="no"?><!DOCTYPE svg PUBLIC "-//W3C//DTD SVG 1.1//EN" "http://www.w3.org/Graphics/SVG/1.1/DTD/svg11.dtd"><svg t="1494925820522" class="icon" style="" viewBox="0 0 1024 1024" version="1.1" xmlns="http://www.w3.org/2000/svg" p-id="1438" xmlns:xlink="http://www.w3.org/1999/xlink" width="200" height="200"><defs><style type="text/css"></style></defs><path d="M599.7568 931.84C594.3296 931.84 588.88192 930.42688 584.04864 927.60064L408.59648 825.20064C399.13472 819.67104 393.33888 809.59488 393.33888 798.72L393.33888 552.20224 109.75232 140.20608C103.28064 130.80576 102.58432 118.59968 107.95008 108.544 113.31584 98.46784 123.82208 92.16 135.31136 92.16L888.7296 92.16C900.21888 92.16 910.7456 98.46784 916.11136 108.544 921.45664 118.59968 920.7808 130.80576 914.28864 140.20608L630.70208 552.20224 630.70208 901.12C630.70208 912.13824 624.76288 922.3168 615.13728 927.78496 610.34496 930.48832 605.04064 931.84 599.7568 931.84ZM455.2704 781.14816 568.79104 847.40096 568.79104 542.72C568.79104 536.53504 570.65472 530.49344 574.19776 525.39392L830.09536 153.6 193.96608 153.6 449.86368 525.39392C453.38624 530.49344 455.2704 536.53504 455.2704 542.72L455.2704 781.14816Z" p-id="1439" fill="#ff9a00"></path></svg>