<?xml version="1.0" encoding="UTF-8" standalone="no"?>
<svg width="98px" height="78px" viewBox="0 0 98 78" version="1.1" xmlns="http://www.w3.org/2000/svg" xmlns:xlink="http://www.w3.org/1999/xlink">
    <!-- Generator: Sketch 46.2 (44496) - http://www.bohemiancoding.com/sketch -->
    <title>Group 2</title>
    <desc>Created with Sketch.</desc>
    <defs></defs>
    <g id="电影－h5" stroke="none" stroke-width="1" fill="none" fill-rule="evenodd">
        <g id="选择影院-有筛选" transform="translate(-652.000000, -388.000000)">
            <g id="Group-2" transform="translate(652.000000, 388.000000)">
                <polygon id="Rectangle-35" fill="#FFAB00" points="0.595905627 0 98 0 98 78.0293411"></polygon>
                <path d="M54.6466571,27.6279137 L49.5866571,27.6279137 L49.5866571,22.5679137 L61.4546571,22.5679137 L61.4546571,27.6279137 L56.3486571,27.6279137 L56.3486571,29.4679137 L63.6626571,29.4679137 L63.6626571,33.6539137 C63.6626571,35.0339137 62.9496571,35.7239137 61.5696571,35.7239137 L59.7296571,35.7239137 L59.2926571,34.1369137 L61.0406571,34.2059137 C61.6846571,34.2059137 62.0296571,33.8839137 62.0296571,33.2859137 L62.0296571,30.9859137 L56.3486571,30.9859137 L56.3486571,36.9659137 L54.6466571,36.9659137 L54.6466571,30.9859137 L49.0806571,30.9859137 L49.0806571,35.8619137 L47.4476571,35.8619137 L47.4476571,29.4679137 L54.6466571,29.4679137 L54.6466571,27.6279137 Z M54.6466571,15.7139137 L56.3486571,15.7139137 L56.3486571,19.2329137 L59.2696571,19.2329137 C59.9826571,18.2209137 60.6036571,17.1629137 61.1096571,16.0359137 L62.6506571,16.6109137 C62.1216571,17.6229137 61.5696571,18.4969137 61.0176571,19.2329137 L65.0656571,19.2329137 L65.0656571,23.8789137 L63.3636571,23.8789137 L63.3636571,20.7969137 L47.6316571,20.7969137 L47.6316571,23.9019137 L45.9296571,23.9019137 L45.9296571,19.2329137 L49.6786571,19.2329137 C49.2416571,18.3589137 48.7126571,17.5309137 48.1146571,16.7719137 L49.6786571,16.1969137 C50.2766571,17.0479137 50.8286571,18.0599137 51.3116571,19.2329137 L54.6466571,19.2329137 L54.6466571,15.7139137 Z M59.8676571,26.2249137 L59.8676571,23.9709137 L51.1966571,23.9709137 L51.1966571,26.2249137 L59.8676571,26.2249137 Z M82.4996571,28.1799137 L81.1656571,29.0309137 C82.3846571,30.6409137 83.4886571,32.1819137 84.4546571,33.6539137 C82.2466571,33.9299137 78.3366571,34.2749137 72.7706571,34.7119137 C74.4496571,33.0789137 76.1056571,30.5489137 77.7386571,27.0989137 L88.7096571,27.0989137 L88.7096571,25.4889137 L79.3486571,25.4889137 L79.3486571,21.1419137 L87.2376571,21.1419137 L87.2376571,19.5319137 L79.3486571,19.5319137 L79.3486571,15.8749137 L77.6466571,15.8749137 L77.6466571,19.5319137 L69.7116571,19.5319137 L69.7116571,21.1419137 L77.6466571,21.1419137 L77.6466571,25.4889137 L68.2626571,25.4889137 L68.2626571,27.0989137 L75.8986571,27.0989137 C73.8286571,31.2389137 71.8046571,33.8379137 69.8266571,34.9189137 L70.1256571,36.2759137 C74.9096571,35.9999137 79.9696571,35.5859137 85.3056571,35.0339137 C85.7196571,35.7239137 86.1106571,36.4139137 86.4786571,37.0809137 L87.8816571,36.0919137 C86.6396571,33.8379137 84.8456571,31.2159137 82.4996571,28.1799137 Z" id="常去" fill="#FFFFFF" transform="translate(67.319657, 26.397414) rotate(39.000000) translate(-67.319657, -26.397414) "></path>
            </g>
        </g>
    </g>
</svg>