<?xml version="1.0" standalone="no"?><!DOCTYPE svg PUBLIC "-//W3C//DTD SVG 1.1//EN" "http://www.w3.org/Graphics/SVG/1.1/DTD/svg11.dtd"><svg t="1494906920934" class="icon" style="" viewBox="0 0 1024 1024" version="1.1" xmlns="http://www.w3.org/2000/svg" p-id="3499" xmlns:xlink="http://www.w3.org/1999/xlink" width="56" height="56"><defs><style type="text/css"></style></defs><path d="M584.763392 120.11008h0.879616m-0.879616 0l-63.121408 332.269568 229.700608 0.879616-312.105984 450.63168 63.121408-365.585408-229.700608-0.879616 312.105984-417.31584z m0-56.11008h-4.380672c-12.27264 1.75104-24.544256 7.011328-35.946496 20.163584l-2.630656 3.501056-314.73664 415.563776c-13.152256 18.413568-14.903296 38.577152-4.389888 58.740736 9.6512 18.413568 28.935168 30.685184 49.978368 30.685184l162.189312 0.879616-51.720192 300.713984c-4.389888 25.424896 9.641984 50.848768 33.306624 61.370368 7.020544 3.510272 14.911488 4.380672 22.803456 4.380672 16.653312 0 31.556608-7.890944 42.957824-22.79424l314.73664-450.630656c13.152256-18.412544 14.903296-38.577152 4.389888-58.740736-10.5216-20.163584-27.184128-30.685184-49.978368-30.685184H589.15328l50.848768-263.896064c0.8704-4.380672 1.75104-8.762368 1.75104-13.14304 0-30.685184-25.424896-56.11008-54.35904-56.11008h-2.630656z" fill="#ffab00" p-id="3500"></path></svg>