<?xml version="1.0" standalone="no"?><!DOCTYPE svg PUBLIC "-//W3C//DTD SVG 1.1//EN" "http://www.w3.org/Graphics/SVG/1.1/DTD/svg11.dtd"><svg t="1494906997224" class="icon" style="" viewBox="0 0 1024 1024" version="1.1" xmlns="http://www.w3.org/2000/svg" p-id="4009" xmlns:xlink="http://www.w3.org/1999/xlink" width="56" height="56"><defs><style type="text/css"></style></defs><path d="M905.97698 967.619922 136.708592 967.619922c-21.864984 0-39.717583-17.505699-40.278355-39.240723-22.215978-222.036979-21.027919-436.736852-16.114003-577.823148C85.388762 204.912973 95.379301 105.454774 96.43126 95.262644c0.584308-21.711488 18.427698-39.194674 40.277332-39.194674l189.584869 0c21.844517 0 39.684838 17.472953 40.277332 39.176254 1.064238 10.147104 11.059893 107.786888 16.791431 247.804852 5.563716 135.938042 8.145517 340.959485-11.150968 545.706683-0.953721 10.126638-9.93221 17.553795-20.066011 16.609283-10.127661-0.955768-17.565051-9.939373-16.609283-20.066011 19.091824-202.574718 16.537651-405.685649 11.032264-540.402887-5.970992-146.139381-16.607236-245.567905-16.71366-246.555395-0.071631-0.657986-0.106424-1.319042-0.106424-1.981121 0-1.904373-1.549286-3.453658-3.453658-3.453658L136.708592 92.90597c-1.904373 0-3.453658 1.549286-3.453658 3.453658 0 0.652869-0.034792 1.304715-0.104377 1.953492-0.106424 1.00284-10.753925 102.040001-16.032138 253.905804-4.865821 140.02308-6.03239 353.142969 16.044418 573.265342 0.061398 0.610914 0.092098 1.223874 0.092098 1.837858 0 1.906419 1.549286 3.457752 3.453658 3.457752l769.268388 0c1.904373 0 3.453658-1.551332 3.453658-3.457752L909.430638 96.081289c0-1.906419-1.549286-3.457752-3.453658-3.457752L519.033184 92.623537c-6.105045 0.205685-70.472028 1.87879-109.388363-16.802688-9.17087-4.402263-13.036921-15.405875-8.634658-24.576745 4.402263-9.17087 15.406898-13.035898 24.576745-8.633634 26.456558 12.700253 75.685773 13.820774 92.419899 13.18837 0.234337-0.00921 0.467651-0.013303 0.701988-0.013303l387.268184 0c22.218024 0 40.292682 18.077727 40.292682 40.296775L946.269661 927.323147C946.269661 949.543218 928.195004 967.619922 905.97698 967.619922zM533.467941 763.368004l-58.71117 0c-10.172687 0-18.419512-8.246825-18.419512-18.419512s8.246825-18.419512 18.419512-18.419512l58.71117 0c10.172687 0 18.419512 8.246825 18.419512 18.419512S543.641651 763.368004 533.467941 763.368004zM683.184801 763.368004l-58.710147 0c-10.172687 0-18.419512-8.246825-18.419512-18.419512s8.246825-18.419512 18.419512-18.419512l58.710147 0c10.172687 0 18.419512 8.246825 18.419512 18.419512S693.357488 763.368004 683.184801 763.368004zM838.123592 763.368004l-58.710147 0c-10.172687 0-18.419512-8.246825-18.419512-18.419512s8.246825-18.419512 18.419512-18.419512l58.710147 0c10.172687 0 18.419512 8.246825 18.419512 18.419512S848.296279 763.368004 838.123592 763.368004zM533.467941 648.502907l-58.71117 0c-10.172687 0-18.419512-8.246825-18.419512-18.419512s8.246825-18.419512 18.419512-18.419512l58.71117 0c10.172687 0 18.419512 8.246825 18.419512 18.419512S543.641651 648.502907 533.467941 648.502907zM683.184801 648.502907l-58.710147 0c-10.172687 0-18.419512-8.246825-18.419512-18.419512s8.246825-18.419512 18.419512-18.419512l58.710147 0c10.172687 0 18.419512 8.246825 18.419512 18.419512S693.357488 648.502907 683.184801 648.502907zM838.123592 648.502907l-58.710147 0c-10.172687 0-18.419512-8.246825-18.419512-18.419512s8.246825-18.419512 18.419512-18.419512l58.710147 0c10.172687 0 18.419512 8.246825 18.419512 18.419512S848.296279 648.502907 838.123592 648.502907zM533.467941 533.63167l-58.71117 0c-10.172687 0-18.419512-8.246825-18.419512-18.419512s8.246825-18.419512 18.419512-18.419512l58.71117 0c10.172687 0 18.419512 8.246825 18.419512 18.419512S543.641651 533.63167 533.467941 533.63167zM683.184801 533.63167l-58.710147 0c-10.172687 0-18.419512-8.246825-18.419512-18.419512s8.246825-18.419512 18.419512-18.419512l58.710147 0c10.172687 0 18.419512 8.246825 18.419512 18.419512S693.357488 533.63167 683.184801 533.63167zM838.123592 533.63167l-58.710147 0c-10.172687 0-18.419512-8.246825-18.419512-18.419512s8.246825-18.419512 18.419512-18.419512l58.710147 0c10.172687 0 18.419512 8.246825 18.419512 18.419512S848.296279 533.63167 838.123592 533.63167zM822.976614 415.613766 490.341724 415.613766c-22.989597 0-41.693588-18.702967-41.693588-41.693588L448.648137 184.307679c0-22.989597 18.703991-41.693588 41.693588-41.693588l332.63489 0c22.99062 0 41.693588 18.702967 41.693588 41.693588l0 189.612499C864.670202 396.910798 845.967234 415.613766 822.976614 415.613766zM490.341724 179.453115c-2.676969 0-4.854565 2.177596-4.854565 4.854565l0 189.612499c0 2.676969 2.177596 4.854565 4.854565 4.854565l332.63489 0c2.676969 0 4.854565-2.177596 4.854565-4.854565L827.831178 184.307679c0-2.676969-2.177596-4.854565-4.854565-4.854565L490.341724 179.453115z" p-id="4010" fill="#20a0ef"></path></svg>