<?xml version="1.0" standalone="no"?><!DOCTYPE svg PUBLIC "-//W3C//DTD SVG 1.1//EN" "http://www.w3.org/Graphics/SVG/1.1/DTD/svg11.dtd"><svg t="1494388635581" class="icon" style="" viewBox="0 0 1024 1024" version="1.1" xmlns="http://www.w3.org/2000/svg" p-id="4094" xmlns:xlink="http://www.w3.org/1999/xlink" width="56" height="56"><defs><style type="text/css"></style></defs><path d="M947.122 538.789l-435.108-407.222-435.108 406.027c-8.508 7.945-8.986 21.305-1.027 29.812 7.945 8.508 21.305 8.986 29.813 1.027l406.294-379.125 406.308 380.278c4.078 3.811 9.253 5.695 14.414 5.695 5.625 0 11.25-2.236 15.398-6.68 7.959-8.508 7.523-21.853-0.984-29.813z" p-id="4095" fill="#cccccc"></path><path d="M814.344 547.156c-11.644 0-21.094 9.45-21.094 21.094v323.438h-168.75v-225h-225v225h-168.75v-323.438c0-11.644-9.436-21.094-21.094-21.094s-21.094 9.45-21.094 21.094v365.625h253.125v-225h140.625v225h253.125v-365.625c0-11.644-9.45-21.094-21.094-21.094z" p-id="4096" fill="#cccccc"></path><path d="M666.688 244.812h126.563v112.5c0 11.658 9.45 21.094 21.094 21.094s21.094-9.436 21.094-21.094v-154.688h-168.75c-11.644 0-21.094 9.436-21.094 21.094s9.45 21.094 21.094 21.094z" p-id="4097" fill="#cccccc"></path></svg>