<?xml version="1.0" standalone="no"?><!DOCTYPE svg PUBLIC "-//W3C//DTD SVG 1.1//EN" "http://www.w3.org/Graphics/SVG/1.1/DTD/svg11.dtd"><svg t="1494907022830" class="icon" style="" viewBox="0 0 1024 1024" version="1.1" xmlns="http://www.w3.org/2000/svg" p-id="4178" xmlns:xlink="http://www.w3.org/1999/xlink" width="56" height="56"><defs><style type="text/css"></style></defs><path d="M988.357 510.713l-0.685-144.459c0.685-8.628 2.853-48.961-12.557-86.316-17.626-42.757-76.047-77.377-82.988-81.424l-312.524-173.718c-2.878-1.291-29.314-12.674-70.271-12.674-38.948 0-65.386 11.385-68.262 12.674l-312.842 173.942c-6.598 3.803-64.997 38.445-82.669 81.2-15.41 37.355-13.242 77.71-12.557 86.292 0 0-0.594 112.041-0.594 131.451 0 19.411 5.389 29.661 17.533 39.888 13.196 11.118 46.962 12.295 51.367 12.295h128.694c19.566 133.786 137.666 237.066 280.355 237.066 107.415 0 200.928-58.566 248.964-144.659 1.051-1.867 10.137-23.391-10.571-33.82-23.743-11.962-41.825 15.631-41.825 15.631-39.815 65.437-112.942 109.484-196.569 109.484-112.438 0-205.951-79.467-224.992-183.702h464.457c0 0 21.758 2.311 34.246-10.205 10.571-10.583 9.818-15.542 9.818-28.838 0-152.263-127.21-276.132-283.529-276.132-151.387 0-275.058 116.22-282.798 261.79h-99.836c-12.853 0-21.849 1.467-31.414-6.159-7.831-6.247-8.949-12.851-8.949-27.26 0-14.431 0.297-100.567 0.297-100.567-0.022-0.334-3.083-33.974 8.743-62.657 8.128-19.655 40.979-44.291 59.381-54.987l308.939-171.873c3.949-1.489 21.186-7.493 46.642-7.493 23.812 0 40.912 6.071 44.542 7.472l308.665 171.696c15.822 9.138 51.232 34.641 59.724 55.187 11.849 28.751 8.743 62.39 8.721 62.657l-0.138 1.401 0.662 146.815-0.662 145.636 0.138 2.801c0.046 0.334 3.105 33.998-8.721 62.657-8.15 19.655-40.958 44.315-59.381 54.964l-309.005 171.94c-3.653 1.379-20.731 7.471-44.496 7.471h-2.146c-23.789 0-40.865-6.092-44.496-7.471l-308.62-171.718c-15.822-9.116-51.253-34.663-59.747-55.187-11.872-28.726-8.767-62.39-8.743-62.657l0.159-1.401-0.068-14.207c0 0-5.342-22.235-29.246-21.19-23.903 1.045-25.547 21.19-25.547 21.19l0.046 11.851c-0.685 8.605-2.853 48.983 12.557 86.316 17.67 42.757 76.070 77.421 83.034 81.401l312.477 173.742c2.878 1.267 29.291 12.674 69.085 12.674h1.255c38.926 0 65.316-11.406 68.218-12.674l312.843-173.941c6.598-3.803 65.021-38.445 82.644-81.2 15.41-37.331 13.242-77.687 12.557-86.316l0.685-144.681zM510.362 288.054c112.896 0 206.773 80.178 225.174 185.147 1.347 7.627 3.242 12.963-3.174 19.212-6.438 6.247-19.633 4.068-19.633 4.068h-430.351c7.648-116.133 106.822-208.428 227.983-208.428z" p-id="4179" fill="#ffab00"></path></svg>