<?xml version="1.0" standalone="no"?><!DOCTYPE svg PUBLIC "-//W3C//DTD SVG 1.1//EN" "http://www.w3.org/Graphics/SVG/1.1/DTD/svg11.dtd"><svg class="icon" width="56px" height="56.00px" viewBox="0 0 1024 1024" version="1.1" xmlns="http://www.w3.org/2000/svg"><path fill="#eeeeee" d="M623.578214 1011.712l4.096-43.008s4.096-45.056-22.528-90.112c-30.72-53.248-83.968-108.544-106.496-120.832-20.48 12.288-71.68 73.728-104.448 129.024-26.624 45.056-22.528 90.112-22.528 90.112l4.096 34.816-34.816-2.048C224.218214 999.424 115.674214 892.928 76.762214 759.808 33.754214 614.4 74.714214 466.944 187.354214 374.784 420.826214 178.176 439.258214 65.536 441.306214 65.536l4.096-47.104 38.912 24.576C764.890214 221.184 816.090214 487.424 818.138214 499.712c2.048 16.384-8.192 30.72-22.528 34.816-16.384 2.048-30.72-8.192-34.816-24.576 0-4.096-45.056-233.472-274.432-395.264-22.528 53.248-86.016 157.696-264.192 305.152-92.16 77.824-126.976 198.656-90.112 321.536 28.672 100.352 104.448 182.272 184.32 202.752 2.048-22.528 4.096-63.488 24.576-96.256 34.816-59.392 118.784-147.456 155.648-151.552 43.008-6.144 133.12 94.208 163.84 151.552 16.384 28.672 24.576 57.344 28.672 79.872 55.296-24.576 159.744-86.016 198.656-200.704 40.96-122.88 2.048-272.384-116.736-448.512-8.192-14.336-6.144-32.768 8.192-40.96 12.288-10.24 30.72-6.144 40.96 8.192 131.072 192.512 172.032 362.496 124.928 503.808-63.488 186.368-264.192 249.856-272.384 251.904l-49.152 10.24z"  /></svg>