<?xml version="1.0" standalone="no"?><!DOCTYPE svg PUBLIC "-//W3C//DTD SVG 1.1//EN" "http://www.w3.org/Graphics/SVG/1.1/DTD/svg11.dtd"><svg t="1494906901177" class="icon" style="" viewBox="0 0 1024 1024" version="1.1" xmlns="http://www.w3.org/2000/svg" p-id="3329" xmlns:xlink="http://www.w3.org/1999/xlink" width="56" height="56"><defs><style type="text/css"></style></defs><path d="M528.2 120.7c30.7 37.4 83.3 103.4 135.5 178.2 46.9 67.2 84.2 128.1 110.8 180.9 15.4 30.6 27.3 58.7 35.3 83.3 8.2 25.5 12.4 47.5 12.4 65.5 0 39.7-7.8 78.2-23.1 114.4-14.8 35-36 66.5-63 93.5s-58.5 48.2-93.5 63c-36.2 15.3-74.7 23.1-114.4 23.1s-78.2-7.8-114.4-23.1c-35-14.8-66.5-36-93.5-63s-48.2-58.5-63-93.5c-15.3-36.2-23.1-74.7-23.1-114.4 0-17.9 4.2-39.9 12.4-65.4 8-24.6 19.8-52.6 35.2-83.2 26.5-52.7 63.8-113.5 110.6-180.7 52.2-74.9 104.9-141.1 135.8-178.6m0-56.1s-330 381.7-330 564 147.7 330 330 330 330-147.7 330-330-330-564-330-564z" p-id="3330" fill="#20a0ff"></path><path d="M527.2 855c-7.7 0-14-6.3-14-14s6.3-14 14-14c109.4 0 198.4-89 198.4-198.4 0-7.7 6.3-14 14-14s14 6.3 14 14c0 60.5-23.6 117.3-66.3 160.1-42.8 42.7-99.6 66.3-160.1 66.3z" p-id="3331" fill="#20a0ff"></path></svg>