<?xml version="1.0" standalone="no"?><!DOCTYPE svg PUBLIC "-//W3C//DTD SVG 1.1//EN" "http://www.w3.org/Graphics/SVG/1.1/DTD/svg11.dtd"><svg t="1499170562725" class="icon" style="" viewBox="0 0 1024 1024" version="1.1" xmlns="http://www.w3.org/2000/svg" p-id="2589" xmlns:xlink="http://www.w3.org/1999/xlink" width="112" height="112"><defs><style type="text/css"></style></defs><path d="M467.456 90.624L72.192 480.256c-13.312 12.8-13.312 33.792 0 47.104 13.312 12.8 34.304 12.8 47.616 0L512 140.288l392.192 386.56c13.312 12.8 34.304 12.8 47.616 0 13.312-12.8 13.312-33.792 0-47.104l-395.264-389.632c-8.704-10.24-32.768-28.16-43.008-27.648-12.288-4.096-31.744 11.776-46.08 28.16z m-241.152 511.488c-18.432 0-44.032 14.848-44.032 33.28v237.568c0 48.64 39.936 88.576 89.6 88.576h479.744c49.664 0 89.6-39.424 89.6-88.576v-237.568c0-18.432-3.072-33.28-22.016-33.28-18.432 0-37.888 14.848-37.888 33.28v190.976c0 41.472-34.304 75.264-76.288 75.264H318.464c-41.984 0-76.288-33.792-76.288-75.264v-190.976c0-18.432 3.072-33.28-15.872-33.28z" fill="#ffab00" p-id="2590"></path><path d="M529.408 683.52c0 9.728-7.68 17.408-17.408 17.408s-17.408-7.68-17.408-17.408V373.248c0-9.728 7.68-17.408 17.408-17.408s17.408 7.68 17.408 17.408v310.272z" fill="#ffab00" p-id="2591"></path><path d="M667.136 510.976c9.728 0 17.408 7.68 17.408 17.408s-7.68 17.408-17.408 17.408H356.864c-9.728 0-17.408-7.68-17.408-17.408s7.68-17.408 17.408-17.408h310.272z" fill="#ffab00" p-id="2592"></path></svg>