<?xml version="1.0" standalone="no"?><!DOCTYPE svg PUBLIC "-//W3C//DTD SVG 1.1//EN" "http://www.w3.org/Graphics/SVG/1.1/DTD/svg11.dtd"><svg class="icon" width="56px" height="55.57px" viewBox="0 0 1032 1024" version="1.1" xmlns="http://www.w3.org/2000/svg"><path fill="#eeeeee" d="M980.305229 345.914 605.001229 85.685c-67.42-53.437-137.495-22.382-166.69 2.597L39.317229 361.679c-17.455 11.595-45.62 35.375-38.05 64.275 5.195 19.855 23.61 31.022 54.765 33.207 0.65 0.06 1.285 0.078 1.925 0.078l93.07 0.12 0 413.629c0 58.57 45.27 106.19 100.915 106.19L527.431229 979.178c8.135 0 15.285-3.59 20.41-9.12 5.64-5.16 9.315-12.43 9.315-20.69L557.156229 703.558l135.435 0c15.475 0 28.035-12.62 28.035-28.17 0-15.55-12.56-28.2-28.035-28.2L557.161229 647.188l0-62.18 135.435 0c15.475 0 28.035-12.63 28.035-28.17 0-15.58-12.56-28.21-28.035-28.21l-96.66 0 100.245-107.367c10.58-11.367 9.99-29.175-1.29-39.852-11.285-10.61-29.065-10.06-39.62 1.292L528.586229 518.429l-122.68-136.63c-10.365-11.537-28.09-12.447-39.605-2.047-11.505 10.432-12.41 28.252-2.045 39.805l97.93 109.072-96.5 0c-15.475 0-28.055 12.63-28.055 28.21 0 15.545 12.565 28.17 28.055 28.17L501.101229 585.009l0 62.185L365.686229 647.194c-15.475 0-28.055 12.645-28.055 28.2 0 15.55 12.565 28.17 28.055 28.17L501.101229 703.564l0 219.254L251.927229 922.818c-24.73 0-44.835-22.37-44.835-49.83L207.092229 435.664c0-1.265-0.57-2.327-0.72-3.542 0.03-0.29 0.18-0.538 0.18-0.842 0.035-15.565-12.5-28.192-28.005-28.242l-99.87-0.138L471.246229 133.92c0.875-0.602 1.86-1.385 2.66-2.077 4.89-4.185 48.955-39.977 96.88-1.478 0.55 0.398 1.07 0.783 1.605 1.183l375.394 260.327c6.325 4.628 13.09 10.687 18.395 16.192-3.56 0.17-7.84 0.295-13.015 0.155l-89.265 0.382c-0.255 0-0.46 0.14-0.715 0.14-0.285 0-0.485-0.14-0.77-0.14-15.49 0-28.05 12.615-28.05 28.195l0.155 436.179c0 27.47-20.125 49.82-44.835 49.82L647.171229 922.798c-15.465 0-28.035 12.61-28.035 28.19 0 15.55 12.57 28.17 28.035 28.17l142.515 0c55.645 0 100.92-47.63 100.92-106.18l-0.095-408.139 62.195-0.262c17.655 0.307 64.73 1.4 76.525-33.572C1040.770229 396.762 1003.920229 363.264 980.305229 345.914" /></svg>