<?xml version="1.0" standalone="no"?><!DOCTYPE svg PUBLIC "-//W3C//DTD SVG 1.1//EN" "http://www.w3.org/Graphics/SVG/1.1/DTD/svg11.dtd"><svg t="1494906966999" class="icon" style="" viewBox="0 0 1024 1024" version="1.1" xmlns="http://www.w3.org/2000/svg" p-id="3837" xmlns:xlink="http://www.w3.org/1999/xlink" width="56" height="56"><defs><style type="text/css"></style></defs><path d="M788.48 677.888 235.52 677.888c-10.24 0-18.432-8.192-18.432-18.432l0-379.904c0-10.24 8.192-18.432 18.432-18.432l551.936 0c10.24 0 18.432 8.192 18.432 18.432l0 379.904C805.888 670.72 797.696 677.888 788.48 677.888zM253.952 643.072l516.096 0 0-344.064-516.096 0L253.952 643.072z" p-id="3838" fill="#13ce66"></path><path d="M708.608 609.28l-58.368 0c-10.24 0-18.432-8.192-18.432-18.432s8.192-18.432 18.432-18.432l58.368 0c10.24 0 18.432 8.192 18.432 18.432S717.824 609.28 708.608 609.28z" p-id="3839" fill="#13ce66"></path><path d="M512 747.52c-10.24 0-18.432-8.192-18.432-18.432L493.568 665.6c0-10.24 8.192-18.432 18.432-18.432s18.432 8.192 18.432 18.432l0 64.512C529.408 740.352 521.216 747.52 512 747.52z" p-id="3840" fill="#13ce66"></path><path d="M634.88 760.832l-245.76 0c-10.24 0-18.432-8.192-18.432-18.432s8.192-18.432 18.432-18.432l245.76 0c10.24 0 18.432 8.192 18.432 18.432S644.096 760.832 634.88 760.832z" p-id="3841" fill="#13ce66"></path></svg>
