<?xml version="1.0" standalone="no"?><!DOCTYPE svg PUBLIC "-//W3C//DTD SVG 1.1//EN" "http://www.w3.org/Graphics/SVG/1.1/DTD/svg11.dtd"><svg t="1502245238332" class="icon" style="" viewBox="0 0 1024 1024" version="1.1" xmlns="http://www.w3.org/2000/svg" p-id="7916" xmlns:xlink="http://www.w3.org/1999/xlink" width="112" height="112"><defs><style type="text/css"></style></defs><path d="M511.559467 63.819514c-247.310595 0-447.802886 200.493314-447.802886 447.802886 0 247.281943 200.493314 447.775256 447.802886 447.775256 247.28092 0 447.775256-200.493314 447.775256-447.775256C959.334723 264.312828 758.84141 63.819514 511.559467 63.819514zM719.812511 542.80561 540.077987 542.80561l0 179.678242c0 16.386202-13.261025 29.647227-29.647227 29.647227-16.387225 0-29.647227-13.261025-29.647227-29.647227L480.783533 542.80561 301.076638 542.80561c-16.387225 0-29.647227-13.260002-29.647227-29.647227 0-16.387225 13.260002-29.647227 29.647227-29.647227l179.707918 0L480.784556 303.745932c0-16.387225 13.260002-29.647227 29.647227-29.647227 16.386202 0 29.647227 13.260002 29.647227 29.647227l0 179.765223 179.734524 0c16.388249 0 29.649274 13.260002 29.649274 29.647227C749.461785 529.545608 736.20076 542.80561 719.812511 542.80561z" p-id="7917" fill="#cccccc"></path></svg>