<?xml version="1.0" standalone="no"?><!DOCTYPE svg PUBLIC "-//W3C//DTD SVG 1.1//EN" "http://www.w3.org/Graphics/SVG/1.1/DTD/svg11.dtd"><svg t="1501144240039" class="icon" style="" viewBox="0 0 1024 1024" version="1.1" xmlns="http://www.w3.org/2000/svg" p-id="5479" xmlns:xlink="http://www.w3.org/1999/xlink" width="112" height="112"><defs><style type="text/css"></style></defs><path d="M660.495544 362.827539l49.67026 0 0 397.340587-49.67026 0 0-397.340587ZM536.32757 760.168126 536.32757 362.827539 511.493975 362.827539 486.661404 362.827539 486.661404 760.168126 511.493975 760.168126ZM312.824193 362.827539l49.669236 0 0 397.340587-49.669236 0 0-397.340587ZM710.165804 213.826993 710.165804 114.491591c0-27.306926-22.338774-49.666166-49.67026-49.666166L362.493429 64.825424c-27.331485 0-49.669236 22.360264-49.669236 49.666166l0 99.335403L64.488245 213.826993l0 49.668213 99.336426 0 0 645.675512c0 27.308973 22.334681 49.668213 49.666166 49.668213l596.008322 0c27.331485 0 49.67026-22.360264 49.67026-49.668213L859.169419 263.494183l99.332333 0 0-49.668213L710.165804 213.82597zM362.493429 114.491591l298.002115 0 0 99.335403L362.493429 213.826993 362.493429 114.491591zM809.498136 909.169695 213.489814 909.169695 213.489814 263.494183l596.008322 0L809.498136 909.169695z" p-id="5480" fill="#999999"></path></svg>