<?xml version="1.0" standalone="no"?><!DOCTYPE svg PUBLIC "-//W3C//DTD SVG 1.1//EN" "http://www.w3.org/Graphics/SVG/1.1/DTD/svg11.dtd"><svg t="1501062072615" class="icon" style="" viewBox="0 0 1024 1024" version="1.1" xmlns="http://www.w3.org/2000/svg" p-id="4238" xmlns:xlink="http://www.w3.org/1999/xlink" width="112" height="112"><defs><style type="text/css"></style></defs><path d="M285.33563 128.008442c56.33403 7.992021 95.587032 60.234873 87.626733 116.491131-7.916297 56.224536-60.049654 95.390557-116.470665 87.342254-56.264445-8.124028-95.542007-60.257385-87.494727-116.536156C176.912245 159.049412 229.113141 119.894647 285.33563 128.008442z" p-id="4239" fill="#ff4848"></path><path d="M726.745922 126.772288c56.377008 8.04728 95.587032 60.083423 87.606267 116.426663-8.005324 56.311517-60.074214 95.334275-116.383684 87.297228-56.399521-7.992021-95.630011-60.147892-87.691201-116.449175C618.34505 157.737534 670.458965 118.603235 726.745922 126.772288z" p-id="4240" fill="#ff4848"></path><path d="M519.369851 887.535979c-203.680912 1.892093-382.170073-134.401036-455.66904-348.338546-5.992481-17.419741 3.28072-36.475749 20.796652-42.392506 17.515932-5.904477 36.475749 3.390213 42.468231 20.819165 63.986313 186.087209 217.457684 304.689421 391.682727 303.083853 1.049912-0.045025 2.230808-0.099261 3.367701-0.078795 173.000146-3.137457 315.579445-121.861442 372.043435-309.707714 5.336542-17.746176 24.034393-27.652803 41.702798-22.361287 17.605983 5.304819 27.665083 23.958668 22.372543 41.648562-64.971757 216.626759-231.564983 353.511359-434.851922 357.217774C521.972119 887.493 520.594749 887.504256 519.369851 887.535979L519.369851 887.535979z" p-id="4241" fill="#ff4848"></path></svg>