<?xml version="1.0" standalone="no"?><!DOCTYPE svg PUBLIC "-//W3C//DTD SVG 1.1//EN" "http://www.w3.org/Graphics/SVG/1.1/DTD/svg11.dtd"><svg t="1501639004679" class="icon" style="" viewBox="0 0 1024 1024" version="1.1" xmlns="http://www.w3.org/2000/svg" p-id="2088" xmlns:xlink="http://www.w3.org/1999/xlink" width="112" height="112"><defs><style type="text/css"></style></defs><path d="M308.318527 801.231928c-2.884839 0-5.780934-0.694858-8.428354-2.108112-6.120688-3.26655-9.804767-9.77509-9.454779-16.703205l3.548996-70.271761-37.628774 0c-44.856732 0-81.349582-37.841632-81.349582-84.35313l0-306.106033c0-46.512521 36.49285-84.35313 81.349582-84.35313l511.287745 0c44.856732 0 81.349582 37.840608 81.349582 84.35313l0 304.788975c0 25.306553-9.746436 47.966709-27.446389 63.799039-15.537603 13.899211-36.563461 21.871149-57.685514 21.871149l-330.195817 0L319.03101 797.678838C315.874983 800.032555 312.105965 801.231928 308.318527 801.231928M256.355616 273.153993c-25.105975 0-45.532147 21.772907-45.532147 48.535695l0 306.106033c0 26.760741 20.426172 48.535695 45.532147 48.535695l56.464651 0c4.906989 0 9.598049 2.011916 12.978192 5.567053 3.381166 3.557183 5.155664 8.343416 4.906989 13.243241l-2.577832 51.060312 88.8825-66.317516c3.093603-2.307666 6.85034-3.554113 10.709413-3.554113l336.140487 0c19.823415 0 49.314468-13.277011 49.314468-49.852753L813.174484 321.690711c0-26.762787-20.426172-48.535695-45.532147-48.535695L256.355616 273.155016z" fill="#ffab00" p-id="2089"></path><path d="M410.201733 475.817227c0 17.747027-13.782549 32.134379-30.784574 32.134379-17.002025 0-30.785597-14.387352-30.785597-32.134379 0-17.747027 13.783572-32.134379 30.785597-32.134379C396.419184 443.682848 410.201733 458.0702 410.201733 475.817227" fill="#ffab00" p-id="2090"></path><path d="M542.784574 475.817227c0 17.747027-13.782549 32.134379-30.784574 32.134379s-30.785597-14.387352-30.785597-32.134379c0-17.747027 13.783572-32.134379 30.785597-32.134379S542.784574 458.0702 542.784574 475.817227" fill="#ffab00" p-id="2091"></path><path d="M675.368438 475.817227c0 17.747027-13.782549 32.134379-30.784574 32.134379S613.798267 493.564255 613.798267 475.817227c0-17.747027 13.783572-32.134379 30.785597-32.134379S675.368438 458.0702 675.368438 475.817227" fill="#ffab00" p-id="2092"></path></svg>