<?xml version="1.0" standalone="no"?><!DOCTYPE svg PUBLIC "-//W3C//DTD SVG 1.1//EN" "http://www.w3.org/Graphics/SVG/1.1/DTD/svg11.dtd"><svg t="1500017069869" class="icon" style="" viewBox="0 0 1024 1024" version="1.1" xmlns="http://www.w3.org/2000/svg" p-id="3050" xmlns:xlink="http://www.w3.org/1999/xlink" width="200" height="200"><defs><style type="text/css"></style></defs><path d="M365.504 794.4 365.504 334.208c0-11.552-9.376-20.928-20.928-20.928-11.552 0-20.928 9.344-20.928 20.928l0 460.192c0 11.552 9.376 20.928 20.928 20.928C356.128 815.296 365.504 805.92 365.504 794.4L365.504 794.4M532.864 794.4 532.864 334.208c0-11.552-9.376-20.928-20.928-20.928-11.552 0-20.928 9.344-20.928 20.928l0 460.192c0 11.552 9.376 20.928 20.928 20.928C523.488 815.296 532.864 805.92 532.864 794.4L532.864 794.4M867.552 292.352c-11.52 0-20.928 9.344-20.928 20.928l0 564.768c0 23.072-18.72 41.856-41.856 41.856L219.072 919.904c-23.104 0-41.824-18.752-41.824-41.856L177.248 313.28c0-11.552-9.376-20.928-20.928-20.928-9.728 0-17.888 6.656-20.224 15.68C135.872 307.904 135.616 307.808 135.392 307.68L135.392 878.08c0 46.208 37.44 83.68 83.68 83.68L804.8 961.76c46.208 0 83.68-37.472 83.68-83.68L888.48 313.28C888.48 301.728 879.104 292.352 867.552 292.352L867.552 292.352M930.432 145.92l-240.928 0-77.184-77.184c-4.48-4.48-10.368-6.624-16.224-6.464-0.16 0-0.352-0.032-0.512-0.032l-167.36 0c-0.16 0-0.288 0.032-0.448 0.032-5.824-0.128-11.712 2.016-16.16 6.464L334.496 145.92 93.568 145.92c-11.552 0-20.928 9.344-20.928 20.928 0 11.552 9.376 20.928 20.928 20.928l251.008 0c0.256 0 0.512-0.032 0.8-0.032 5.952 0.224 11.968-1.92 16.512-6.464l77.184-77.184 145.856 0 77.184 77.184c4.544 4.544 10.56 6.688 16.512 6.464 0.256 0 0.512 0.032 0.768 0.032l251.008 0c11.552 0 20.928-9.376 20.928-20.928C951.36 155.296 941.984 145.92 930.432 145.92L930.432 145.92M700.224 794.4 700.224 334.208c0-11.552-9.376-20.928-20.928-20.928-11.552 0-20.928 9.344-20.928 20.928l0 460.192c0 11.552 9.376 20.928 20.928 20.928C690.848 815.296 700.224 805.92 700.224 794.4L700.224 794.4M700.224 794.4 700.224 794.4z" p-id="3051" fill="#999999"></path></svg>