<?xml version="1.0" standalone="no"?><!DOCTYPE svg PUBLIC "-//W3C//DTD SVG 1.1//EN" "http://www.w3.org/Graphics/SVG/1.1/DTD/svg11.dtd"><svg t="1503645883245" class="icon" style="" viewBox="0 0 1077 1024" version="1.1" xmlns="http://www.w3.org/2000/svg" p-id="15742" xmlns:xlink="http://www.w3.org/1999/xlink" width="210.3515625" height="200"><defs><style type="text/css"></style></defs><path d="M536.414316 0.646737a510.437053 510.437053 0 0 0-510.922105 510.922105 510.437053 510.437053 0 0 0 510.922105 510.868211 510.437053 510.437053 0 0 0 510.86821-510.922106A510.437053 510.437053 0 0 0 536.360421 0.646737z m0 955.661474A443.769263 443.769263 0 0 1 91.621053 511.461053 443.769263 443.769263 0 0 1 536.414316 66.829474a443.769263 443.769263 0 0 1 444.739368 444.739368 443.769263 443.769263 0 0 1-444.739368 444.793263z m-240.424421-318.517895l102.184421 102.130526c5.982316 6.036211 24.037053 0 24.037052-12.018526v-78.147369a12.934737 12.934737 0 0 1 12.018527-12.018526h372.62821a12.934737 12.934737 0 0 0 12.018527-12.018526v-36.055579a12.934737 12.934737 0 0 0-12.018527-12.018527H265.916632c-12.018526 0-18.000842 12.018526-12.018527 24.037053l42.037895 36.109474z m480.794947-252.496842l-102.184421-102.130527c-5.982316-6.036211-24.037053 0-24.037053 12.018527v78.147368a12.934737 12.934737 0 0 1-12.018526 11.964632H265.916632a12.934737 12.934737 0 0 0-12.018527 12.018526v36.109474a12.934737 12.934737 0 0 0 12.018527 12.018526h540.941473c12.018526 0 18.000842-12.018526 12.018527-24.037053l-42.037895-36.109473z" p-id="15743" fill="#cccccc"></path></svg>