<?xml version="1.0" standalone="no"?><!DOCTYPE svg PUBLIC "-//W3C//DTD SVG 1.1//EN" "http://www.w3.org/Graphics/SVG/1.1/DTD/svg11.dtd"><svg t="1502089128285" class="icon" style="" viewBox="0 0 1024 1024" version="1.1" xmlns="http://www.w3.org/2000/svg" p-id="2037" xmlns:xlink="http://www.w3.org/1999/xlink" width="200" height="200"><defs><style type="text/css"></style></defs><path d="M675.328 117.76c10.752 4.608 15.872 17.408 10.752 28.16-4.608 10.24-16.384 15.36-27.136 11.264-46.592-19.456-96.768-29.184-146.944-29.184-211.968 0-384 172.032-384 384s172.032 384 384 384 384-172.032 384-384c0-51.2-9.728-100.864-29.184-146.944-4.096-10.752 1.024-23.552 12.288-27.648 10.752-4.096 22.528 1.024 27.136 11.264 21.504 51.712 32.256 107.52 32.256 163.328 0 235.52-190.976 426.496-426.496 426.496S85.504 747.52 85.504 512 276.48 85.504 512 85.504c56.832 0 112.128 10.752 163.328 32.256z m36.864 435.2H471.04V311.808c0-13.824 11.264-24.576 24.576-24.576 13.824 0 24.576 11.264 24.576 24.576v191.488H711.68c13.824 0 24.576 11.264 24.576 24.576 1.024 13.824-10.24 25.088-24.064 25.088z" fill="#ffffff" p-id="2038"></path></svg>