<?xml version="1.0" standalone="no"?><!DOCTYPE svg PUBLIC "-//W3C//DTD SVG 1.1//EN" "http://www.w3.org/Graphics/SVG/1.1/DTD/svg11.dtd"><svg t="1511339612330" class="icon" style="" viewBox="0 0 1028 1024" version="1.1" xmlns="http://www.w3.org/2000/svg" p-id="1564" xmlns:xlink="http://www.w3.org/1999/xlink" width="200.78125" height="200"><defs><style type="text/css"></style></defs><path d="M989.126935 886.092879L621.374613 512l374.092879-374.092879c31.702786-31.702786 31.702786-82.427245 0-114.130031s-82.427245-31.702786-114.130031 0L507.244582 397.869969 133.151703 30.117647C101.448916-1.585139 50.724458-1.585139 19.021672 30.117647s-31.702786 82.427245 0 114.130031L393.114551 512 19.021672 886.092879c-31.702786 31.702786-31.702786 82.427245 0 114.130031s82.427245 31.702786 114.130031 0L507.244582 626.130031l374.092879 374.092879c31.702786 31.702786 82.427245 31.702786 114.130031 0 25.362229-31.702786 25.362229-82.427245-6.340557-114.130031" fill="#dcdcdc" p-id="1565"></path></svg>