<?xml version="1.0" standalone="no"?>
<!DOCTYPE svg PUBLIC "-//W3C//DTD SVG 1.1//EN" "http://www.w3.org/Graphics/SVG/1.1/DTD/svg11.dtd">
<svg t="1497234843859" class="icon" style="" viewBox="0 0 1024 1024" version="1.1" xmlns="http://www.w3.org/2000/svg" p-id="3613" xmlns:xlink="http://www.w3.org/1999/xlink" width="112" height="112">
    <defs>
        <style type="text/css"></style>
    </defs>
    <path
        d="M512 1011.809524C236.397714 1011.809524 12.190476 787.602286 12.190476 512S236.397714 12.190476 512 12.190476 1011.809524 236.397714 1011.809524 512 787.602286 1011.809524 512 1011.809524z m0-975.238095C249.856 36.571429 36.571429 249.856 36.571429 512S249.856 987.428571 512 987.428571 987.428571 774.144 987.428571 512 774.144 36.571429 512 36.571429z"
        fill="#FFab00"
        p-id="3614"></path>
    <path
        d="M560.249905 789.796571c0 62.780952-50.395429 30.378667-50.395429 30.378667l-218.185143-175.469714h-33.694476c-20.870095 0-37.790476-16.457143-37.790476-36.766476v-147.065905c0-20.309333 16.920381-36.766476 37.790476-36.766476h40.301714l211.577905-171.568762s50.395429-32.670476 50.395429 30.646857v506.611809zM786.919619 377.197714c-15.896381-27.501714-31.939048-46.543238-43.178667-56.807619a19.334095 19.334095 0 0 0-27.769904 1.657905 20.358095 20.358095 0 0 0 1.609142 28.379429c1.852952 1.682286 5.534476 5.461333 10.508191 11.337142 8.484571 10.044952 16.993524 22.016 24.966095 35.864381 22.844952 39.643429 36.571429 85.991619 36.571429 138.752s-13.726476 99.132952-36.620191 138.800762a249.977905 249.977905 0 0 1-24.966095 35.864381 128.828952 128.828952 0 0 1-10.50819 11.337143 20.48 20.48 0 0 0-1.609143 28.379429 19.407238 19.407238 0 0 0 27.769904 1.657904c11.239619-10.24 27.282286-29.257143 43.178667-56.807619 26.258286-45.543619 42.032762-98.816 42.032762-159.232 0.048762-60.367238-15.725714-113.639619-41.984-159.183238z"
        fill="#FFab00"
        p-id="3615"></path>
    <path
        d="M666.35581 402.090667a19.334095 19.334095 0 0 0-27.769905-0.975238 20.455619 20.455619 0 0 0-0.950857 28.42819c3.657143 4.022857 9.898667 12.897524 16.359619 26.331429 11.02019 22.918095 17.65181 49.810286 17.651809 80.505904s-6.656 57.636571-17.651809 80.505905c-6.460952 13.433905-12.702476 22.308571-16.359619 26.331429a20.406857 20.406857 0 0 0 0.950857 28.42819 19.334095 19.334095 0 0 0 27.794285-0.975238c6.168381-6.753524 14.677333-18.822095 22.918096-36.059428 13.55581-28.208762 21.674667-61.098667 21.674666-98.27962s-8.094476-70.070857-21.674666-98.279619c-8.289524-17.16419-16.774095-29.257143-22.942476-35.961904z"
        fill="#FFab00"
        p-id="3616"></path>
</svg>
