<?xml version="1.0" standalone="no"?><!DOCTYPE svg PUBLIC "-//W3C//DTD SVG 1.1//EN" "http://www.w3.org/Graphics/SVG/1.1/DTD/svg11.dtd"><svg t="1493722405759" class="icon" style="" viewBox="0 0 1024 1024" version="1.1" xmlns="http://www.w3.org/2000/svg" p-id="2761" xmlns:xlink="http://www.w3.org/1999/xlink" width="150" height="150"><defs><style type="text/css"></style></defs><path d="M512 1000.457818c-269.658579 0-488.458841-218.800261-488.458841-488.458841 0-269.656533 218.800261-488.456794 488.458841-488.456794 269.656533 0 488.456794 218.800261 488.456794 488.456794C1000.457818 781.657556 781.657556 1000.457818 512 1000.457818M512 81.189114C274.27369 81.189114 81.195254 273.972838 81.195254 511.99386c0 238.022045 192.783725 430.80577 430.80577 430.80577 238.021022 0 430.803723-192.783725 430.803723-430.80577C942.804746 274.268574 750.027162 81.189114 512 81.189114M425.363827 424.175769l-61.203944 0c-1.778506-58.84113 16.851806-101.413737 55.879682-128.027885 26.613124-21.290909 59.437717-31.93227 98.761328-31.93227 88.704275 7.095605 136.01172 51.442626 141.329842 133.346007 1.777483 37.255509-18.625196 75.402317-61.204967 114.725928-46.714951 33.403784-67.118654 74.216305-61.499679 122.113175l-58.84113 0c-1.772366-33.709753 1.778506-59.437717 10.648524-77.17059 5.324262-15.97074 23.062252-39.034015 53.221132-69.191872l5.324262-5.318122c37.254485-31.937386 54.108339-61.203944 50.561559-87.817068-5.324262-51.449789-32.81743-78.062913-82.492806-80.129992-62.090127 1.772366-92.25003 38.135552-90.477664 109.401666l0 0 0 0L425.363827 424.174746zM542.750351 690.583305l0 69.187779-66.528206 0 0-69.187779L542.750351 690.583305 542.750351 690.583305zM542.750351 690.583305" p-id="2762" fill="#ffab00"></path></svg>