<?xml version="1.0" standalone="no"?><!DOCTYPE svg PUBLIC "-//W3C//DTD SVG 1.1//EN" "http://www.w3.org/Graphics/SVG/1.1/DTD/svg11.dtd"><svg t="1493720961472" class="icon" style="" viewBox="0 0 1024 1024" version="1.1" xmlns="http://www.w3.org/2000/svg" p-id="4600" xmlns:xlink="http://www.w3.org/1999/xlink" width="150" height="150"><defs><style type="text/css"></style></defs><path d="M65.838 513.193c0 247.485 200.635 448.185 448.187 448.185s448.187-200.702 448.187-448.185c0-247.552-200.632-448.187-448.187-448.187-247.552-0.001-448.187 200.634-448.187 448.187zM906.189 513.193c0 216.601-175.563 392.164-392.164 392.164s-392.232-175.529-392.232-392.164 175.631-392.198 392.232-392.198c216.6 0.003 392.164 175.599 392.164 392.198zM274.946 386.161c-10.996 10.923-10.996 28.641 0 39.567l214.432 214.462c6.792 6.725 15.966 8.824 24.647 7.285 8.685 1.54 17.927-0.599 24.65-7.284l214.499-214.462c10.925-10.96 10.925-28.679 0-39.567-10.923-10.993-28.71-10.993-39.636 0l-199.514 199.443-199.443-199.443c-10.993-10.994-28.71-10.994-39.636 0z" p-id="4601" fill="#feab00"></path></svg>