<?xml version="1.0" standalone="no"?><!DOCTYPE svg PUBLIC "-//W3C//DTD SVG 1.1//EN" "http://www.w3.org/Graphics/SVG/1.1/DTD/svg11.dtd"><svg t="1498535340707" class="icon" style="" viewBox="0 0 1408 1024" version="1.1" xmlns="http://www.w3.org/2000/svg" p-id="1943" xmlns:xlink="http://www.w3.org/1999/xlink" width="275" height="200"><defs><style type="text/css"></style></defs><path d="M782.628571 226.742857c0-12.8-7.314286-23.771429-18.285714-23.771428H486.4c-9.142857 0-18.285714 10.971429-18.285714 23.771428v263.314286c0 12.8 7.314286 23.771429 18.285714 23.771428h279.771429c9.142857 0 18.285714-10.971429 18.285714-23.771428V226.742857" fill="#FFE5BA" p-id="1944"></path><path d="M766.171429 521.142857H486.4c-14.628571 0-27.428571-14.628571-27.428571-32.914286V226.742857c0-18.285714 12.8-32.914286 27.428571-32.914286h279.771429c14.628571 0 27.428571 14.628571 27.428571 32.914286v263.314286c-1.828571 16.457143-12.8 31.085714-27.428571 31.085714zM486.4 212.114286c-3.657143 0-9.142857 7.314286-9.142857 14.628571v263.314286c0 9.142857 3.657143 14.628571 9.142857 14.628571h279.771429c3.657143 0 9.142857-7.314286 9.142857-14.628571V226.742857c0-9.142857-3.657143-14.628571-9.142857-14.628571H486.4z" fill="#ffab00" p-id="1945" class="selected"></path><path d="M1311.085714 1020.342857H96.914286c-51.2 0-91.428571-42.057143-91.428572-93.257143V98.742857C5.485714 47.542857 47.542857 5.485714 96.914286 5.485714h1214.171428c51.2 0 91.428571 42.057143 91.428572 93.257143v828.342857c0 51.2-40.228571 93.257143-91.428572 93.257143zM96.914286 32.914286c-36.571429 0-64 29.257143-64 65.828571v828.342857c0 36.571429 29.257143 65.828571 64 65.828572h1214.171428c36.571429 0 64-29.257143 64-65.828572V98.742857c0-36.571429-29.257143-65.828571-64-65.828571H96.914286z m833.828571 879.542857H301.714286v-32.914286c0-36.571429 31.085714-51.2 51.2-51.2h23.771428V184.685714c0-21.942857 7.314286-38.4 20.114286-51.2 20.114286-20.114286 49.371429-18.285714 51.2-18.285714h318.171429c67.657143 0 87.771429 58.514286 89.6 87.771429V493.714286c14.628571 3.657143 40.228571 9.142857 65.828571 16.457143 69.485714 21.942857 65.828571 122.514286 65.828571 126.171428v91.428572c12.8 47.542857 23.771429 45.714286 38.4 43.885714h3.657143c5.485714-1.828571 18.285714-23.771429 25.6-43.885714V528.457143l-93.257143-93.257143v-113.371429l-71.314285-71.314285c-9.142857-10.971429-20.114286-36.571429 0-56.685715s45.714286-10.971429 56.685714 0l192 192v307.2c0 23.771429-1.828571 64-20.114286 98.742858-21.942857 42.057143-58.514286 64-106.057143 64-34.742857 0-64-21.942857-85.942857-62.171429-14.628571-18.285714-20.114286-56.685714-20.114285-62.171429V636.342857c0-23.771429-5.485714-40.228571-18.285715-51.2-9.142857-7.314286-21.942857-10.971429-31.085714-10.971428v256h23.771429c36.571429 0 51.2 31.085714 51.2 51.2v31.085714zM329.142857 885.028571h574.171429v-5.485714c0-5.485714-3.657143-23.771429-23.771429-23.771428-25.6 1.828571-38.4 0-38.4 0l-12.8-1.828572V548.571429l10.971429-1.828572c1.828571 0 36.571429-5.485714 64 16.457143 18.285714 16.457143 27.428571 40.228571 27.428571 71.314286v93.257143c1.828571 14.628571 7.314286 38.4 16.457143 49.371428l1.828571 1.828572c12.8 21.942857 32.914286 49.371429 64 49.371428 36.571429 0 64-16.457143 82.285715-49.371428 16.457143-29.257143 18.285714-65.828571 16.457143-85.942858V396.8L925.257143 212.114286c-3.657143-3.657143-10.971429-7.314286-18.285714 0s-1.828571 16.457143 1.828571 20.114285L987.428571 310.857143v113.371428l93.257143 93.257143v215.771429c-5.485714 20.114286-21.942857 64-49.371428 65.828571h-3.657143c-25.6 1.828571-49.371429-1.828571-67.657143-65.828571v-96.914286c0-1.828571 1.828571-84.114286-45.714286-100.571428-36.571429-10.971429-73.142857-18.285714-73.142857-18.285715l-10.971428-1.828571V202.971429c0-5.485714-3.657143-62.171429-62.171429-62.171429H446.171429s-20.114286 0-31.085715 10.971429c-7.314286 7.314286-10.971429 18.285714-10.971428 31.085714v672.914286h-51.2c-5.485714 0-23.771429 3.657143-23.771429 23.771428v5.485714z" fill="#ffab00" p-id="1946" class="selected"></path></svg>